<svg xmlns="http://www.w3.org/2000/svg" viewBox="0 0 500 500"><g id="freepik--background-simple--inject-342"><path d="M308.21,74.73s-112.82-5.45-204.64,57.11S58.41,413.43,89.78,427.26s152,37.81,245.05-2.9S458.47,236.27,445.06,193.94,405.63,86.76,308.21,74.73Z" style="fill:#D05542"></path><path d="M308.21,74.73s-112.82-5.45-204.64,57.11S58.41,413.43,89.78,427.26s152,37.81,245.05-2.9S458.47,236.27,445.06,193.94,405.63,86.76,308.21,74.73Z" style="fill:#fff;opacity:0.7000000000000001"></path></g><g id="freepik--Plant--inject-342"><path d="M132.55,309.06h0a.12.12,0,0,0-.07-.17.13.13,0,0,0-.17.07,171.35,171.35,0,0,0-9,28.12,262.76,262.76,0,0,0-4.94,29.15l-.71,7.37c-.1,1.22-.24,2.45-.33,3.68l-.2,3.7c-.1,2.47-.25,4.93-.32,7.4l.06,7.4.08,3.7c.06,1.24.15,2.47.23,3.7.19,2.46.34,4.92.56,7.38.48,4.91,1.21,9.79,2,14.65a.14.14,0,0,0,.13.11.13.13,0,0,0,.13-.13h0c0-2.47-.12-4.92-.17-7.38s-.29-4.89-.25-7.35,0-4.9-.08-7.35l-.07-3.67.07-3.67,0-7.34.2-7.33.07-3.67c0-1.22.14-2.44.21-3.66l.45-7.33a262,262,0,0,1,4.15-29.08A170.51,170.51,0,0,1,132.55,309.06Z" style="fill:#ababab"></path><path d="M133.6,347.43a.13.13,0,0,0-.08-.16.12.12,0,0,0-.16.08A176.23,176.23,0,0,0,128.13,366a174.09,174.09,0,0,0-3.08,19.16c-.65,6.42-1.37,12.84-1.46,19.3a160.63,160.63,0,0,0,.69,19.36.14.14,0,0,0,.11.12.14.14,0,0,0,.15-.12c.74-6.43,1.2-12.84,1.64-19.25s.52-12.83.94-19.24a170.62,170.62,0,0,1,2.29-19.08A173.41,173.41,0,0,1,133.6,347.43Z" style="fill:#ababab"></path><path d="M154.87,360.93a.13.13,0,0,0-.18,0,64.86,64.86,0,0,0-14.22,12.4,57,57,0,0,0-5.56,7.73l-1.14,2.16-.9,2.24a22.5,22.5,0,0,0-.78,2.27c-.23.76-.48,1.52-.69,2.29a90.9,90.9,0,0,0-2.94,18.77,108.38,108.38,0,0,0,.7,18.89.13.13,0,0,0,.12.11.12.12,0,0,0,.14-.12l1.62-18.7c.65-6.19,1.05-12.41,2.37-18.45.17-.75.39-1.48.58-2.23a20.6,20.6,0,0,1,.65-2.2l.76-2.17,1-2a54.9,54.9,0,0,1,5.1-7.73,64,64,0,0,1,13.35-13h0A.13.13,0,0,0,154.87,360.93Z" style="fill:#ababab"></path><path d="M144.58,385c-2.9,1.87-4.84,4.81-6.47,7.77a46,46,0,0,0-3.62,9.53c-.26.81-.46,1.64-.64,2.47l-.58,2.49a41,41,0,0,0-.63,5c0,1.7-.07,3.39,0,5.08a45.33,45.33,0,0,0,.67,5,.14.14,0,0,0,.1.11.13.13,0,0,0,.16-.11,46,46,0,0,0,.9-5c.26-1.65.51-3.28.71-4.92s.46-3.26.58-4.9.35-3.28.71-4.88a44.28,44.28,0,0,1,2.77-9.44,21,21,0,0,1,5.43-8.11h0a.14.14,0,0,0,0-.17A.13.13,0,0,0,144.58,385Z" style="fill:#ababab"></path><path d="M114.75,403.7c-.7-8.31-2.07-16.53-3.37-24.74s-2.73-16.42-4.23-24.59S104,338,102.21,329.92a.14.14,0,0,0-.15-.1.13.13,0,0,0-.11.15c1.42,8.19,2.71,16.4,3.92,24.61s2.42,16.43,3.46,24.67,1.81,16.5,2.84,24.72l3,24.72a.12.12,0,0,0,.12.11.13.13,0,0,0,.14-.12c.09-2.08.09-4.17.14-6.25s-.08-4.17-.12-6.25C115.42,412,115.06,407.85,114.75,403.7Z" style="fill:#ababab"></path><path d="M109.77,403.58c-.45-3.29-1-6.56-1.68-9.82l-1.16-4.85c-.39-1.62-.75-3.24-1.22-4.83a137.76,137.76,0,0,0-6.35-18.88l-1-2.29-1.11-2.23c-.7-1.51-1.55-2.94-2.36-4.4a37.1,37.1,0,0,0-6-7.94.12.12,0,0,0-.17,0,.13.13,0,0,0,0,.18l0,0a36.54,36.54,0,0,1,5.48,8.12c.72,1.48,1.48,2.93,2.1,4.46l1,2.26.86,2.3a134.87,134.87,0,0,1,5.53,18.89c.76,3.2,1.26,6.45,1.88,9.67l.78,4.87c.28,1.62.63,3.23.85,4.86.52,3.24,1.12,6.48,1.69,9.73s1.1,6.51,1.78,9.76a.14.14,0,0,0,.13.11.13.13,0,0,0,.13-.13c0-3.32-.06-6.64-.23-9.95S110.11,406.88,109.77,403.58Z" style="fill:#ababab"></path><path d="M102.9,404c-1.54-4.36-3.32-8.62-5.26-12.8A113.88,113.88,0,0,0,91,379.07a.14.14,0,0,0-.17,0,.14.14,0,0,0,0,.18,114.07,114.07,0,0,1,5.65,12.5c1.68,4.25,3.2,8.56,4.48,12.94s2.22,8.83,3.39,13.22,2.21,8.83,3.56,13.27a.14.14,0,0,0,.13.1.13.13,0,0,0,.13-.13,66.62,66.62,0,0,0-1.29-13.81A86.8,86.8,0,0,0,102.9,404Z" style="fill:#ababab"></path><path d="M102.61,418.51A30.11,30.11,0,0,0,99,410.85a32,32,0,0,0-5.32-6.61,24.43,24.43,0,0,0-3.39-2.55A13.74,13.74,0,0,0,86.41,400a.12.12,0,0,0-.15.07.12.12,0,0,0,.07.17h0a19.14,19.14,0,0,1,6.37,4.95,30.29,30.29,0,0,1,4.44,6.71c1.26,2.39,1.91,5,3,7.48.49,1.26,1,2.53,1.53,3.79a31.09,31.09,0,0,0,1.67,3.83h0a.12.12,0,0,0,.11.07.12.12,0,0,0,.14-.12,30.09,30.09,0,0,0-.16-4.25C103.24,421.28,102.94,419.89,102.61,418.51Z" style="fill:#ababab"></path><path d="M103.12,341.81s-13.6-3.14-16.74-17.8,7-8.37-2.1-31.4-7-28.26-3.83-34.89,4.88-4.53,7.67,4.19,12.91,22.33,16.75,47.8S103.12,341.81,103.12,341.81Z" style="fill:#D05542"></path><path d="M130,317s-9.07-3.14-9.42-20.24,6.63-13.61,7.68-34.89,2.44-36.29,6.28-36.64,13.95,10.47,17.44,34.2-4.53,39.42-11.51,46.4S130,317,130,317Z" style="fill:#D05542"></path><path d="M98.24,362.39S96.15,349.83,92,343.9,78.7,332.74,72.77,321.22s-12.56-17.09-12.21-.7,7.67,24.78,16.75,30.36S98.24,362.39,98.24,362.39Z" style="fill:#D05542"></path><path d="M94.4,384S86,368,73.82,356.11s-22-17.79-18.49-11.86,7.67,5.58,13.6,16.05,4.19,18.14,12.56,24.07S94.4,384,94.4,384Z" style="fill:#D05542"></path><path d="M93.36,404.61c-.35-1.05-.7-8.72-12.56-15s-23-3.84-21.64-.7,8.73,8.37,16,11.51S93.36,404.61,93.36,404.61Z" style="fill:#D05542"></path><path d="M129.29,363.09s-5.23-6.63-2.44-20.58,9.07-10.47,16.05-17.8,5.58-8.37,12.56-16,13.26-11.86,16-8.72-1.4,12.91-5.58,18.49-10.82,8.38-14,15.35-1.74,18.15-9.77,23.38S129.29,363.09,129.29,363.09Z" style="fill:#D05542"></path><path d="M146.74,366.93s12.56-14.31,21.63-24.77,12.56-18.49,12.91-11.52,3.14,12.56-4.19,21.64S146.74,366.93,146.74,366.93Z" style="fill:#D05542"></path><path d="M140.11,390s-.35-5.59,19.54-18.5,28.26-15.35,26.16-10.11S175,371.81,165.58,381.23,140.11,390,140.11,390Z" style="fill:#D05542"></path><path d="M104,340.32s-4.66-25-9.55-42.82-8-28.61-8-28.61" style="fill:none;stroke:#ababab;stroke-linecap:round;stroke-linejoin:round"></path><path d="M129.19,317.3s8.48-27.13,11.27-43.53-.35-28.61-1.75-35.93" style="fill:none;stroke:#ababab;stroke-linecap:round;stroke-linejoin:round"></path><path d="M97.14,361.87a131.22,131.22,0,0,0-12.86-18.32c-7.67-9.07-13.6-13.95-17.09-22.68" style="fill:none;stroke:#ababab;stroke-linecap:round;stroke-linejoin:round"></path><path d="M129.29,363.09s2.79-16.75,9.42-25.47,19.89-22.33,25.12-31.05" style="fill:none;stroke:#ababab;stroke-linecap:round;stroke-linejoin:round"></path><path d="M92.54,404.23S80.8,396.59,72.42,392.4" style="fill:none;stroke:#ababab;stroke-linecap:round;stroke-linejoin:round"></path><path d="M126.68,478.23H111.32a6.74,6.74,0,0,1-6.22-4.14c-5-12-18.42-46.73-10.35-56.57,7.69-9.38,40.81-9.38,48.5,0,8.07,9.84-5.33,44.55-10.35,56.57A6.74,6.74,0,0,1,126.68,478.23Z" style="fill:#ababab"></path></g><g id="freepik--Device--inject-342"><path d="M326.59,56V367.48A15.49,15.49,0,0,1,311.1,383H176.51A15.48,15.48,0,0,1,161,367.48V56A15.47,15.47,0,0,1,176.5,40.51h57.77l0,.17c1.44,5.19,4.76,8.56,8.43,8.56h2.11c3.68,0,7-3.37,8.43-8.56l.06-.17H311.1A15.49,15.49,0,0,1,326.59,56Z" style="fill:#fff;stroke:#263238;stroke-linecap:round;stroke-linejoin:round"></path><path d="M326.58,70.48V56A15.48,15.48,0,0,0,311.1,40.51H253.35l-.06.17c-1.44,5.19-4.75,8.56-8.43,8.56h-2.11c-3.67,0-7-3.37-8.43-8.56l0-.17H176.5A15.47,15.47,0,0,0,161,56v14.5Z" style="fill:#dbdbdb;stroke:#263238;stroke-linecap:round;stroke-linejoin:round"></path><path d="M161,365.05v2.43A15.48,15.48,0,0,0,176.51,383H311.1a15.48,15.48,0,0,0,15.48-15.48v-2.43Z" style="fill:#dbdbdb;stroke:#263238;stroke-linecap:round;stroke-linejoin:round"></path><path d="M337.11,130.39V99.27H334.3V59.44a24.55,24.55,0,0,0-24.55-24.55H177.87a24.55,24.55,0,0,0-24.55,24.55V376a24.55,24.55,0,0,0,24.55,24.55H309.75A24.55,24.55,0,0,0,334.3,376v-219h2.81V138.52H334.3v-8.13Zm-10.52,228A24.56,24.56,0,0,1,302,383H185.58A24.55,24.55,0,0,1,161,358.41V65.05a24.55,24.55,0,0,1,24.55-24.54h48.69l0,.17c1.44,5.19,4.76,8.56,8.43,8.56h2.11c3.68,0,7-3.37,8.43-8.56l.06-.17H302a24.55,24.55,0,0,1,24.56,24.54Z" style="fill:#D05542;stroke:#263238;stroke-linecap:round;stroke-linejoin:round"></path><path d="M307.78,38.27H179.84A23.68,23.68,0,0,0,156.16,62V373.44a23.68,23.68,0,0,0,23.68,23.68H307.78a23.69,23.69,0,0,0,23.68-23.68V62A23.69,23.69,0,0,0,307.78,38.27Zm18.81,321A23.69,23.69,0,0,1,302.9,383H184.71A23.68,23.68,0,0,1,161,359.28V64.18A23.67,23.67,0,0,1,184.7,40.51h49.57l0,.17c1.44,5.19,4.76,8.56,8.43,8.56h2.11c3.68,0,7-3.37,8.43-8.56l.06-.17H302.9a23.69,23.69,0,0,1,23.69,23.68Z" style="fill:#263238;stroke:#263238;stroke-linecap:round;stroke-linejoin:round"></path><path d="M245.61,41.68A2.31,2.31,0,1,0,243.3,44,2.3,2.3,0,0,0,245.61,41.68Z" style="fill:#fff"></path><path d="M175.75,50.51c0,2.34-2.62,3.18-2.63,5v.13h2.54v.78h-3.39v-.66c0-2.5,2.61-3,2.61-5.16,0-.8-.26-1.22-.9-1.22s-.91.45-.91,1.14v.68h-.8v-.63c0-1.18.54-2,1.73-2S175.75,49.33,175.75,50.51Z" style="fill:#263238"></path><path d="M180,50.5v.2a1.53,1.53,0,0,1-.94,1.59A1.55,1.55,0,0,1,180,53.9v.59c0,1.18-.55,2-1.75,2s-1.73-.78-1.73-2V54h.81v.59c0,.69.28,1.11.9,1.11s.91-.41.91-1.19v-.6c0-.76-.32-1.12-1-1.15h-.46V52h.51a.93.93,0,0,0,.93-1.06v-.35c0-.8-.28-1.21-.91-1.21s-.9.43-.9,1.13v.4h-.81V50.5c0-1.18.55-1.94,1.73-1.94S180,49.32,180,50.5Z" style="fill:#263238"></path><path d="M181.65,51.09v1.07h-.83V51.09Zm0,4.21v1.07h-.83V55.3Z" style="fill:#263238"></path><path d="M183.4,51.78a1.24,1.24,0,0,1,1.15-.64c1,0,1.43.73,1.43,1.84v1.51c0,1.18-.56,2-1.74,2s-1.74-.78-1.74-2V54h.81v.58c0,.69.29,1.11.9,1.11s.91-.42.91-1.11V53c0-.69-.29-1.11-.91-1.11a.83.83,0,0,0-.87.83v.17h-.81l.21-4.3h3v.78h-2.27Z" style="fill:#263238"></path><path d="M190.28,50.49v.14h-.8v-.19c0-.7-.29-1.11-.92-1.11s-.94.42-.94,1.25v1.73a1.24,1.24,0,0,1,1.25-.82c1,0,1.43.71,1.43,1.83v1.17c0,1.18-.58,2-1.76,2s-1.78-.78-1.78-2V50.55c0-1.23.55-2,1.78-2S190.28,49.31,190.28,50.49Zm-2.66,2.9v1.16c0,.69.29,1.11.92,1.11s.91-.42.91-1.11V53.39c0-.7-.3-1.12-.91-1.12S187.62,52.69,187.62,53.39Z" style="fill:#263238"></path><rect x="272.55" y="50.83" width="2.18" height="5.46" style="fill:#263238"></rect><rect x="275.46" y="49.74" width="2.18" height="6.55" style="fill:#263238"></rect><rect x="278.38" y="48.96" width="2.18" height="7.33" style="fill:#263238"></rect><rect x="281.29" y="47.61" width="2.18" height="8.68" style="fill:#263238"></rect><path d="M310.5,56.14H297.4v-8h13.1Zm-12.37-.73h11.64V48.86H298.13Z" style="fill:#263238"></path><rect x="299.22" y="49.65" width="6.92" height="4.97" style="fill:#263238"></rect><rect x="310.05" y="51.19" width="1.65" height="1.89" style="fill:#263238"></rect><path d="M292.59,54.4a.47.47,0,0,1-.25-.07c-2.67-1.58-4.43-.11-4.5,0a.49.49,0,0,1-.65-.74c.1-.08,2.35-2,5.65,0a.49.49,0,0,1-.25.91Z" style="fill:#263238"></path><path d="M293.58,52.75a.54.54,0,0,1-.25-.06c-3.86-2.3-6.45-.08-6.48-.06a.49.49,0,0,1-.69,0,.48.48,0,0,1,0-.69s3.15-2.71,7.62-.06a.5.5,0,0,1,.17.68A.49.49,0,0,1,293.58,52.75Z" style="fill:#263238"></path><path d="M294.47,50.85a.47.47,0,0,1-.25-.07c-4.88-2.9-8.13-.17-8.26-.05a.49.49,0,0,1-.65-.74s3.9-3.33,9.41-.05a.48.48,0,0,1,.17.67A.49.49,0,0,1,294.47,50.85Z" style="fill:#263238"></path><path d="M291.12,55.22A1.23,1.23,0,1,1,289.89,54,1.23,1.23,0,0,1,291.12,55.22Z" style="fill:#263238"></path><rect x="184.61" y="242.41" width="119.21" height="48.41" rx="5.33" style="fill:#D05542;stroke:#263238;stroke-linecap:round;stroke-linejoin:round"></rect><path d="M182.74,118.37H305.69a0,0,0,0,1,0,0v97.06a8.86,8.86,0,0,1-8.86,8.86H191.6a8.86,8.86,0,0,1-8.86-8.86V118.37A0,0,0,0,1,182.74,118.37Z" style="fill:#fff;stroke:#263238;stroke-linecap:round;stroke-linejoin:round"></path><rect x="182.74" y="118.37" width="122.95" height="9.12" style="fill:#D05542;stroke:#263238;stroke-linecap:round;stroke-linejoin:round"></rect><rect x="189.65" y="134.7" width="13.82" height="13.82" style="fill:#fff;stroke:#263238;stroke-linecap:round;stroke-linejoin:round"></rect><rect x="213.48" y="134.7" width="13.82" height="13.82" style="fill:#fff;stroke:#263238;stroke-linecap:round;stroke-linejoin:round"></rect><rect x="237.31" y="134.7" width="13.82" height="13.82" style="fill:#fff;stroke:#263238;stroke-linecap:round;stroke-linejoin:round"></rect><rect x="261.13" y="134.7" width="13.82" height="13.82" style="fill:#fff;stroke:#263238;stroke-linecap:round;stroke-linejoin:round"></rect><rect x="284.96" y="134.7" width="13.82" height="13.82" style="fill:#fff;stroke:#263238;stroke-linecap:round;stroke-linejoin:round"></rect><rect x="189.65" y="155.67" width="13.82" height="13.82" style="fill:#fff;stroke:#263238;stroke-linecap:round;stroke-linejoin:round"></rect><rect x="213.48" y="155.67" width="13.82" height="13.82" style="fill:#D05542;stroke:#263238;stroke-linecap:round;stroke-linejoin:round"></rect><rect x="237.31" y="155.67" width="13.82" height="13.82" style="fill:#fff;stroke:#263238;stroke-linecap:round;stroke-linejoin:round"></rect><rect x="261.13" y="155.67" width="13.82" height="13.82" style="fill:#fff;stroke:#263238;stroke-linecap:round;stroke-linejoin:round"></rect><rect x="284.96" y="155.67" width="13.82" height="13.82" style="fill:#D05542;stroke:#263238;stroke-linecap:round;stroke-linejoin:round"></rect><rect x="189.65" y="176.64" width="13.82" height="13.82" style="fill:#fff;stroke:#263238;stroke-linecap:round;stroke-linejoin:round"></rect><rect x="213.48" y="176.64" width="13.82" height="13.82" style="fill:#fff;stroke:#263238;stroke-linecap:round;stroke-linejoin:round"></rect><rect x="237.31" y="176.64" width="13.82" height="13.82" style="fill:#D05542;stroke:#263238;stroke-linecap:round;stroke-linejoin:round"></rect><rect x="261.13" y="176.64" width="13.82" height="13.82" style="fill:#fff;stroke:#263238;stroke-linecap:round;stroke-linejoin:round"></rect><rect x="284.96" y="176.64" width="13.82" height="13.82" style="fill:#fff;stroke:#263238;stroke-linecap:round;stroke-linejoin:round"></rect><rect x="189.65" y="197.6" width="13.82" height="13.82" style="fill:#fff;stroke:#263238;stroke-linecap:round;stroke-linejoin:round"></rect><rect x="213.48" y="197.6" width="13.82" height="13.82" style="fill:#fff;stroke:#263238;stroke-linecap:round;stroke-linejoin:round"></rect><rect x="237.31" y="197.6" width="13.82" height="13.82" style="fill:#fff;stroke:#263238;stroke-linecap:round;stroke-linejoin:round"></rect><rect x="261.13" y="197.6" width="13.82" height="13.82" style="fill:#fff;stroke:#263238;stroke-linecap:round;stroke-linejoin:round"></rect><rect x="284.96" y="197.6" width="13.82" height="13.82" style="fill:#fff;stroke:#263238;stroke-linecap:round;stroke-linejoin:round"></rect><line x1="180.74" y1="322.54" x2="309.69" y2="322.54" style="fill:none;stroke:#263238;stroke-linecap:round;stroke-linejoin:round"></line><line x1="182.43" y1="330.68" x2="210.26" y2="330.68" style="fill:none;stroke:#263238;stroke-linecap:round;stroke-linejoin:round"></line><line x1="182.43" y1="334.76" x2="210.26" y2="334.76" style="fill:none;stroke:#263238;stroke-linecap:round;stroke-linejoin:round"></line><line x1="182.43" y1="338.83" x2="210.26" y2="338.83" style="fill:none;stroke:#263238;stroke-linecap:round;stroke-linejoin:round"></line><line x1="182.43" y1="342.9" x2="210.26" y2="342.9" style="fill:none;stroke:#263238;stroke-linecap:round;stroke-linejoin:round"></line><line x1="215.01" y1="330.68" x2="242.84" y2="330.68" style="fill:none;stroke:#263238;stroke-linecap:round;stroke-linejoin:round"></line><line x1="215.01" y1="334.76" x2="242.84" y2="334.76" style="fill:none;stroke:#263238;stroke-linecap:round;stroke-linejoin:round"></line><line x1="215.01" y1="338.83" x2="242.84" y2="338.83" style="fill:none;stroke:#263238;stroke-linecap:round;stroke-linejoin:round"></line><line x1="215.01" y1="342.9" x2="242.84" y2="342.9" style="fill:none;stroke:#263238;stroke-linecap:round;stroke-linejoin:round"></line><line x1="247.59" y1="330.68" x2="275.42" y2="330.68" style="fill:none;stroke:#263238;stroke-linecap:round;stroke-linejoin:round"></line><line x1="247.59" y1="334.76" x2="275.42" y2="334.76" style="fill:none;stroke:#263238;stroke-linecap:round;stroke-linejoin:round"></line><line x1="247.59" y1="338.83" x2="275.42" y2="338.83" style="fill:none;stroke:#263238;stroke-linecap:round;stroke-linejoin:round"></line><line x1="247.59" y1="342.9" x2="275.42" y2="342.9" style="fill:none;stroke:#263238;stroke-linecap:round;stroke-linejoin:round"></line><line x1="280.17" y1="330.68" x2="308" y2="330.68" style="fill:none;stroke:#263238;stroke-linecap:round;stroke-linejoin:round"></line><line x1="280.17" y1="334.76" x2="308" y2="334.76" style="fill:none;stroke:#263238;stroke-linecap:round;stroke-linejoin:round"></line><line x1="280.17" y1="338.83" x2="308" y2="338.83" style="fill:none;stroke:#263238;stroke-linecap:round;stroke-linejoin:round"></line><line x1="280.17" y1="342.9" x2="308" y2="342.9" style="fill:none;stroke:#263238;stroke-linecap:round;stroke-linejoin:round"></line><path d="M191.61,101.65V83.53h1.72l5.15,12v-12h2.1v18.12H199l-5.21-12.37v12.37Z" style="fill:#263238"></path><path d="M203.42,101.65V83.53h7v1.88H206v6h3.64V93.2H206v6.64h4.54v1.81Z" style="fill:#263238"></path><path d="M211.4,101.65l3.78-9.48-3.71-8.64h2.35l2.75,6.4,2.51-6.4h2.34l-3.8,8.84,4,9.28h-2.35l-2.95-6.82-2.55,6.82Z" style="fill:#263238"></path><path d="M225.29,101.65V85.41h-3.06V83.53h8.57v1.88h-3v16.24Z" style="fill:#263238"></path><path d="M237.66,101.65V83.53h7v1.88h-4.49v6h3.64V93.2h-3.64v6.64h4.54v1.81Z" style="fill:#263238"></path><path d="M249.92,101.65l-4-18.12h2.37l2.86,13.36,2.73-13.36h2.31l-4,18.12Z" style="fill:#263238"></path><path d="M258.06,101.65V83.53h7v1.88h-4.49v6h3.64V93.2h-3.64v6.64h4.54v1.81Z" style="fill:#263238"></path><path d="M267.16,101.65V83.53h1.73l5.14,12v-12h2.1v18.12h-1.61l-5.21-12.37v12.37Z" style="fill:#263238"></path><path d="M281,101.65V85.41H277.9V83.53h8.57v1.88h-3v16.24Z" style="fill:#263238"></path><path d="M292.48,101.85a4.67,4.67,0,0,1-2.6-.67,4.23,4.23,0,0,1-1.58-1.86,7.62,7.62,0,0,1-.63-2.75l2.24-.6a10.31,10.31,0,0,0,.3,1.86,3.46,3.46,0,0,0,.77,1.46,2,2,0,0,0,1.5.57,1.91,1.91,0,0,0,1.49-.55,2.26,2.26,0,0,0,.5-1.57,3.19,3.19,0,0,0-.56-2,9.74,9.74,0,0,0-1.41-1.51l-3-2.69a5.26,5.26,0,0,1-1.32-1.71,5.54,5.54,0,0,1-.42-2.29,4.08,4.08,0,0,1,1.14-3.09A4.29,4.29,0,0,1,292,83.38a5.78,5.78,0,0,1,1.89.28,3.2,3.2,0,0,1,1.36.86,4,4,0,0,1,.87,1.46,7.94,7.94,0,0,1,.44,2.07l-2.15.58a8.14,8.14,0,0,0-.27-1.64,2.4,2.4,0,0,0-.7-1.21,2.11,2.11,0,0,0-1.44-.46,2,2,0,0,0-1.47.51,2,2,0,0,0-.52,1.48,2.93,2.93,0,0,0,.28,1.37,3.73,3.73,0,0,0,.9,1.09l3.07,2.69A9.66,9.66,0,0,1,296,94.59a5.42,5.42,0,0,1,.78,2.94,4.61,4.61,0,0,1-.56,2.32,3.78,3.78,0,0,1-1.53,1.49A4.78,4.78,0,0,1,292.48,101.85Z" style="fill:#263238"></path><path d="M219.84,263.37a3.61,3.61,0,0,1-2.25-.61,3.15,3.15,0,0,1-1.11-1.63,7.83,7.83,0,0,1-.31-2.29V254a8.25,8.25,0,0,1,.31-2.41,2.89,2.89,0,0,1,1.11-1.59,3.82,3.82,0,0,1,2.25-.57,3.74,3.74,0,0,1,2,.48,2.62,2.62,0,0,1,1.08,1.34,6,6,0,0,1,.33,2.11v1.08h-1.81v-1a10.54,10.54,0,0,0-.07-1.34,1.47,1.47,0,0,0-.42-.91,1.61,1.61,0,0,0-1.12-.31,1.68,1.68,0,0,0-1.18.34,1.66,1.66,0,0,0-.48,1,8,8,0,0,0-.11,1.47v5.41a5.85,5.85,0,0,0,.17,1.62,1.37,1.37,0,0,0,.55.85,1.9,1.9,0,0,0,1.05.26,1.52,1.52,0,0,0,1.11-.35,1.71,1.71,0,0,0,.42-.95,11.44,11.44,0,0,0,.08-1.41v-1h1.81v1a7.23,7.23,0,0,1-.31,2.19,2.84,2.84,0,0,1-1,1.49A3.59,3.59,0,0,1,219.84,263.37Z" style="fill:#263238"></path><path d="M228.58,263.37a4,4,0,0,1-2.21-.54,2.94,2.94,0,0,1-1.17-1.54,7,7,0,0,1-.36-2.35v-5.17a6.69,6.69,0,0,1,.36-2.32,2.92,2.92,0,0,1,1.18-1.48,4.89,4.89,0,0,1,4.39,0,3,3,0,0,1,1.17,1.49,6.59,6.59,0,0,1,.36,2.31V259a6.83,6.83,0,0,1-.36,2.33,3,3,0,0,1-1.17,1.54A3.9,3.9,0,0,1,228.58,263.37Zm0-1.5a1.86,1.86,0,0,0,1.15-.31,1.54,1.54,0,0,0,.52-.88,5.78,5.78,0,0,0,.13-1.32v-6a5.58,5.58,0,0,0-.13-1.31,1.46,1.46,0,0,0-.52-.84,1.86,1.86,0,0,0-1.15-.29,1.88,1.88,0,0,0-1.15.29,1.43,1.43,0,0,0-.53.84,5.53,5.53,0,0,0-.14,1.31v6a5.75,5.75,0,0,0,.14,1.32,1.5,1.5,0,0,0,.53.88A1.88,1.88,0,0,0,228.58,261.87Z" style="fill:#263238"></path><path d="M234.17,263.22V249.57h1.3l3.88,9.06v-9.06h1.58v13.65h-1.21l-3.93-9.32v9.32Z" style="fill:#263238"></path><path d="M243.07,263.22V249.57h5.27v1.37H245v4.54h2.61v1.35H245v6.39Z" style="fill:#263238"></path><path d="M249.76,263.22V249.57h1.87v13.65Z" style="fill:#263238"></path><path d="M253.83,263.22V249.57h2.75a6.12,6.12,0,0,1,2.26.36,2.53,2.53,0,0,1,1.32,1.17,4.48,4.48,0,0,1,.43,2.09,5.8,5.8,0,0,1-.17,1.44,2.77,2.77,0,0,1-.54,1.1,2.12,2.12,0,0,1-1,.65l1.94,6.84H259l-1.79-6.41h-1.48v6.41Zm1.91-7.77h.72a3.74,3.74,0,0,0,1.32-.2,1.42,1.42,0,0,0,.74-.69,3.35,3.35,0,0,0,.23-1.37,2.65,2.65,0,0,0-.44-1.72,2.17,2.17,0,0,0-1.73-.53h-.84Z" style="fill:#263238"></path><path d="M262.54,263.22l.26-13.65h1.87l2.4,11.07,2.43-11.07h1.85l.26,13.65h-1.54l-.15-9.91-2.31,9.91h-1.07l-2.3-9.91-.15,9.91Z" style="fill:#263238"></path><path d="M204.81,283.43l2.9-13.64h1.84l2.91,13.64h-1.8L210,280h-2.78l-.65,3.44Zm2.7-4.8h2.27l-1.14-6.15Z" style="fill:#263238"></path><path d="M214.8,283.43V271.2h-2.31v-1.41H219v1.41H216.7v12.23Z" style="fill:#263238"></path><path d="M221.76,283.43V271.2h-2.31v-1.41h6.45v1.41h-2.24v12.23Z" style="fill:#263238"></path><path d="M227.22,283.43V269.79h5.29v1.41h-3.39v4.52h2.75v1.34h-2.75v5h3.42v1.36Z" style="fill:#263238"></path><path d="M234.07,283.43V269.79h1.3l3.87,9.06v-9.06h1.59v13.64h-1.21l-3.93-9.32v9.32Z" style="fill:#263238"></path><path d="M243,283.43V269.79h3a5.2,5.2,0,0,1,2.4.46,2.69,2.69,0,0,1,1.27,1.39A6.2,6.2,0,0,1,250,274v5a7,7,0,0,1-.38,2.44,3,3,0,0,1-1.23,1.51,4.44,4.44,0,0,1-2.29.51Zm1.9-1.36H246a2.15,2.15,0,0,0,1.48-.41,1.83,1.83,0,0,0,.53-1.18,16.46,16.46,0,0,0,.09-1.87v-4.43a9,9,0,0,0-.13-1.72,1.49,1.49,0,0,0-.59-1,2.65,2.65,0,0,0-1.43-.3h-1Z" style="fill:#263238"></path><path d="M251.1,283.43l2.9-13.64h1.84l2.91,13.64H257l-.62-3.44h-2.78l-.66,3.44Zm2.7-4.8h2.27l-1.14-6.15Z" style="fill:#263238"></path><path d="M260.13,283.43V269.79h1.3l3.88,9.06v-9.06h1.58v13.64h-1.21l-3.93-9.32v9.32Z" style="fill:#263238"></path><path d="M272.45,283.58a3.67,3.67,0,0,1-2.25-.6,3.18,3.18,0,0,1-1.11-1.64,7.78,7.78,0,0,1-.31-2.29v-4.82a8.3,8.3,0,0,1,.31-2.41,3,3,0,0,1,1.11-1.59,3.89,3.89,0,0,1,2.25-.56,3.84,3.84,0,0,1,2,.47,2.6,2.6,0,0,1,1.08,1.35,6.18,6.18,0,0,1,.32,2.1v1.08h-1.8v-1a10.75,10.75,0,0,0-.07-1.34,1.41,1.41,0,0,0-.42-.9,1.62,1.62,0,0,0-1.13-.32,1.67,1.67,0,0,0-1.17.35,1.63,1.63,0,0,0-.48,1,8.12,8.12,0,0,0-.11,1.48v5.4a5.92,5.92,0,0,0,.17,1.63,1.4,1.4,0,0,0,.55.85,1.88,1.88,0,0,0,1,.25,1.53,1.53,0,0,0,1.12-.34,1.71,1.71,0,0,0,.42-.95,11.74,11.74,0,0,0,.08-1.42v-1h1.8v1a7.32,7.32,0,0,1-.3,2.2,2.81,2.81,0,0,1-1,1.48A3.51,3.51,0,0,1,272.45,283.58Z" style="fill:#263238"></path><path d="M277.7,283.43V269.79H283v1.41h-3.38v4.52h2.74v1.34h-2.74v5H283v1.36Z" style="fill:#263238"></path></g><g id="freepik--Character--inject-342"><path d="M372,463.24s-4.44,6.11-6.38,6.94-5.56,1.39-6.67,3.89a10.75,10.75,0,0,0-1.11,3.88h27.49s1.11-3.61,0-5.83a15.11,15.11,0,0,1-1.39-4.44Z" style="fill:#fff;stroke:#263238;stroke-linecap:round;stroke-linejoin:round"></path><path d="M385.84,475.18H358.55a9.22,9.22,0,0,0-.67,2.77h27.49A13.68,13.68,0,0,0,385.84,475.18Z" style="fill:#fff;stroke:#263238;stroke-linecap:round;stroke-linejoin:round"></path><path d="M401.47,469.35l.55,8.88h13.33a10.55,10.55,0,0,0-.28-5c-.83-2.5-1.67-4.72-1.67-4.72Z" style="fill:#fff;stroke:#263238;stroke-linecap:round;stroke-linejoin:round"></path><path d="M402,478.23h13.33a10.71,10.71,0,0,0,.09-3.33H401.81Z" style="fill:#fff;stroke:#263238;stroke-linecap:round;stroke-linejoin:round"></path><path d="M361.21,333.87S363.44,362.74,364,373,372,463.24,372,463.24s10.83,6.66,12.21,6.66,3.06-96.34,3.06-96.34l14.16,95.79a17.55,17.55,0,0,0,4.71.83c2.23,0,7.22-1.67,7.22-1.67L408.68,353V333.87s-28,3.88-35.53,2.77A64.62,64.62,0,0,1,361.21,333.87Z" style="fill:#263238;stroke:#263238;stroke-linecap:round;stroke-linejoin:round"></path><polyline points="395.08 351.36 388.97 356.07 387.31 373.56" style="fill:none;stroke:gray;stroke-linecap:round;stroke-linejoin:round"></polyline><path d="M397.6,216.57S386.27,215.15,383,219s-4,11.38-6.32,13.17-3.59-.43-4.62,1.91.65,5.23.65,5.23-.28,11.26,1,11.81,7,.55,7,.55l-.93,4.62,14.32.6,1.25-4.84s10.89-6.31,13.83-11.1,2.24-15.41-.7-19.11S397.6,216.57,397.6,216.57Z" style="fill:#b2b2b2;stroke:#263238;stroke-linecap:round;stroke-linejoin:round"></path><path d="M380.06,231.64c-.35.84-.92,1.42-1.26,1.28s-.32-.95,0-1.8.91-1.42,1.25-1.28S380.41,230.79,380.06,231.64Z" style="fill:#263238"></path><path d="M373.8,241.13a2.63,2.63,0,0,0,3.46-1" style="fill:none;stroke:#263238;stroke-linecap:round;stroke-linejoin:round"></path><path d="M380.18,227.69s1.45-.79,1.62,1.62" style="fill:none;stroke:#263238;stroke-linecap:round;stroke-linejoin:round"></path><path d="M408.43,221.85c-2.94-3.7-10.83-5.28-10.83-5.28S386.27,215.15,383,219c0,0,6.26-1.58,5.45,1.09s-7.3,6.75-5.07,8.33,4.74.38,3.7,2.72-2.34,4.63-1.25,4.85,4.14-2.29,5.44-1.74,2.78,4.52,1.53,6.53a5.71,5.71,0,0,1-3.6,2.39s2.23,5.83,4.19,7.36a4.31,4.31,0,0,0,3,.91c2.77-1.69,10.43-6.59,12.82-10.49C412.07,236.17,411.37,225.55,408.43,221.85Z" style="fill:#263238;stroke:#263238;stroke-linecap:round;stroke-linejoin:round"></path><path d="M359.91,334.45l.8,6.37s4,4.25,15.4,4.52,25.5-1.06,28.95-2.12,4.25-2.13,4.25-2.13l-.63-7.22S387.8,341.09,359.91,334.45Z" style="fill:#fff;stroke:#263238;stroke-linecap:round;stroke-linejoin:round"></path><path d="M411.09,350.17s-.86,3.25-1.06,4.22.39,8,.39,9,1,2,1.76,1.17c0,0,1,3.53,2.16,3.33s4.89-4.3,5.67-7.83-.19-9.2-.19-9.2Z" style="fill:#b2b2b2;stroke:#263238;stroke-linecap:round;stroke-linejoin:round"></path><path d="M412.57,355.18a5.3,5.3,0,0,0,1.38,2.54l1,.79.59,3.52s-.39,2.15-.59,3.33" style="fill:#b2b2b2;stroke:#263238;stroke-linecap:round;stroke-linejoin:round"></path><line x1="412.18" y1="364.57" x2="412.38" y2="359.48" style="fill:#b2b2b2;stroke:#263238;stroke-linecap:round;stroke-linejoin:round"></line><path d="M411.08,345.81s.05,2.89,0,4.36,2.89,3.88,6.61,2.94,3.79-8.24,3.79-8.24S416.35,348.66,411.08,345.81Z" style="fill:#fff;stroke:#263238;stroke-linecap:round;stroke-linejoin:round"></path><path d="M409.14,264.48s8.07,5.27,10.24,9.3,7.45,41.89,8.07,45.92-5,25.13-5.9,27.92-5.93,2.29-7.75,1.55a6.23,6.23,0,0,1-3.73-5.27l-.93-18.61Z" style="fill:#D05542;stroke:#263238;stroke-linecap:round;stroke-linejoin:round"></path><path d="M412.77,309.76c.38-13.73,1.11-26.59,1.34-28.84.26-2.65,0-9.67-1.78-13.92a34.32,34.32,0,0,0-8.57-6.19,29.49,29.49,0,0,0-3.13-.78l.88-.28a35.5,35.5,0,0,0-4.76-1.67c-4.17-1.11-15.27-1.66-18.6,1.39,0,0-9.62,3-14.35,6.45a20.14,20.14,0,0,0-4.3,10.35c-.62,6.82-2.45,47.05-2.45,47.05s-2.22,6.66.56,10,8.6,8.33,25.53,7.77,25-2.79,27.28-4.89a7.26,7.26,0,0,0,1.36-2.8,25.39,25.39,0,0,0,1.13-8.12C412.82,320,412.67,309.82,412.77,309.76Z" style="fill:#D05542;stroke:#263238;stroke-linecap:round;stroke-linejoin:round"></path><path d="M375.09,260.58a43.3,43.3,0,0,1,3.89-4.72c.83-.55,12.77-3.33,16.38-2.22s5.27,6.39,5.27,6.39A93.88,93.88,0,0,0,375.09,260.58Z" style="fill:#fff;stroke:#263238;stroke-linecap:round;stroke-linejoin:round"></path><path d="M308.55,273.25s-1.7-3.8-2.71-5.82-8.58-7.74-10.1-9.59-3.37-1-3.53.67,1.51,3.54,2,4.21,1.68,2.36,1.68,2.36-4.38,2.86-4.71,3.7.67,4.21,1,5.39.84,2.35,1.68,2.35h.84s1.52,1.18,2.53,1.86,4.47.63,4.47.63l2.43,1.39S305.36,275.53,308.55,273.25Z" style="fill:#b2b2b2;stroke:#263238;stroke-linecap:round;stroke-linejoin:round"></path><path d="M294.73,276.52a8.22,8.22,0,0,1-.67-3.19" style="fill:#fff;stroke:#263238;stroke-linecap:round;stroke-linejoin:round"></path><path d="M313.39,275.58s-3.23-1.5-4.84-2.33-5.86,1.12-6.82,5.76,7.1,8.64,7.1,8.64S307.39,279.9,313.39,275.58Z" style="fill:#fff;stroke:#263238;stroke-linecap:round;stroke-linejoin:round"></path><path d="M375.09,260.58s-15,5.45-16.83,6.69-19.54,22-19.54,22-21-11.9-23.79-13.45-7.55-1.14-8.79,3.52-.31,8.38,3.41,11.17,27.3,18.92,30.72,20.16,12.1-5,12.1-5l16.13-14.27" style="fill:#D05542;stroke:#263238;stroke-linecap:round;stroke-linejoin:round"></path></g><g id="freepik--Floor--inject-342"><line x1="308.11" y1="478.23" x2="464.07" y2="478.23" style="fill:none;stroke:#263238;stroke-linecap:round;stroke-linejoin:round"></line><line x1="34.44" y1="478.23" x2="300.82" y2="478.23" style="fill:none;stroke:#263238;stroke-linecap:round;stroke-linejoin:round"></line></g><g id="freepik--Airplane--inject-342"><polygon points="419.09 88.73 365.51 102.2 384.8 112.6 419.09 88.73" style="fill:#fff;stroke:#263238;stroke-linecap:round;stroke-linejoin:round"></polygon><polygon points="384.8 112.6 386.44 127.53 419.09 88.73 384.8 112.6" style="fill:#b2b2b2;stroke:#263238;stroke-linecap:round;stroke-linejoin:round"></polygon><polygon points="390.67 115.52 386.44 127.53 419.09 88.73 390.67 115.52" style="fill:#fff;stroke:#263238;stroke-linecap:round;stroke-linejoin:round"></polygon><polygon points="419.09 88.73 390.67 115.52 406.93 126.46 419.09 88.73" style="fill:#fff;stroke:#263238;stroke-linecap:round;stroke-linejoin:round"></polygon><path d="M151.55,169.19l-1.75,1" style="fill:none;stroke:#263238;stroke-linecap:round;stroke-linejoin:round"></path><path d="M146.3,172.14c-18.1,10.36-41,25.06-62.48,43.41-56.31,48.16,1.77,82.72,85.67,47.27C252,228,324.18,190.26,377.69,133.41" style="fill:none;stroke:#263238;stroke-linecap:round;stroke-linejoin:round;stroke-dasharray:4.0263800621032715,4.0263800621032715"></path><path d="M379.07,131.93l1.35-1.46" style="fill:none;stroke:#263238;stroke-linecap:round;stroke-linejoin:round"></path><path d="M305.18,117.11C337.85,104,389,66.06,397,54.46c38-55.31-58.91-1.88-58.91-1.88" style="fill:none;stroke:#263238;stroke-linecap:round;stroke-linejoin:round;stroke-dasharray:4"></path></g></svg>
