<svg xmlns="http://www.w3.org/2000/svg" viewBox="0 0 500 500"><g id="freepik--background-simple--inject-51"><path d="M400.31,36a97.53,97.53,0,0,1-9.93,1.37C351.81,40.53,143.65,57.6,68,61c-35,1.56-26.22,51.62-26.47,53.72-1.26,10.67,22.84,212.9,18.21,293.69-2.1,36.67,45.21,28.75,48,29.42,14.17,3.43,310.65-19.47,316.88-29.59S444,113.12,446.41,85.1C451,30.76,412.63,33.67,400.31,36Z" style="fill:#D05542"></path><path d="M400.31,36a97.53,97.53,0,0,1-9.93,1.37C351.81,40.53,143.65,57.6,68,61c-35,1.56-26.22,51.62-26.47,53.72-1.26,10.67,22.84,212.9,18.21,293.69-2.1,36.67,45.21,28.75,48,29.42,14.17,3.43,310.65-19.47,316.88-29.59S444,113.12,446.41,85.1C451,30.76,412.63,33.67,400.31,36Z" style="fill:#fff;opacity:0.7000000000000001"></path></g><g id="freepik--Plants--inject-51"><path d="M117.91,426.13c-1-4.39-7.13-12.38-7.13-12.39s-4,5.65-4.25,6c-2.43,4.52-4.45,14.68-.46,18.81a6.8,6.8,0,0,0,10.09-.63C118.78,434.86,118.75,429.87,117.91,426.13Z" style="fill:#263238"></path><path d="M139.4,406.06c-2-3.82-9.45-9.53-10-10a122,122,0,0,0,8.95-13.33c1.57-2.69,3.08-5.45,4.56-8.24-.49,1.37-.91,2.6-1,2.78-1.14,5-.41,15.33,4.52,18.27a6.81,6.81,0,0,0,9.57-3.28c1.71-3.68.36-8.49-1.43-11.87s-8.06-8.43-9.73-9.73c.56-1.08,1.13-2.14,1.68-3.22,2.64-5.17,5.25-10.34,8-15.33,1-1.76,2-3.46,3-5.16-.43,1.22-.78,2.25-.82,2.41-1.14,5-.41,15.33,4.53,18.27a6.79,6.79,0,0,0,9.56-3.28c1.71-3.68.37-8.49-1.43-11.87s-7.45-7.94-9.42-9.49c1.08-1.72,2.15-3.43,3.28-5,.79-1.09,1.47-2.18,2.33-3.23l2.45-3.12c1.63-1.92,3.3-3.92,4.94-5.76,1.13-1.28,2.23-2.49,3.33-3.71-1,1.74-2.8,5.19-2.93,5.49-1.88,4.77-2.73,15.1,1.71,18.74a6.79,6.79,0,0,0,9.95-1.79c2.25-3.37,1.65-8.33.38-11.95-1.39-4-7.58-10.51-8.36-11.32,1.84-2,3.64-3.95,5.37-5.75q1.92-2,3.72-3.82l-2.12-2.88c-1.31,1.38-2.67,2.83-4.08,4.37-1.87,2-3.83,4.24-5.82,6.53a74.65,74.65,0,0,0-7.62-4.15c.83-4.25-.62-12.53-.82-13.59,2.64-.67,5.21-1.29,7.65-1.83,1.29-.3,2.52-.56,3.74-.82l-2.24-3.05-2.28.55c-2.69.67-5.54,1.43-8.46,2.24-.46-1-4.24-9.2-7.42-12-2.89-2.51-7.27-4.91-11.24-4.07a6.79,6.79,0,0,0-5.36,8.58c1.75,5.47,11.65,8.51,16.77,8.53.31,0,3.59-.36,5.66-.62-1.19.34-2.36.65-3.58,1-2.42.7-4.82,1.47-7.4,2.29l-3.74,1.33c-1.26.42-2.53,1-3.81,1.53-2.95,1.24-5.87,2.64-8.79,4.12-.61-2.12-2.92-9.62-5.4-12.55s-6.45-6-10.49-5.74a6.8,6.8,0,0,0-6.6,7.67c.9,5.67,10.22,10.18,15.29,11,.31.05,4,.2,6,.25-1.75.9-3.49,1.8-5.23,2.77-5,2.79-10,5.78-15,8.74-1.53.91-3.06,1.79-4.59,2.68-.21-.75-2.75-9.73-5.54-13-2.47-2.92-6.44-5.95-10.49-5.73a6.79,6.79,0,0,0-6.59,7.67c.89,5.67,10.22,10.18,15.28,11,.38.06,5.71.29,7.06.28-3.37,2-6.74,3.89-10.15,5.65a120.17,120.17,0,0,1-14.19,6.3c-.1-.35-2.71-9.73-5.56-13.1-2.48-2.92-6.45-6-10.49-5.73a6.8,6.8,0,0,0-6.6,7.67c.9,5.67,10.22,10.18,15.29,11,.4.06,6.12.3,7.16.27-.28.1-.56.24-.84.33a87.85,87.85,0,0,1-15.13,3.65c-2.83.45-5.57.73-8.23.95-.31-1.8-1.81-10-4-13.31s-5.75-6.63-9.8-6.85a6.8,6.8,0,0,0-7.4,6.9c.27,5.74,9,11.24,14,12.58.27.08,3.09.52,5.15.81-1.21.08-2.45.18-3.6.23-4.34.2-8.33.12-11.86,0-2-.08-3.81-.18-5.51-.3-1.22-1.6-6.22-8-9.67-9.89s-8.16-3.24-11.85-1.57a6.8,6.8,0,0,0-3.39,9.53c2.88,5,13.2,5.82,18.22,4.73.43-.1,7-2.34,7-2.43l-.07-.1c1.63.15,3.37.29,5.29.4,3.53.18,7.52.35,11.88.24a121.33,121.33,0,0,0,14-1,88.8,88.8,0,0,0,15.4-3.35l.18-.07c-1.38,1-5.13,3.81-5.39,4.06-3.71,3.54-8.8,12.56-6.31,17.74a6.81,6.81,0,0,0,9.79,2.54c3.46-2.13,5-6.88,5.36-10.69.41-4.3-2.63-13.16-2.87-13.87a120.14,120.14,0,0,0,14.81-6.18c2.8-1.37,5.58-2.84,8.35-4.35-1.16.87-2.19,1.67-2.32,1.79-3.72,3.54-8.81,12.56-6.31,17.73a6.79,6.79,0,0,0,9.79,2.54c3.45-2.12,5-6.87,5.35-10.68s-2.07-11.48-2.74-13.48c1.06-.59,2.12-1.17,3.17-1.77,5.06-2.85,10.09-5.72,15.11-8.38,1.77-.94,3.55-1.8,5.32-2.67-1,.78-1.89,1.45-2,1.56-3.71,3.54-8.8,12.56-6.31,17.73a6.8,6.8,0,0,0,9.8,2.55c3.45-2.13,5-6.88,5.35-10.69s-1.84-10.74-2.63-13.12c1.85-.83,3.69-1.67,5.52-2.39,1.26-.47,2.43-1,3.72-1.41l3.77-1.25c2.42-.7,4.92-1.45,7.3-2.08,1.65-.45,3.23-.85,4.82-1.25-1.77.91-5.2,2.78-5.47,3a26.5,26.5,0,0,0-8.26,10.45,7.51,7.51,0,0,0-1.15,1,6.81,6.81,0,0,0,.26,10.12c4.47,3.6,14.41.67,18.7-2.14.25-.17,2.79-2.28,4.37-3.64-.8,1-1.6,1.85-2.42,2.82-1.64,1.92-3.21,3.89-4.91,6L163.24,333c-.81,1-1.55,2.25-2.33,3.38-1.77,2.66-3.44,5.44-5.06,8.28-1.68-1.43-7.74-6.41-11.43-7.49s-8.66-1.41-11.92,1a6.81,6.81,0,0,0-1.27,10c3.88,4.24,14.14,2.85,18.81.72.29-.13,3.46-2,5.19-3.12-1,1.71-1.93,3.42-2.84,5.18-2.64,5.1-5.14,10.34-7.67,15.56-.77,1.6-1.56,3.18-2.35,4.77-.59-.51-7.66-6.59-11.8-7.8-3.68-1.07-8.66-1.42-11.91,1a6.78,6.78,0,0,0-1.27,10c3.87,4.24,14.14,2.85,18.8.72.35-.16,4.92-2.91,6-3.67-1.73,3.5-3.48,7-5.35,10.32A119.58,119.58,0,0,1,128.52,395c-.28-.24-7.63-6.62-11.87-7.86-3.67-1.07-8.66-1.41-11.91,1a6.8,6.8,0,0,0-1.27,10c3.88,4.24,14.14,2.86,18.81.72.36-.16,5.27-3.13,6.12-3.73-.18.24-.34.51-.52.75a88,88,0,0,1-10.61,11.38c-2.11,1.95-4.23,3.69-6.34,5.34-1.25-1.33-7-7.34-10.71-8.87-3.54-1.47-8.45-2.36-12-.31a6.79,6.79,0,0,0-2.36,9.83c3.38,4.64,13.74,4.39,18.61,2.78.26-.08,2.86-1.27,4.73-2.16-1,.72-1.94,1.5-2.87,2.17-3.51,2.57-6.88,4.7-9.88,6.56-1.71,1-3.28,2-4.76,2.79-1.91-.66-9.62-3.25-13.53-2.91s-8.58,1.8-10.74,5.23a6.79,6.79,0,0,0,2.43,9.82c5.14,2.55,14.22-2.44,17.8-6.11.31-.32,4.57-5.84,4.48-5.87l-.12,0c1.44-.78,3-1.63,4.63-2.59,3-1.8,6.47-3.86,10-6.36a119.4,119.4,0,0,0,11.15-8.6,88,88,0,0,0,11-11.29l.11-.15c-.61,1.56-2.17,6-2.25,6.36-1.14,5-.41,15.33,4.53,18.27a6.8,6.8,0,0,0,9.56-3.29C142.54,414.25,141.2,409.44,139.4,406.06Z" style="fill:#263238"></path><path d="M59.4,342.6c0-.11-6.49,2.48-6.87,2.69-4.52,2.43-11.81,9.79-10.77,15.44a6.8,6.8,0,0,0,8.77,5c3.9-1.13,6.63-5.32,8-8.9C60.12,352.66,59.4,342.6,59.4,342.6Z" style="fill:#263238"></path><path d="M436.37,139.73c-4-1.56-10.56-8.47-10.56-8.48s5.87-3,6.27-3.09c4.58-1.62,14.38-2,17.67,2.3a6.43,6.43,0,0,1-2.06,9.35C444.41,141.82,439.74,141.06,436.37,139.73Z" style="fill:#263238"></path><path d="M414.45,156.93c-3.28-2.45-7.54-10.23-7.88-10.85a113.73,113.73,0,0,1-13.78,6.43c-2.75,1.09-5.55,2.1-8.37,3.08,1.35-.26,2.57-.47,2.74-.49,4.85-.34,14.41,1.85,16.44,6.89a6.44,6.44,0,0,1-4.46,8.48c-3.69,1.07-8-.89-10.9-3.07s-6.72-8.76-7.7-10.51c-1.08.36-2.17.74-3.25,1.09-5.23,1.73-10.44,3.42-15.51,5.24-1.79.64-3.52,1.34-5.26,2,1.2-.23,2.22-.4,2.38-.41,4.84-.35,14.41,1.84,16.44,6.89a6.43,6.43,0,0,1-4.47,8.47c-3.69,1.07-8-.89-10.9-3.07s-6.35-8.12-7.51-10.2c-1.76.77-3.53,1.52-5.2,2.34-1.13.58-2.25,1.07-3.35,1.72l-3.28,1.84c-2,1.24-4.15,2.52-6.11,3.78-1.37.87-2.66,1.73-4,2.58,1.77-.66,5.26-1.87,5.57-1.94,4.74-1.07,14.52-.36,17.29,4.32a6.44,6.44,0,0,1-3.13,9.06c-3.48,1.61-8,.32-11.23-1.38-3.53-1.89-8.74-8.63-9.39-9.48-2.15,1.43-4.22,2.84-6.16,4.2q-2.16,1.5-4.11,2.92l-2.4-2.4c1.49-1,3-2.09,4.69-3.19,2.18-1.45,4.53-3,7-4.49a70.63,70.63,0,0,1-2.77-7.74c-4.11.15-11.64-2.41-12.61-2.74-1,2.37-2,4.69-2.83,6.89-.46,1.16-.88,2.27-1.31,3.38l-2.52-2.54c.28-.68.55-1.35.85-2.06,1-2.41,2.14-5,3.32-7.59-.88-.57-8-5.3-10.12-8.69-1.93-3.07-3.54-7.52-2.18-11.11a6.43,6.43,0,0,1,8.81-3.76c4.86,2.42,6.27,12.13,5.54,16.94,0,.28-.85,3.3-1.4,5.2.49-1.07,1-2.11,1.47-3.2,1-2.17,2.08-4.3,3.22-6.6.59-1.09,1.19-2.19,1.79-3.31s1.32-2.22,2-3.34c1.59-2.58,3.33-5.11,5.14-7.62-1.9-.89-8.58-4.14-11-6.89s-4.64-6.9-3.84-10.65a6.44,6.44,0,0,1,8.14-5.06c5.18,1.66,8,11.05,8.05,15.9,0,.31-.39,3.79-.64,5.7,1.1-1.5,2.18-3,3.34-4.49,3.35-4.28,6.87-8.51,10.37-12.75,1.07-1.29,2.12-2.6,3.18-3.9-.68-.31-8.71-4-11.38-7.08-2.38-2.74-4.64-6.9-3.84-10.66A6.43,6.43,0,0,1,335.57,94c5.18,1.66,8.05,11,8.05,15.9,0,.37-.56,5.38-.77,6.65,2.33-2.87,4.62-5.75,6.77-8.68a114,114,0,0,0,8-12.37c-.32-.14-8.72-3.95-11.45-7.11-2.38-2.74-4.64-6.9-3.84-10.65a6.43,6.43,0,0,1,8.13-5.06c5.18,1.66,8.05,11,8.05,15.91,0,.38-.61,5.77-.79,6.74.14-.25.3-.49.44-.74A83.85,83.85,0,0,0,363.73,81c.84-2.59,1.5-5.1,2.08-7.57-1.63-.55-9.09-3.14-11.86-5.71s-5.37-6.35-5-10.17a6.44,6.44,0,0,1,7.53-5.92c5.33,1.08,9.21,10.1,9.75,14.92,0,.27,0,3,0,4.94.25-1.12.53-2.27.74-3.34.82-4,1.32-7.78,1.74-11.09.23-1.89.39-3.6.53-5.21-1.33-1.37-6.6-7-7.86-10.49s-1.84-8.1.26-11.32a6.44,6.44,0,0,1,9.42-1.78c4.23,3.42,3.52,13.2,1.77,17.73-.15.4-3.22,6.25-3.29,6.18l-.08-.08c-.1,1.54-.22,3.2-.4,5-.34,3.34-.77,7.1-1.5,11.17a115.52,115.52,0,0,1-3,13,83.45,83.45,0,0,1-5.38,13.92c0,.05-.06.1-.08.16,1.1-1.15,4.31-4.25,4.58-4.46,3.86-3,13-6.41,17.52-3.32a6.45,6.45,0,0,1,1,9.54c-2.49,2.92-7.16,3.66-10.78,3.45-4.09-.24-11.94-4.37-12.56-4.7a114.82,114.82,0,0,1-7.94,13c-1.69,2.42-3.48,4.81-5.29,7.18,1-1,1.88-1.81,2-1.92,3.85-3,13-6.41,17.51-3.32a6.43,6.43,0,0,1,.95,9.53c-2.48,2.93-7.16,3.67-10.78,3.46s-10.44-3.61-12.22-4.53c-.7.9-1.4,1.81-2.11,2.71-3.4,4.32-6.82,8.61-10,12.93-1.14,1.52-2.2,3.05-3.27,4.59.88-.85,1.63-1.56,1.75-1.66,3.86-3,13-6.41,17.51-3.32a6.43,6.43,0,0,1,1,9.53c-2.49,2.93-7.16,3.67-10.78,3.46s-9.78-3.28-11.9-4.36c-1.05,1.6-2.1,3.21-3,4.81-.62,1.11-1.3,2.13-1.86,3.28s-1.15,2.24-1.71,3.34c-1,2.17-2.08,4.4-3,6.53-.66,1.48-1.27,2.91-1.88,4.34,1.11-1.53,3.36-4.47,3.57-4.69a24.92,24.92,0,0,1,11-6.21,7.42,7.42,0,0,1,1.07-.95,6.45,6.45,0,0,1,9.43,1.72c2.72,4.71-1.46,13.59-4.72,17.19-.2.21-2.54,2.28-4,3.57,1-.62,2-1.24,3-1.86,2-1.25,4.11-2.44,6.33-3.73l3.31-1.77c1.1-.61,2.33-1.12,3.5-1.69,2.75-1.27,5.6-2.43,8.49-3.53-1.09-1.78-4.88-8.18-5.35-11.79s-.06-8.31,2.68-11a6.43,6.43,0,0,1,9.57.27c3.41,4.25.62,13.66-2.06,17.71-.16.25-2.41,2.95-3.67,4.4,1.74-.65,3.48-1.3,5.26-1.9,5.16-1.72,10.43-3.31,15.68-4.92,1.61-.49,3.2-1,4.8-1.5-.39-.63-5.05-8.13-5.58-12.18-.47-3.6-.06-8.31,2.67-11a6.44,6.44,0,0,1,9.58.27c3.4,4.24.62,13.65-2.06,17.7-.2.31-3.44,4.18-4.31,5.12,3.52-1.11,7-2.25,10.43-3.51a112.21,112.21,0,0,0,13.46-5.92c-.18-.29-5.08-8.1-5.62-12.25-.47-3.6-.07-8.31,2.67-11a6.44,6.44,0,0,1,9.58.27c3.4,4.24.61,13.65-2.07,17.7-.21.32-3.69,4.48-4.38,5.19.25-.13.53-.24.78-.37a84.07,84.07,0,0,0,12.2-8.28c2.12-1.69,4.06-3.43,5.91-5.16-1.06-1.36-5.85-7.64-6.75-11.31s-1-8.26,1.45-11.23a6.44,6.44,0,0,1,9.55-.79c3.85,3.85,2.11,13.5-.1,17.83-.12.23-1.61,2.49-2.72,4.11.82-.79,1.69-1.59,2.46-2.37,2.91-2.91,5.39-5.75,7.57-8.29,1.23-1.45,2.31-2.79,3.31-4-.35-1.88-1.64-9.47-.76-13.09s2.93-7.77,6.46-9.29a6.43,6.43,0,0,1,8.83,3.7c1.65,5.19-4.35,13-8.3,15.77-.34.25-6.13,3.44-6.15,3.34s0-.09,0-.11c-.94,1.23-2,2.54-3.1,4-2.13,2.59-4.55,5.5-7.41,8.48a115.22,115.22,0,0,1-9.67,9.2,84.62,84.62,0,0,1-12.17,8.64l-.16.08c1.56-.34,5.94-1.16,6.28-1.18,4.85-.34,14.41,1.84,16.44,6.89a6.44,6.44,0,0,1-4.46,8.48C421.66,161.06,417.36,159.1,414.45,156.93Z" style="fill:#263238"></path><path d="M366.69,72.82c-.1,0,3.26-5.71,3.52-6,2.93-3.88,10.88-9.63,16-7.83a6.44,6.44,0,0,1,3.44,8.94c-1.63,3.48-5.94,5.42-9.49,6.18C376,75,366.69,72.82,366.69,72.82Z" style="fill:#263238"></path><path d="M212.1,413.45c1.11-2,5.27-5.09,5.27-5.09s1.19,3.36,1.24,3.58c.55,2.57.1,7.86-2.46,9.33a3.48,3.48,0,0,1-4.88-1.75C210.42,417.62,211.15,415.17,212.1,413.45Z" style="fill:#263238"></path><path d="M204.37,400.5c1.54-1.59,6-3.35,6.37-3.49a61.88,61.88,0,0,1-2.51-7.84c-.39-1.55-.74-3.12-1.07-4.71,0,.75.07,1.41.07,1.51-.15,2.62-2,7.61-4.83,8.35a3.48,3.48,0,0,1-4.25-3c-.32-2,1-4.23,2.4-5.64s5.17-3,6.17-3.41l-.36-1.82c-.57-2.92-1.12-5.84-1.75-8.69-.22-1-.47-2-.72-3,0,.66.06,1.22.06,1.3-.15,2.63-2,7.61-4.83,8.36a3.49,3.49,0,0,1-4.25-3c-.32-2.06,1-4.23,2.4-5.64s4.8-2.85,6-3.34c-.29-1-.57-2-.89-2.95-.24-.64-.42-1.28-.7-1.92s-.51-1.26-.76-1.88c-.53-1.18-1.07-2.41-1.61-3.55-.37-.79-.74-1.54-1.11-2.3.23,1,.64,3,.66,3.12.25,2.62-.81,7.83-3.51,9a3.49,3.49,0,0,1-4.65-2.3c-.63-2,.38-4.34,1.51-5.94,1.26-1.76,5.24-4.1,5.74-4.39-.62-1.25-1.24-2.46-1.83-3.59-.44-.84-.87-1.65-1.29-2.41l1.46-1.12c.44.86.91,1.77,1.38,2.73.64,1.27,1.29,2.64,1.94,4.05a38,38,0,0,1,4.35-1c.19-2.21,2.09-6.08,2.33-6.58-1.2-.7-2.38-1.37-3.5-2l-1.73-.94,1.54-1.18,1,.6c1.22.71,2.52,1.49,3.84,2.31.37-.43,3.4-3.93,5.37-4.84,1.78-.83,4.28-1.39,6.11-.41a3.49,3.49,0,0,1,1.42,5c-1.64,2.45-6.95,2.54-9.48,1.81-.15,0-1.72-.68-2.7-1.11l1.62,1c1.1.69,2.17,1.41,3.32,2.19l1.65,1.18c.56.39,1.11.87,1.66,1.3,1.28,1,2.52,2.14,3.74,3.28.61-1,2.81-4.32,4.46-5.41s4-2,6-1.33a3.48,3.48,0,0,1,2.16,4.71c-1.25,2.67-6.49,3.56-9.1,3.23-.16,0-2-.47-3-.73.73.69,1.46,1.38,2.18,2.1,2.07,2.09,4.09,4.28,6.13,6.44.62.67,1.25,1.32,1.88,2,.21-.34,2.74-4.4,4.58-5.62,1.64-1.09,4-2,6-1.33a3.48,3.48,0,0,1,2.15,4.71c-1.25,2.67-6.48,3.56-9.09,3.23-.2,0-2.85-.67-3.52-.87,1.38,1.45,2.77,2.88,4.2,4.23a60.08,60.08,0,0,0,6.09,5.12c.1-.16,2.72-4.4,4.61-5.65,1.63-1.09,4-2,6-1.33a3.48,3.48,0,0,1,2.16,4.71c-1.25,2.67-6.49,3.56-9.1,3.23-.2,0-3.06-.73-3.57-.89.13.09.25.2.37.29a45.13,45.13,0,0,0,6.94,3.95c1.33.63,2.63,1.15,3.92,1.64.4-.84,2.31-4.67,3.88-6s3.78-2.45,5.8-2a3.47,3.47,0,0,1,2.66,4.45c-.95,2.79-6.05,4.25-8.68,4.21-.14,0-1.59-.19-2.65-.34.58.21,1.18.44,1.74.63,2.11.72,4.09,1.24,5.84,1.7,1,.25,1.9.45,2.76.64.83-.62,4.2-3.06,6.17-3.5s4.48-.43,6.06.92a3.49,3.49,0,0,1,.31,5.18c-2.13,2-7.33,1-9.64-.27-.2-.11-3.14-2.16-3.09-2.19l.05,0c-.83-.16-1.71-.34-2.67-.56-1.76-.41-3.75-.9-5.89-1.57a61.32,61.32,0,0,1-6.77-2.51,45.42,45.42,0,0,1-7.11-3.84l-.07-.06c.53.67,2,2.61,2.07,2.77,1.32,2.27,2.55,7.44.58,9.63a3.48,3.48,0,0,1-5.18-.14c-1.4-1.54-1.48-4.1-1.12-6,.41-2.18,3.17-6.11,3.39-6.42a62.68,62.68,0,0,1-6.42-5.15c-1.18-1.08-2.34-2.2-3.49-3.34.45.6.84,1.14.89,1.22,1.33,2.27,2.55,7.44.58,9.63a3.48,3.48,0,0,1-5.18-.14c-1.4-1.54-1.48-4.1-1.12-6s2.66-5.36,3.27-6.25l-1.31-1.32c-2.08-2.13-4.15-4.26-6.25-6.28-.73-.72-1.49-1.4-2.24-2.08.4.54.73,1,.77,1.06,1.33,2.27,2.55,7.44.58,9.63a3.48,3.48,0,0,1-5.18-.14c-1.4-1.54-1.48-4.1-1.11-6s2.43-5,3.15-6.09c-.78-.67-1.57-1.35-2.37-2-.55-.41-1.06-.84-1.64-1.22l-1.67-1.15c-1.09-.7-2.22-1.42-3.3-2.07-.75-.46-1.47-.88-2.2-1.31.74.71,2.17,2.11,2.27,2.24a13.52,13.52,0,0,1,2.58,6.33,4,4,0,0,1,.44.64,3.48,3.48,0,0,1-1.58,4.94c-2.71,1.14-7.19-1.72-8.9-3.72-.1-.11-1.05-1.52-1.64-2.41.27.58.53,1.14.79,1.73.54,1.18,1,2.38,1.57,3.66.24.62.48,1.26.72,1.9s.45,1.33.67,2c.5,1.56.92,3.17,1.31,4.79,1-.46,4.73-2.05,6.7-2.06s4.47.54,5.73,2.2a3.48,3.48,0,0,1-.81,5.12c-2.51,1.54-7.37-.61-9.36-2.32-.13-.11-1.42-1.5-2.11-2.28.22,1,.46,2,.65,3,.58,2.88,1.07,5.82,1.57,8.75.15.9.31,1.79.47,2.69.37-.17,4.72-2.16,6.93-2.16,2,0,4.47.53,5.72,2.19a3.48,3.48,0,0,1-.8,5.12c-2.51,1.54-7.37-.61-9.37-2.32-.15-.13-2-2.14-2.45-2.67.35,2,.72,3.93,1.17,5.85a62.54,62.54,0,0,0,2.25,7.63c.17-.08,4.7-2.17,7-2.18,2,0,4.46.54,5.72,2.19a3.49,3.49,0,0,1-.8,5.13c-2.52,1.53-7.38-.61-9.37-2.33-.16-.13-2.15-2.29-2.48-2.71,0,.15.09.3.15.45a43.8,43.8,0,0,0,3.6,7.11c.76,1.26,1.56,2.42,2.36,3.53.81-.47,4.51-2.61,6.54-2.84s4.5,0,5.93,1.55a3.49,3.49,0,0,1-.23,5.18c-2.33,1.8-7.4.21-9.57-1.28-.12-.08-1.22-1-2-1.74.37.49.74,1,1.11,1.48,1.36,1.76,2.71,3.29,3.93,4.64.69.76,1.34,1.43,1.94,2,1,0,5.2-.23,7.08.49s4,2.11,4.55,4.11a3.49,3.49,0,0,1-2.6,4.49c-2.89.53-6.65-3.23-7.89-5.54-.11-.2-1.43-3.53-1.37-3.53h.06c-.6-.59-1.23-1.22-1.91-1.93-1.25-1.32-2.64-2.83-4.05-4.57a61,61,0,0,1-4.27-5.82,45.8,45.8,0,0,1-3.8-7.13l0-.09c.07.86.21,3.27.2,3.45-.15,2.63-2,7.62-4.83,8.36a3.5,3.5,0,0,1-4.25-3C201.65,404.08,203,401.91,204.37,400.5Z" style="fill:#263238"></path><path d="M252.82,380.63c0-.05,2.84,2.15,3,2.31,1.88,1.84,4.42,6.51,3.1,9.14a3.48,3.48,0,0,1-5,1.23c-1.75-1.11-2.5-3.56-2.66-5.52C251,385.49,252.82,380.64,252.82,380.63Z" style="fill:#263238"></path><path d="M112.29,107.21c-.63,2.22-4,6.13-4,6.13s-1.9-3-2-3.21c-1.11-2.39-1.85-7.65.32-9.65a3.47,3.47,0,0,1,5.14.63C113,102.77,112.83,105.32,112.29,107.21Z" style="fill:#263238"></path><path d="M122.7,118.12c-1.15,1.9-5.12,4.6-5.44,4.82a60.8,60.8,0,0,1,4.19,7.08c.73,1.43,1.42,2.89,2.09,4.36-.21-.72-.39-1.36-.4-1.46-.44-2.59.24-7.86,2.85-9.21a3.48,3.48,0,0,1,4.8,2c.77,1.93-.06,4.35-1.08,6s-4.37,4.08-5.26,4.7l.76,1.69c1.2,2.73,2.38,5.45,3.63,8.09.43.93.9,1.82,1.36,2.73-.18-.64-.33-1.18-.34-1.26-.44-2.6.24-7.87,2.85-9.22a3.48,3.48,0,0,1,4.8,2c.77,1.93-.06,4.35-1.08,6s-4.05,3.85-5.11,4.59c.5.9,1,1.81,1.53,2.67.38.58.69,1.16,1.1,1.72l1.16,1.67c.78,1,1.58,2.11,2.36,3.1.54.69,1.07,1.34,1.6,2-.45-.92-1.28-2.73-1.34-2.89-.82-2.5-.95-7.81,1.43-9.55a3.48,3.48,0,0,1,5,1.22c1.05,1.79.6,4.31-.16,6.12-.83,2-4.19,5.16-4.61,5.55.88,1.09,1.75,2.13,2.58,3.1.61.73,1.21,1.41,1.79,2.07l-1.17,1.41c-.63-.74-1.28-1.53-2-2.36-.9-1.09-1.84-2.28-2.79-3.51a36.89,36.89,0,0,1-4,1.9c.3,2.2-.69,6.39-.82,6.93,1.33.42,2.63.81,3.86,1.17l1.89.52-1.24,1.5L136.4,175c-1.35-.42-2.79-.9-4.26-1.4-.27.5-2.44,4.59-4.16,5.91-1.55,1.2-3.86,2.3-5.87,1.76a3.5,3.5,0,0,1-2.49-4.56c1.06-2.74,6.21-4,8.84-3.87.15,0,1.82.29,2.88.49l-1.81-.63c-1.22-.43-2.42-.89-3.72-1.39l-1.87-.79c-.63-.25-1.27-.6-1.91-.9-1.47-.72-2.93-1.52-4.37-2.36-.38,1.06-1.78,4.83-3.14,6.26s-3.48,2.86-5.54,2.63a3.48,3.48,0,0,1-3.15-4.12c.62-2.88,5.53-4.91,8.15-5.17.16,0,2.06,0,3.1.05-.86-.51-1.73-1-2.59-1.57-2.48-1.58-4.95-3.26-7.41-4.92l-2.27-1.51c-.13.38-1.7,4.9-3.22,6.5-1.36,1.43-3.48,2.86-5.54,2.63a3.49,3.49,0,0,1-3.15-4.12c.62-2.88,5.53-4.91,8.15-5.17.2,0,2.93,0,3.62.07-1.67-1.11-3.34-2.19-5-3.19A61.74,61.74,0,0,0,92.56,152c-.06.18-1.67,4.9-3.23,6.54-1.36,1.43-3.48,2.86-5.54,2.63A3.49,3.49,0,0,1,80.64,157c.62-2.88,5.53-4.91,8.15-5.17.2,0,3.14,0,3.67.08l-.42-.2a44.54,44.54,0,0,0-7.64-2.31c-1.43-.32-2.82-.54-4.18-.73-.21.91-1.22,5.06-2.46,6.69s-3.14,3.22-5.22,3.22A3.48,3.48,0,0,1,69,154.85c.3-2.93,5-5.49,7.53-6,.14,0,1.6-.17,2.66-.26-.62-.08-1.25-.17-1.84-.23-2.21-.23-4.26-.3-6.07-.36-1,0-2,0-2.83,0-.67.79-3.42,3.92-5.24,4.78s-4.27,1.42-6.11.45a3.49,3.49,0,0,1-1.46-5c1.62-2.46,6.93-2.58,9.47-1.88.22.06,3.53,1.41,3.5,1.45l0,.05c.83,0,1.73-.05,2.72-.05,1.81,0,3.86.05,6.09.23a62.17,62.17,0,0,1,7.16.94,44.78,44.78,0,0,1,7.78,2.17l.09,0c-.67-.54-2.51-2.1-2.64-2.24-1.79-1.92-4.13-6.69-2.7-9.26a3.49,3.49,0,0,1,5.09-1c1.7,1.19,2.34,3.67,2.42,5.64.09,2.21-1.73,6.65-1.88,7a60,60,0,0,1,7.4,3.6q2.1,1.19,4.15,2.48c-.57-.49-1.08-.92-1.14-1-1.79-1.92-4.13-6.69-2.7-9.27a3.48,3.48,0,0,1,5.08-1c1.71,1.19,2.35,3.67,2.43,5.63s-1.4,5.82-1.8,6.82l1.57,1c2.5,1.61,5,3.23,7.48,4.74.88.53,1.77,1,2.65,1.52-.5-.43-.93-.8-1-.86-1.8-1.92-4.14-6.69-2.71-9.26a3.48,3.48,0,0,1,5.09-1c1.7,1.18,2.35,3.66,2.42,5.63s-1.25,5.44-1.73,6.63c.92.48,1.84,1,2.76,1.39.63.28,1.21.59,1.86.83l1.89.75c1.22.43,2.48.89,3.68,1.28.83.28,1.63.53,2.43.79-.88-.52-2.58-1.58-2.71-1.68a13.42,13.42,0,0,1-3.92-5.6,3.59,3.59,0,0,1-.13-5.69c2.39-1.71,7.39.08,9.5,1.65.13.09,1.37,1.24,2.14,2-.39-.5-.77-1-1.16-1.51-.78-1-1.53-2.08-2.34-3.21l-1.12-1.7c-.39-.56-.73-1.19-1.1-1.8-.83-1.41-1.6-2.88-2.34-4.38-.91.68-4.16,3.05-6.08,3.49s-4.47.47-6.07-.87a3.48,3.48,0,0,1-.35-5.17c2.11-2.05,7.32-1,9.65.19.14.07,1.71,1.14,2.56,1.75-.44-.91-.88-1.81-1.3-2.74-1.2-2.69-2.33-5.44-3.47-8.19-.34-.84-.7-1.67-1.06-2.51-.31.24-4.12,3.15-6.27,3.64-1.91.44-4.47.47-6.07-.86a3.49,3.49,0,0,1-.35-5.18c2.11-2.05,7.32-1,9.65.19.17.09,2.43,1.64,3,2.06-.78-1.85-1.58-3.67-2.43-5.44a61.19,61.19,0,0,0-3.9-7c-.15.12-4.1,3.17-6.3,3.67-1.92.44-4.48.47-6.07-.86a3.49,3.49,0,0,1-.36-5.18c2.11-2,7.33-1,9.65.19.18.1,2.61,1.76,3,2.09-.09-.13-.16-.27-.25-.4a45.24,45.24,0,0,0-5.09-6.14c-1-1.06-2.06-2-3.09-2.92-.68.65-3.81,3.55-5.74,4.23s-4.4,1-6.13-.2a3.47,3.47,0,0,1-.92-5.1c1.87-2.27,7.16-1.84,9.61-.87.13.05,1.42.73,2.36,1.24-.47-.4-1-.82-1.41-1.2-1.72-1.41-3.38-2.6-4.86-3.64-.85-.59-1.63-1.1-2.36-1.57-1,.28-5,1.38-7,1.09s-4.34-1.18-5.34-3a3.48,3.48,0,0,1,1.53-4.95c2.71-1.16,7.21,1.67,8.93,3.65.15.17,2.17,3.12,2.12,3.14l-.06,0c.72.44,1.48.92,2.29,1.46,1.51,1,3.2,2.17,5,3.55a64,64,0,0,1,5.46,4.73,46.2,46.2,0,0,1,5.29,6.11.56.56,0,0,1,0,.08c-.26-.82-.93-3.14-1-3.32-.44-2.6.24-7.86,2.85-9.22a3.48,3.48,0,0,1,4.8,2C124.55,114,123.72,116.44,122.7,118.12Z" style="fill:#263238"></path><path d="M79.87,148.25c0,.05-3.25-1.47-3.44-1.59-2.24-1.37-5.75-5.36-5.05-8.22A3.47,3.47,0,0,1,76,136.13c2,.69,3.23,2.91,3.82,4.79C80.53,143.12,79.87,148.24,79.87,148.25Z" style="fill:#263238"></path></g><g id="freepik--Clipboard--inject-51"><rect x="114.56" y="34.28" width="243.24" height="329.18" rx="5.91" style="fill:#263238"></rect><path d="M351.89,364H120.47a6.42,6.42,0,0,1-6.41-6.41V40.19a6.42,6.42,0,0,1,6.41-6.41H351.89a6.42,6.42,0,0,1,6.41,6.41V357.55A6.42,6.42,0,0,1,351.89,364ZM120.47,34.78a5.42,5.42,0,0,0-5.41,5.41V357.55a5.42,5.42,0,0,0,5.41,5.41H351.89a5.42,5.42,0,0,0,5.41-5.41V40.19a5.42,5.42,0,0,0-5.41-5.41Z" style="fill:#263238"></path><rect x="121.31" y="42.4" width="229.75" height="312.08" style="fill:#fff"></rect><path d="M351.55,355H120.8V41.9H351.55ZM121.8,354H350.55V42.9H121.8Z" style="fill:#263238"></path><path d="M256.32,26.28V17.15a5.73,5.73,0,0,0-5.73-5.73H221.77A5.72,5.72,0,0,0,216,17.15v9.13a4.29,4.29,0,0,1-4.29,4.3h-19a9.53,9.53,0,0,0-9.53,9.53v5.7H289.12v-5.7a9.53,9.53,0,0,0-9.53-9.53h-19A4.29,4.29,0,0,1,256.32,26.28Z" style="fill:#D05542"></path><path d="M289.62,46.31H182.74v-6.2a10,10,0,0,1,10-10h19a3.8,3.8,0,0,0,3.79-3.8V17.15a6.23,6.23,0,0,1,6.23-6.23h28.82a6.24,6.24,0,0,1,6.23,6.23v9.13a3.8,3.8,0,0,0,3.79,3.8h19a10,10,0,0,1,10,10Zm-105.88-1H288.62v-5.2a9,9,0,0,0-9-9h-19a4.8,4.8,0,0,1-4.79-4.8V17.15a5.23,5.23,0,0,0-5.23-5.23H221.77a5.23,5.23,0,0,0-5.23,5.23v9.13a4.8,4.8,0,0,1-4.79,4.8h-19a9,9,0,0,0-9,9Z" style="fill:#263238"></path><path d="M279.55,40.53H191.72a2.18,2.18,0,0,1-2.19-2.18h0a2.18,2.18,0,0,1,2.19-2.18h87.83a2.17,2.17,0,0,1,2.18,2.18h0A2.17,2.17,0,0,1,279.55,40.53Z" style="fill:#263238"></path><path d="M279.55,41H191.72a2.68,2.68,0,1,1,0-5.36h87.83a2.68,2.68,0,1,1,0,5.36Zm-87.83-4.36a1.68,1.68,0,1,0,0,3.36h87.83a1.68,1.68,0,1,0,0-3.36Z" style="fill:#263238"></path><path d="M171.14,335.66a27.91,27.91,0,1,1,27.91-27.91A27.94,27.94,0,0,1,171.14,335.66Zm0-52.82a24.91,24.91,0,1,0,24.91,24.91A24.93,24.93,0,0,0,171.14,282.84Z" style="fill:#D05542"></path><path d="M171.14,329.73A22,22,0,0,1,152,318.55l.87-.49A21,21,0,0,0,191.69,312l1,.2A22,22,0,0,1,171.14,329.73Z" style="fill:#D05542"></path><path d="M149.7,312.63a22,22,0,1,1,43.23-7.79l-1,.13a21,21,0,0,0-41.78,2.78,21.39,21.39,0,0,0,.51,4.66Z" style="fill:#D05542"></path><path d="M171.14,324.48a16.73,16.73,0,1,1,16.73-16.73A16.74,16.74,0,0,1,171.14,324.48Zm0-32.46a15.73,15.73,0,1,0,15.73,15.73A15.75,15.75,0,0,0,171.14,292Z" style="fill:#D05542"></path><rect x="160.06" y="299.69" width="22" height="1" style="fill:#D05542"></rect><rect x="160.06" y="305.31" width="22" height="1" style="fill:#D05542"></rect><rect x="175.16" y="313.67" width="6.9" height="1" style="fill:#D05542"></rect><rect x="160.06" y="313.67" width="8.51" height="1" style="fill:#D05542"></rect><rect x="325.13" y="146.05" width="6.2" height="1" style="fill:#263238"></rect><rect x="298.82" y="146.05" width="22.95" height="1" style="fill:#263238"></rect><rect x="241.46" y="146.05" width="52.61" height="1" style="fill:#263238"></rect><rect x="176.26" y="146.05" width="61.56" height="1" style="fill:#263238"></rect><rect x="159.19" y="146.05" width="13.71" height="1" style="fill:#263238"></rect><rect x="143.43" y="146.05" width="12.12" height="1" style="fill:#263238"></rect><rect x="282.59" y="156.66" width="48.73" height="1" style="fill:#263238"></rect><rect x="219.35" y="156.66" width="59.6" height="1" style="fill:#263238"></rect><rect x="169.54" y="156.66" width="45.33" height="1" style="fill:#263238"></rect><rect x="143.43" y="156.66" width="22.19" height="1" style="fill:#263238"></rect><rect x="288.47" y="167.27" width="42.85" height="1" style="fill:#263238"></rect><rect x="272.52" y="167.27" width="10.91" height="1" style="fill:#263238"></rect><rect x="226.91" y="167.27" width="40.01" height="1" style="fill:#263238"></rect><rect x="162.55" y="167.27" width="58.76" height="1" style="fill:#263238"></rect><rect x="143.43" y="167.27" width="15.75" height="1" style="fill:#263238"></rect><rect x="288.75" y="177.88" width="42.57" height="1" style="fill:#263238"></rect><rect x="203.4" y="177.88" width="81.15" height="1" style="fill:#263238"></rect><rect x="143.43" y="177.88" width="55.21" height="1" style="fill:#263238"></rect><rect x="325.13" y="188.36" width="6.2" height="1" style="fill:#263238"></rect><rect x="298.82" y="188.36" width="22.95" height="1" style="fill:#263238"></rect><rect x="241.46" y="188.36" width="52.61" height="1" style="fill:#263238"></rect><rect x="176.26" y="188.36" width="61.56" height="1" style="fill:#263238"></rect><rect x="159.19" y="188.36" width="13.71" height="1" style="fill:#263238"></rect><rect x="143.43" y="188.36" width="12.12" height="1" style="fill:#263238"></rect><rect x="282.59" y="198.98" width="48.73" height="1" style="fill:#263238"></rect><rect x="219.35" y="198.98" width="59.6" height="1" style="fill:#263238"></rect><rect x="169.54" y="198.98" width="45.33" height="1" style="fill:#263238"></rect><rect x="143.43" y="198.98" width="22.19" height="1" style="fill:#263238"></rect><rect x="288.47" y="209.59" width="42.85" height="1" style="fill:#263238"></rect><rect x="272.52" y="209.59" width="10.91" height="1" style="fill:#263238"></rect><rect x="226.91" y="209.59" width="40.01" height="1" style="fill:#263238"></rect><rect x="162.55" y="209.59" width="58.76" height="1" style="fill:#263238"></rect><rect x="143.43" y="209.59" width="15.75" height="1" style="fill:#263238"></rect><rect x="288.75" y="220.2" width="42.57" height="1" style="fill:#263238"></rect><rect x="203.4" y="220.2" width="81.15" height="1" style="fill:#263238"></rect><rect x="143.43" y="220.2" width="55.21" height="1" style="fill:#263238"></rect><rect x="325.13" y="230.68" width="6.2" height="1" style="fill:#263238"></rect><rect x="298.82" y="230.68" width="22.95" height="1" style="fill:#263238"></rect><rect x="241.46" y="230.68" width="52.61" height="1" style="fill:#263238"></rect><rect x="176.26" y="230.68" width="61.56" height="1" style="fill:#263238"></rect><rect x="159.19" y="230.68" width="13.71" height="1" style="fill:#263238"></rect><rect x="143.43" y="230.68" width="12.12" height="1" style="fill:#263238"></rect><rect x="282.59" y="241.29" width="48.73" height="1" style="fill:#263238"></rect><rect x="219.35" y="241.29" width="59.6" height="1" style="fill:#263238"></rect><rect x="169.54" y="241.29" width="45.33" height="1" style="fill:#263238"></rect><rect x="143.43" y="241.29" width="22.19" height="1" style="fill:#263238"></rect><rect x="288.47" y="251.9" width="42.85" height="1" style="fill:#263238"></rect><rect x="272.52" y="251.9" width="10.91" height="1" style="fill:#263238"></rect><rect x="226.91" y="251.9" width="40.01" height="1" style="fill:#263238"></rect><rect x="162.55" y="251.9" width="58.76" height="1" style="fill:#263238"></rect><rect x="143.43" y="251.9" width="15.75" height="1" style="fill:#263238"></rect><rect x="288.75" y="262.52" width="42.57" height="1" style="fill:#263238"></rect><rect x="203.4" y="262.52" width="81.15" height="1" style="fill:#263238"></rect><rect x="143.43" y="262.52" width="55.21" height="1" style="fill:#263238"></rect><rect x="325.13" y="273" width="6.2" height="1" style="fill:#263238"></rect><rect x="298.82" y="273" width="22.95" height="1" style="fill:#263238"></rect><rect x="241.46" y="273" width="52.61" height="1" style="fill:#263238"></rect><rect x="176.26" y="273" width="61.56" height="1" style="fill:#263238"></rect><rect x="159.19" y="273" width="13.71" height="1" style="fill:#263238"></rect><rect x="143.43" y="273" width="12.12" height="1" style="fill:#263238"></rect><rect x="282.59" y="283.61" width="48.73" height="1" style="fill:#263238"></rect><rect x="219.35" y="283.61" width="59.6" height="1" style="fill:#263238"></rect><rect x="169.54" y="283.61" width="45.33" height="1" style="fill:#263238"></rect><rect x="143.43" y="283.61" width="22.19" height="1" style="fill:#263238"></rect><rect x="288.47" y="294.22" width="42.85" height="1" style="fill:#263238"></rect><rect x="272.52" y="294.22" width="10.91" height="1" style="fill:#263238"></rect><rect x="226.91" y="294.22" width="40.01" height="1" style="fill:#263238"></rect><rect x="162.55" y="294.22" width="58.76" height="1" style="fill:#263238"></rect><rect x="143.43" y="294.22" width="15.75" height="1" style="fill:#263238"></rect><rect x="288.75" y="304.83" width="42.57" height="1" style="fill:#263238"></rect><rect x="203.4" y="304.83" width="81.15" height="1" style="fill:#263238"></rect><rect x="143.43" y="304.83" width="55.21" height="1" style="fill:#263238"></rect><rect x="255.45" y="333" width="75.18" height="1" style="fill:#263238"></rect><path d="M254.26,349.09a2.26,2.26,0,0,1-1.32-.36,1.87,1.87,0,0,1-.71-1.88c.35-3,5.26-8.86,15.09-13.79l.12-.3q.29-.76.6-1.53l-.53.28c-4.61,2.42-7.2,1.8-8.55.85-1.63-1.13-2.39-3.4-2-6.06.36-2.82,2.06-6.14,5-7.22,2.23-.81,3.46-.84,4-.09.82,1.17-1,3.52-1.61,4.22l-.76-.65c1-1.22,1.78-2.67,1.55-3,0,0-.34-.45-2.82.45-2.19.8-4,3.43-4.38,6.41-.3,2.28.31,4.19,1.62,5.11,1.62,1.13,4.21.81,7.51-.91.55-.29,1.08-.59,1.6-.91,1.63-4,3.55-7.91,6.77-11.13s4.39-3,4.72-2.86a1.09,1.09,0,0,1,.68,1c.14,2.38-4.14,9.14-11.37,13.63-.27.67-.53,1.34-.79,2,1.32-.62,2.72-1.23,4.2-1.81,15.3-6,20.2-11.86,19.67-13.3-.12-.32-.84-.32-1.74,0l-.33-.94c2.28-.8,2.87.26,3,.61.9,2.41-4.78,8.53-20.23,14.58q-2.75,1.06-5.11,2.24c-.65,1.69-1.29,3.29-2,4.84-1.47,3.16-3.71,7.06-8,9.26A9.09,9.09,0,0,1,254.26,349.09Zm12.51-14.62c-8.75,4.61-13.24,9.86-13.55,12.49a1,1,0,0,0,.29,1c.23.16,1.23.58,4.14-.91,4-2.07,6.14-5.79,7.54-8.8C265.75,337,266.26,335.76,266.77,334.47Zm13-17.81c-.2,0-1.12.16-3.6,2.64a29.25,29.25,0,0,0-6,9.46c5.67-3.92,9.17-9.16,9.63-11.44.09-.44,0-.63,0-.66h0Z" style="fill:#263238"></path><path d="M294.63,347.92a.9.9,0,0,1-.85-.39c-.86-1.28,2.29-4.42,12.85-13.87,3.07-2.75,6-5.34,7.8-7.17,1.52-1.53,2.39-2.5,2.9-3.11a36.45,36.45,0,0,0-4.86,4c-4.13,4-4.35,4.08-4.84,3.71s-.23-.79.64-2.41c.54-1,.43-1.29.42-1.29h0s-.62-.36-3.9,1.58c-3.12,1.84-3.94,2-4.43,1.52s-.21-1.21.12-2a1,1,0,0,0-.09-1.12c-.65-.52-2.81-.08-6.74,2.86-4.48,3.37-8.94,4.83-10.38,3.42l0,0c-5.89,3.27-9.7,2.27-9.93,2.2l.28-1-.14.48.14-.48c.05,0,3.63.93,9.25-2.19a4.68,4.68,0,0,1,1.21-2.93c2.14-2.94,10.6-10.5,12.2-10.3a.66.66,0,0,1,.53.42c.14.39.33.92-4,5.77a39.32,39.32,0,0,1-8.62,7.45c1.07.52,4.57-.39,8.89-3.64,4.91-3.68,7-3.57,8-2.84a1.87,1.87,0,0,1,.38,2.31,6.42,6.42,0,0,0-.28.75,13.21,13.21,0,0,0,3.18-1.57c3.62-2.14,4.63-1.9,5.1-1.44.71.69,0,2-.23,2.46.85-.77,1.91-1.79,2.62-2.47s6-5.73,7-4.67c.37.37.75.76-3.69,5.19-1.85,1.85-4.76,4.46-7.83,7.21-4.92,4.4-12.27,11-12.65,12.52.36,0,1.56-.19,5.5-2.13,5.86-2.91,11.65-8.79,16.34-14.71.07-1.19,1.64-4.06,7.54-13.18,2.8-4.34,3.16-4.24,3.54-4.16l.34.08.09.43c.13,1.09-4,8.85-10.15,16.72a23.28,23.28,0,0,0,2.28-1.05l.49-.25a30.93,30.93,0,0,0,8.2-6.15l.74.67a31.49,31.49,0,0,1-8.49,6.37l-.5.25c-1.78.9-2.89,1.45-3.54,1.2-4.74,5.93-10.55,11.76-16.44,14.67C297.1,347.41,295.46,347.92,294.63,347.92Zm.85-27.17a53.8,53.8,0,0,0-10.64,9.61,5.9,5.9,0,0,0-.93,1.7,47.43,47.43,0,0,0,11.57-11.31Zm30.51-5c-.32.45-.68,1-1.12,1.68-1.59,2.46-4,6.2-5.64,9A91.47,91.47,0,0,0,326,315.76Z" style="fill:#263238"></path><path d="M178.33,91.66V67.56h4.35v24.1Z" style="fill:#263238"></path><path d="M186.4,91.66V67.56h3.06l5.86,13.74V67.56H199v24.1H196l-5.89-14.4v14.4Z" style="fill:#263238"></path><path d="M202.61,91.66V67.56h9.91v3H207v7h4.49v3.07H207v11Z" style="fill:#263238"></path><path d="M221.44,92a7.68,7.68,0,0,1-4.08-1,5.27,5.27,0,0,1-2.17-2.74,12.39,12.39,0,0,1-.65-4.22v-9a12,12,0,0,1,.65-4.18,5.19,5.19,0,0,1,2.17-2.67,9.6,9.6,0,0,1,8.2,0,5.23,5.23,0,0,1,2.17,2.67,11.56,11.56,0,0,1,.67,4.18v9a11.71,11.71,0,0,1-.67,4.18A5.44,5.44,0,0,1,225.56,91,7.61,7.61,0,0,1,221.44,92Zm0-3.24A2.06,2.06,0,0,0,223.76,87a8.54,8.54,0,0,0,.18-1.81V74a8.34,8.34,0,0,0-.18-1.81,2.23,2.23,0,0,0-.7-1.26,2.39,2.39,0,0,0-1.62-.47,2.37,2.37,0,0,0-1.58.47,2.25,2.25,0,0,0-.71,1.26A8.34,8.34,0,0,0,219,74v11.1a10.16,10.16,0,0,0,.16,1.81,2.29,2.29,0,0,0,.7,1.31A2.36,2.36,0,0,0,221.44,88.74Z" style="fill:#263238"></path><path d="M231.64,91.66V67.56h5.77a12.62,12.62,0,0,1,4.12.58,4.75,4.75,0,0,1,2.56,2,7.07,7.07,0,0,1,.88,3.81,11.5,11.5,0,0,1-.27,2.61,5,5,0,0,1-.9,2A4.13,4.13,0,0,1,242,79.79l3.36,11.87H241l-2.91-11h-2v11Zm4.41-13.81h1.36a4.62,4.62,0,0,0,2-.37,2.16,2.16,0,0,0,1.09-1.19,5.67,5.67,0,0,0,.33-2.1,4.62,4.62,0,0,0-.67-2.72,3,3,0,0,0-2.55-.91h-1.6Z" style="fill:#263238"></path><path d="M248.27,91.66l.42-24.1h4.55l3.42,16.69,3.57-16.69h4.4l.45,24.1h-3.27l-.36-16.75L258,91.66h-2.65L251.9,74.85l-.33,16.81Z" style="fill:#263238"></path><path d="M268.47,91.66V67.56h10.12v3.09h-5.72v6.93h4.5v3.07h-4.5v8h5.78v3Z" style="fill:#263238"></path><path d="M281.2,91.66V67.56h5.69a10.77,10.77,0,0,1,4.59.8,4.68,4.68,0,0,1,2.35,2.47,10.93,10.93,0,0,1,.7,4.23v8.8a11.68,11.68,0,0,1-.7,4.36,4.87,4.87,0,0,1-2.32,2.59,9.75,9.75,0,0,1-4.45.85Zm4.41-3.07H287a3.51,3.51,0,0,0,2.17-.53,2.41,2.41,0,0,0,.8-1.57,17.69,17.69,0,0,0,.15-2.51V74.76a10.6,10.6,0,0,0-.21-2.35A2,2,0,0,0,289,71.1a4,4,0,0,0-2.11-.42h-1.28Z" style="fill:#263238"></path><path d="M191.87,123.9a7.14,7.14,0,0,1-4.15-1,5.44,5.44,0,0,1-2.1-2.84,13.41,13.41,0,0,1-.59-4.15v-8.6a14,14,0,0,1,.59-4.28,5.19,5.19,0,0,1,2.1-2.8,7.56,7.56,0,0,1,4.15-1,7.64,7.64,0,0,1,3.91.85,4.69,4.69,0,0,1,2,2.43,10.24,10.24,0,0,1,.59,3.65v2h-4.22v-2.09a14.91,14.91,0,0,0-.1-1.84,2.26,2.26,0,0,0-.57-1.32,2.12,2.12,0,0,0-1.59-.49,2.25,2.25,0,0,0-1.65.52,2.46,2.46,0,0,0-.67,1.39,11.91,11.91,0,0,0-.15,2v10.47a9.15,9.15,0,0,0,.21,2.16,2.22,2.22,0,0,0,.76,1.28,2.33,2.33,0,0,0,1.5.43,2,2,0,0,0,1.56-.52,2.56,2.56,0,0,0,.58-1.38,14.21,14.21,0,0,0,.12-1.94v-2.17h4.22v1.94a11.62,11.62,0,0,1-.56,3.79,5,5,0,0,1-2,2.59A7.17,7.17,0,0,1,191.87,123.9Z" style="fill:#263238"></path><path d="M208,123.9a7.55,7.55,0,0,1-4.07-1,5.2,5.2,0,0,1-2.17-2.73,12.2,12.2,0,0,1-.66-4.23v-9a11.79,11.79,0,0,1,.66-4.18,5.08,5.08,0,0,1,2.17-2.66,9.48,9.48,0,0,1,8.19,0,5.24,5.24,0,0,1,2.18,2.66A11.79,11.79,0,0,1,215,107v9a12,12,0,0,1-.66,4.18,5.52,5.52,0,0,1-2.18,2.74A7.59,7.59,0,0,1,208,123.9Zm0-3.24a2.36,2.36,0,0,0,1.62-.47,2.42,2.42,0,0,0,.7-1.31,8.64,8.64,0,0,0,.18-1.82V106a8.37,8.37,0,0,0-.18-1.82,2.27,2.27,0,0,0-.7-1.26,2.36,2.36,0,0,0-1.62-.46,2.32,2.32,0,0,0-1.57.46,2.23,2.23,0,0,0-.72,1.26,8.37,8.37,0,0,0-.18,1.82v11.09a9.38,9.38,0,0,0,.17,1.82,2.29,2.29,0,0,0,.7,1.31A2.37,2.37,0,0,0,208,120.66Z" style="fill:#263238"></path><path d="M218.2,123.58V99.48h3.06l5.86,13.74V99.48h3.63v24.1h-2.92l-5.89-14.4v14.4Z" style="fill:#263238"></path><path d="M240.48,123.9a7.17,7.17,0,0,1-3.63-.84,5.36,5.36,0,0,1-2.2-2.49,10.58,10.58,0,0,1-.84-4l3.78-.75a12.27,12.27,0,0,0,.34,2.47,3.5,3.5,0,0,0,.87,1.65,2,2,0,0,0,1.53.58,1.72,1.72,0,0,0,1.52-.64,2.79,2.79,0,0,0,.44-1.62,4.45,4.45,0,0,0-.71-2.59,11.42,11.42,0,0,0-1.91-2l-3-2.68a9.22,9.22,0,0,1-2-2.45,6.83,6.83,0,0,1-.76-3.35,5.71,5.71,0,0,1,1.67-4.4,6.44,6.44,0,0,1,4.55-1.55,6.91,6.91,0,0,1,2.83.52,4.54,4.54,0,0,1,1.8,1.45,6.4,6.4,0,0,1,1,2.09,12.45,12.45,0,0,1,.42,2.49l-3.75.65a12.66,12.66,0,0,0-.25-2,2.8,2.8,0,0,0-.69-1.4,1.88,1.88,0,0,0-1.44-.5,1.84,1.84,0,0,0-1.5.63,2.44,2.44,0,0,0-.52,1.6,3.68,3.68,0,0,0,.5,2,8.14,8.14,0,0,0,1.46,1.63l3,2.64a12.53,12.53,0,0,1,2.54,2.93,7.53,7.53,0,0,1,1.06,4.06,6.18,6.18,0,0,1-.76,3.07,5.53,5.53,0,0,1-2.11,2.1A6.46,6.46,0,0,1,240.48,123.9Z" style="fill:#263238"></path><path d="M248.87,123.58V99.48H259v3.09h-5.71v6.94h4.49v3.06h-4.49v8H259v3Z" style="fill:#263238"></path><path d="M261.6,123.58V99.48h3.06l5.86,13.74V99.48h3.63v24.1h-2.91l-5.89-14.4v14.4Z" style="fill:#263238"></path><path d="M280.22,123.58V102.72h-3.84V99.48h12v3.24h-3.78v20.86Z" style="fill:#263238"></path></g><g id="freepik--Character--inject-51"><path d="M441.48,225.12s3.07,8.77,8.33,11,9.22,5.7,9.43,11.62A18.07,18.07,0,0,1,456,258.24s18.65.22,21.06,12.28-4.17,25.44-2.85,27,9.21,4.61,7.23,15.35-16.22,14-23.9,9.87-8.77-19.52-16.45-31.14-25.44-19.08-24.34-30.48,4.39-24.34,12.72-30.92S441.48,225.12,441.48,225.12Z" style="fill:#263238"></path><path d="M465.05,325a16.5,16.5,0,0,1-7.8-1.82c-4.57-2.48-6.82-8.59-9.43-15.66-1.85-5-3.95-10.74-7.19-15.64-2.95-4.47-7.42-8.32-11.75-12.05C422,273.87,415.51,268.27,416.2,261c1-10.4,4.05-24.27,12.91-31.27,8.46-6.68,12.4-5.18,12.56-5.11l.21.09.07.21c0,.08,3.06,8.58,8.06,10.67,6.26,2.6,9.53,6.66,9.73,12.06a18.25,18.25,0,0,1-2.86,10.08c3.86.22,18.44,1.75,20.62,12.65,1.57,7.87-.59,16.14-2,21.62-.57,2.21-1.23,4.72-.94,5.13a8,8,0,0,0,1.16.93c2.55,1.85,7.86,5.7,6.19,14.83a14,14,0,0,1-8.15,10.1A20.43,20.43,0,0,1,465.05,325Zm-24.71-99.5c-1.54,0-5,.66-10.61,5.09-8.58,6.77-11.55,20.36-12.53,30.58-.65,6.71,5.66,12.15,12.34,17.9,4.37,3.78,8.9,7.68,11.92,12.26,3.3,5,5.43,10.76,7.3,15.84,2.54,6.89,4.73,12.83,9,15.13s10.61,2.23,15.58-.15a13,13,0,0,0,7.59-9.37c1.56-8.51-3.22-12-5.79-13.84a8.23,8.23,0,0,1-1.33-1.09c-.62-.72-.22-2.37.74-6,1.4-5.39,3.53-13.53,2-21.17-2.31-11.53-20.39-11.88-20.57-11.88h-1l.6-.8a17.63,17.63,0,0,0,3.18-10.2c-.18-5-3.17-8.7-9.12-11.18-5-2.07-8-9.52-8.52-11A4,4,0,0,0,440.34,225.47Z" style="fill:#263238"></path><polyline points="362.5 476.53 354.95 421.11 441.86 424.34 437.76 476.63" style="fill:#D05542"></polyline><path d="M355.23,425.74l32,9.28s32-.25,41.25-2.69,12.45-2.44,12.45-2.44l1-5.55L355,421.11Z" style="fill:#263238"></path><path d="M387.13,435.52l-32.37-9.4-.34-5.54,88,3.28-1.13,6.53h-.42s-3.26,0-12.32,2.43c-9.23,2.43-40.06,2.69-41.37,2.7Zm-31.42-10.16,31.56,9.16c1.72,0,32.16-.33,41.05-2.67a71.74,71.74,0,0,1,12.15-2.44l.8-4.59-85.79-3.19Z" style="fill:#263238"></path><polygon points="438.26 476.67 437.26 476.59 441.32 424.82 355.53 421.63 362.99 476.46 362 476.59 354.38 420.58 354.97 420.61 442.39 423.86 438.26 476.67" style="fill:#263238"></polygon><rect x="390.27" y="433.06" width="1" height="41.14" transform="translate(-74.94 77.33) rotate(-10.32)" style="fill:#263238"></rect><path d="M398.23,260s-35.28,2.28-36.32,3.73S336,311,336,311L356.31,336l-9.14,86.13s33.21,8.09,55.83,10.37S453.43,425,453.43,425l-2.28-44.83,3.11-39.22,10.38-64.75L431.23,263.1Z" style="fill:#D05542"></path><path d="M410.17,433.29A71.56,71.56,0,0,1,403,433c-22.39-2.26-55.56-10.31-55.89-10.39l-.43-.1,9.16-86.36-20.42-25,.16-.3c1-1.87,24.93-45.91,26-47.37s26-3.25,36.7-3.94h.08l33.13,3.14,33.79,13.23L454.76,341l-3.11,39.18,2.3,45.14-.35.12C453.35,425.54,431,433.29,410.17,433.29Zm-62.45-11.6c3.95.95,34.38,8.15,55.33,10.27s46.57-6.22,49.87-7.33l-2.27-44.45,3.12-39.29,10.31-64.4-33-12.9-32.89-3.1c-13.19.85-34.58,2.58-36,3.57-.76,1.08-17,31-25.7,46.93l20.26,24.8,0,.21Z" style="fill:#263238"></path><path d="M403,238.4s-.41,13.08-1.24,16a15.61,15.61,0,0,1-3.53,5.61s3.11,35.07,3.11,35.69,29.27-32.16,29.89-32.58-4-4.15-4-4.15l3.12-19.09Z" style="fill:#fff"></path><path d="M401.3,296.19a.28.28,0,0,1-.13,0l-.32-.12v-.36c0-.66-2-23.61-3.11-35.65l0-.23.17-.17a15.3,15.3,0,0,0,3.4-5.38c.8-2.82,1.22-15.73,1.22-15.86l0-.51L431,239.39l-3.16,19.36c2.66,2.19,4,3.63,4,4.27a.68.68,0,0,1-.28.5c-.37.31-5.36,5.83-10.64,11.68C403.43,294.5,401.84,296.19,401.3,296.19Zm-2.55-36c.36,4.06,2.57,29,3,34.46,2.56-2.61,11.57-12.59,18.37-20.1,7.16-7.92,9.83-10.87,10.59-11.64a25.9,25.9,0,0,0-3.75-3.55l-.23-.19,3.07-18.82-26.32-1.4c-.09,2.48-.5,13-1.25,15.59A15.7,15.7,0,0,1,398.75,260.17Zm32.2,2.51-.05,0Z" style="fill:#263238"></path><polygon points="411.33 248.01 401.92 252.9 404.02 235.82 411.33 248.01" style="fill:#263238"></polygon><path d="M401.31,253.78l2.39-19.46L412,248.21Zm3-16.46L402.53,252l8.1-4.21Z" style="fill:#263238"></path><path d="M406.13,183.51s-6,3.62-7,10.66-.22,38.8.64,40.72,9.16,17.69,14.92,17.05,17.7-9.59,20-13.21S446.64,207,446.64,201.2s-4.05-15.13-16-20.25C420.66,176.67,407.8,182.35,406.13,183.51Z" style="fill:#fff"></path><path d="M414.32,252.46c-6.53,0-15-17.19-15-17.37-.9-2-1.72-34.13-.68-41a16.69,16.69,0,0,1,7.26-11c1.48-1,14.68-7,25-2.6,12.86,5.51,16.29,15.61,16.29,20.71,0,5.83-9.67,34.16-12,37.8s-14.39,12.77-20.4,13.44A2.75,2.75,0,0,1,414.32,252.46Zm8-72.59a35.91,35.91,0,0,0-15.89,4l0,0c-.05,0-5.78,3.59-6.8,10.3-1.14,7.56-.12,38.82.6,40.45,1,2.18,9.1,17.36,14.41,16.76,5.67-.63,17.49-9.62,19.68-13,2.32-3.59,11.86-31.51,11.86-37.25,0-4.85-3.3-14.48-15.69-19.79A20.52,20.52,0,0,0,422.31,179.87Z" style="fill:#263238"></path><path d="M430.65,181c-10-4.28-22.85,1.4-24.52,2.56,0,0-6,3.62-7,10.66a136.17,136.17,0,0,0-.49,15.67l.49.1a19,19,0,0,0,3-6.18c.86-3.41,6-9.38,8.74-12.15s8.1-2.56,10.24-1.92,4.26,3.2,6.18,3.2,6,.21,7.67,1.28,6.19,7.67,6.19,13.22S439.6,218.47,440,221a8.29,8.29,0,0,0,.71,2.16c3-8.9,5.9-18.82,5.9-22C446.64,195.45,442.59,186.07,430.65,181Z" style="fill:#263238"></path><path d="M440.82,224.54l-.53-1.13a9.17,9.17,0,0,1-.75-2.3,23.6,23.6,0,0,1,.38-5.92,58.83,58.83,0,0,0,.68-7.8c0-5.41-4.47-11.87-6-12.8s-4.88-1.2-7.41-1.2c-1.23,0-2.4-.82-3.65-1.7a10.47,10.47,0,0,0-2.68-1.52c-2.13-.64-7.17-.77-9.73,1.79-2.91,2.91-7.81,8.71-8.61,11.92a19.34,19.34,0,0,1-3.08,6.37l-.19.25-1.19-.26v-.4c0-4.47,0-12.47.49-15.75a16.69,16.69,0,0,1,7.27-11c1.39-1,14.63-7,25-2.59h0c12.86,5.51,16.29,15.61,16.29,20.71,0,3.37-3.06,13.66-5.93,22.15Zm-23.08-35.76a13,13,0,0,1,3.46.43,11.36,11.36,0,0,1,3,1.66,6.51,6.51,0,0,0,3.08,1.52c1,0,5.87.06,7.94,1.35,1.85,1.16,6.42,7.85,6.42,13.65a60.66,60.66,0,0,1-.69,7.94,23.55,23.55,0,0,0-.39,5.62,6.16,6.16,0,0,0,.19.77c2.6-7.83,5.43-17.44,5.43-20.52,0-4.85-3.3-14.48-15.69-19.79h0c-9.94-4.26-22.67,1.57-24,2.51-.08.05-5.81,3.61-6.83,10.32a126.47,126.47,0,0,0-.49,14.83,18.41,18.41,0,0,0,2.5-5.43c1-3.84,6.73-10.24,8.87-12.38C412.38,189.35,415.31,188.78,417.74,188.78Z" style="fill:#263238"></path><path d="M413.15,215.53c-.23,1.28-1.06,2.2-1.88,2.06S410,216.3,410.21,215s1.06-2.2,1.87-2.06S413.37,214.25,413.15,215.53Z" style="fill:#263238"></path><path d="M429.35,219.15c-.22,1.28-1.06,2.2-1.87,2.06s-1.29-1.29-1.07-2.57,1.06-2.19,1.87-2S429.57,217.88,429.35,219.15Z" style="fill:#263238"></path><path d="M417.88,231.64a3.65,3.65,0,0,1-1-.14,5.53,5.53,0,0,1-3.06-2.56l.89-.47a4.5,4.5,0,0,0,2.44,2.07,3.53,3.53,0,0,0,2.82-.56l.52.86A5,5,0,0,1,417.88,231.64Z" style="fill:#263238"></path><path d="M417.11,237.19a7,7,0,0,1-3.53-1,9.79,9.79,0,0,1-3-2.74l.83-.55c.16.23,3.87,5.71,9.55,2l.54.83A8,8,0,0,1,417.11,237.19Z" style="fill:#263238"></path><path d="M415.92,210.6c-5.38-2.79-8.5-.56-8.64-.47l-.59-.8c.15-.11,3.73-2.71,9.69.38Z" style="fill:#263238"></path><path d="M433.38,217a6.11,6.11,0,0,0-3.24-3.68,5.88,5.88,0,0,0-4.18.11l-.42-.9a6.75,6.75,0,0,1,5-.14,7,7,0,0,1,3.81,4.24Z" style="fill:#263238"></path><path d="M398.61,209.84s-3.56-2.88-4.84,2.24,4.9,9.38,4.9,9.38Z" style="fill:#fff"></path><path d="M399.18,222.41l-.79-.54c-.27-.18-6.46-4.52-5.11-9.91.46-1.82,1.25-2.92,2.36-3.29a3.89,3.89,0,0,1,3.28.78l.19.15Zm-2.7-12.88a1.69,1.69,0,0,0-.53.09c-.76.25-1.33,1.12-1.7,2.58-.91,3.65,2.35,6.91,3.92,8.23l-.06-10.33A3.21,3.21,0,0,0,396.48,209.53Z" style="fill:#263238"></path><path d="M442.38,217.83s3.06-2.1,3.62,1.92c.66,4.74-6.1,9.1-6.82,8.53Z" style="fill:#fff"></path><path d="M439.36,228.83a.75.75,0,0,1-.49-.16l-.27-.21L442,217.52l.14-.1a3.3,3.3,0,0,1,2.83-.46,3.2,3.2,0,0,1,1.58,2.72c.51,3.66-3,7.11-5.5,8.54A3.54,3.54,0,0,1,439.36,228.83Zm3.44-10.67-2.91,9.51a11.62,11.62,0,0,0,3.44-2.6c1.15-1.24,2.47-3.16,2.18-5.25-.11-.73-.36-1.66-1-1.94A2.11,2.11,0,0,0,442.8,218.16Z" style="fill:#263238"></path><rect x="395.65" y="266.94" width="1" height="33.21" transform="translate(-29.38 46.36) rotate(-6.46)" style="fill:#263238"></rect><rect x="327.7" y="300.17" width="64.27" height="1" transform="translate(23.52 627.43) rotate(-84.06)" style="fill:#263238"></rect><polygon points="393.66 317.89 401.96 393.23 441.94 376.86 435.72 306.29 393.66 317.89" style="fill:#263238"></polygon><path d="M401.54,393.94l-8.42-76.42,43-11.87,6.31,71.53Zm-7.33-75.68,8.18,74.25,39-16-6.14-69.59Z" style="fill:#263238"></path><path d="M455.93,274.1S468.38,276,469,277s9.55,67.45,9.55,67.45a94.65,94.65,0,0,1-11.42,3.73c-6.43,1.66-20.34,4.15-20.34,4.15l-.2-57.9" style="fill:#D05542"></path><path d="M446.3,352.94l-.21-58.5h1l.2,57.3c2.71-.49,14.12-2.59,19.72-4a98.23,98.23,0,0,0,11-3.57c-2.48-18.44-8.86-65.3-9.45-66.93-.57-.5-6.92-1.75-12.7-2.62l.15-1c4.74.71,12.78,2.06,13.43,3.14s7.52,52,9.61,67.64l0,.38-.35.15a95.89,95.89,0,0,1-11.48,3.76c-6.38,1.64-20.24,4.13-20.38,4.15Z" style="fill:#263238"></path><path d="M453.64,350.68s-22.83,10.59-27.19,11.21a19.7,19.7,0,0,1-8.09-.62s-8.09-3.53-12.45-5.81-8.93-3.53-9.55-2.49-3.11,4.56-4.56,5.6-6.65,1.87-5.4,3.11,6.64,1,6.64,1-.21,12.24.42,12.87,6.22,5.81,9.75,5.6,27-4.15,31.34-5.6,28.64-4.36,32.79-7.06,5.19-2.28,5.6-3.53-.41-18.26-.41-18.26S460.91,350.06,453.64,350.68Z" style="fill:#fff"></path><path d="M403,381.7c-4,0-9.85-5.7-9.91-5.76-.5-.5-.69-4.78-.57-12.71-1.48,0-5.33,0-6.48-1.19a1,1,0,0,1-.32-.94c.19-.81,1.39-1.26,3.34-1.93a11.1,11.1,0,0,0,2.43-1c1.32-.94,3.73-4.29,4.43-5.45,1-1.69,6.8.52,10.21,2.3,4.29,2.25,12.34,5.76,12.42,5.8h0a19.33,19.33,0,0,0,7.82.58c4.24-.6,26.83-11.06,27.05-11.16l.17-.05c7.13-.61,18.68-3.89,18.79-3.92l.61-.18,0,.63c.14,2.86.81,17.18.39,18.45-.29.88-.85,1.14-1.87,1.61a29,29,0,0,0-3.94,2.18c-2.68,1.74-12.84,3.46-21.8,5-5.1.86-9.51,1.61-11.1,2.14-4.25,1.42-27.75,5.41-31.47,5.63Zm-9.46-19.5v.53c-.09,5.65,0,11.89.32,12.57,1.15,1.13,6.21,5.58,9.32,5.39,3.69-.22,27-4.17,31.21-5.58,1.67-.55,6.11-1.3,11.26-2.17,8.42-1.43,18.91-3.2,21.42-4.83a30.56,30.56,0,0,1,4.06-2.25c1-.45,1.19-.56,1.34-1,.27-.87-.1-10.9-.41-17.45-2.48.68-12,3.23-18.29,3.78-1.71.8-22.95,10.6-27.25,11.21a19.88,19.88,0,0,1-8.32-.64c-.12-.05-8.2-3.58-12.52-5.84-4.77-2.5-8.52-3.16-8.89-2.68-.51.86-3.09,4.6-4.7,5.76a12.26,12.26,0,0,1-2.7,1.14c-.95.32-2.54.87-2.69,1.21.85.79,4.33,1,6.32.89Z" style="fill:#263238"></path><path d="M393.54,362.77l-1-.1c0-.24.27-2.35,1.49-3.08s10.47-2.35,11.67-2.35v1c-1.32,0-10.3,1.69-11.16,2.21C393.88,360.85,393.59,362.29,393.54,362.77Z" style="fill:#263238"></path><path d="M404,367a105.31,105.31,0,0,1-11.08-2.08l.23-1A108.21,108.21,0,0,0,404.07,366Z" style="fill:#263238"></path><path d="M402.38,373c-3,0-9.51-3.44-9.78-3.58l.47-.89c.06,0,6.56,3.47,9.31,3.47Z" style="fill:#263238"></path><path d="M401.79,378.13c-2.3-.84-8.74-4.85-9-5l.53-.85c.06,0,6.62,4.13,8.83,4.93Z" style="fill:#263238"></path><path d="M443.58,294.26c.6,3.35-.68,6.38-2.85,6.76s-4.42-2-5-5.37.69-6.37,2.86-6.76S443,290.91,443.58,294.26Z" style="fill:#fff"></path><path d="M440.26,301.56a4.14,4.14,0,0,1-3-1.48,9.16,9.16,0,0,1-1.61-9.11,3.92,3.92,0,0,1,2.83-2.57c2.44-.43,4.95,2.16,5.59,5.78h0c.63,3.61-.83,6.9-3.27,7.33A2.56,2.56,0,0,1,440.26,301.56Zm-1.21-12.21a1.64,1.64,0,0,0-.38,0,3,3,0,0,0-2.09,2,8.15,8.15,0,0,0,1.42,8,3,3,0,0,0,2.64,1.13c1.89-.33,3-3.11,2.45-6.18h0C442.58,291.48,440.82,289.35,439.05,289.35Z" style="fill:#263238"></path><path d="M439.11,294.85c.36,2-.42,3.9-1.75,4.13s-2.69-1.23-3.06-3.28.42-3.9,1.75-4.14S438.75,292.8,439.11,294.85Z" style="fill:#fff"></path><path d="M437.08,299.51c-1.49,0-2.88-1.55-3.27-3.73-.42-2.35.53-4.42,2.15-4.71s3.23,1.34,3.64,3.69h0c.42,2.36-.53,4.43-2.15,4.71A1.61,1.61,0,0,1,437.08,299.51Zm-.75-7.47-.19,0c-1,.18-1.65,1.81-1.34,3.55s1.43,3.05,2.48,2.88,1.65-1.81,1.34-3.56h0C438.33,293.3,437.31,292,436.33,292Z" style="fill:#263238"></path><path d="M429.06,254.05a1.46,1.46,0,0,0-.82-.43l-.63,3.52c2.06,3.15,7.54,13.67,7.87,36.57a1.5,1.5,0,0,0,1.5,1.48h0a1.51,1.51,0,0,0,1.48-1.53C438.06,264.26,429.43,254.45,429.06,254.05Z" style="fill:#8c8c8c"></path><path d="M437,295.69a2,2,0,0,1-2-2c-.32-22.48-5.55-32.87-7.79-36.3l-.11-.17.76-4.21.5.1a1.94,1.94,0,0,1,1.09.59c.39.42,9.12,10.33,9.55,39.94A2,2,0,0,1,437,295.69ZM428.14,257c2.34,3.66,7.52,14.28,7.84,36.67a1,1,0,1,0,2,0c-.42-29.26-8.93-38.88-9.29-39.28h0l-.06-.07Z" style="fill:#263238"></path><path d="M369.93,322.32h-.13c-2.38-.33-5.66-1-7.06-2-3.11-2.08.13-15.88.86-18.33l.37-1.26c.77-2.66,1.93-6.68,3.69-11.11a1,1,0,0,1,1.3-.56,1,1,0,0,1,.56,1.3c-1.72,4.34-2.87,8.3-3.63,10.92l-.37,1.28c-2,6.66-2.66,15.15-1.65,16.1a20,20,0,0,0,6.2,1.65,1,1,0,0,1,.85,1.12A1,1,0,0,1,369.93,322.32Z" style="fill:#fff"></path><path d="M369.93,322.82l-.21,0c-.87-.12-5.36-.78-7.25-2.05-3.82-2.54.6-18.72.65-18.88l.37-1.26a117.1,117.1,0,0,1,3.71-11.15,1.5,1.5,0,0,1,2.79,1.1c-1.72,4.33-2.86,8.28-3.62,10.88l-.37,1.28c-2.08,7-2.48,14.85-1.79,15.6a20.2,20.2,0,0,0,5.93,1.51,1.54,1.54,0,0,1,1,.58,1.5,1.5,0,0,1-1.2,2.41Zm-1.34-33.31a.51.51,0,0,0-.46.31c-1.75,4.41-2.91,8.42-3.68,11.06l-.37,1.27c-1.3,4.39-3.53,16.13-1.06,17.77,1.24.83,4.33,1.55,6.84,1.89h.07a.51.51,0,0,0,.5-.43.52.52,0,0,0-.1-.37.5.5,0,0,0-.33-.2,20.11,20.11,0,0,1-6.41-1.72c-1.44-1.35-.38-10.51,1.45-16.67l.37-1.26c.76-2.63,1.91-6.6,3.65-11a.51.51,0,0,0-.28-.65A.58.58,0,0,0,368.59,289.51Z" style="fill:#263238"></path><path d="M368.76,326a1,1,0,0,1,0-2c1.82,0,7.38,0,9.37-2.16a3,3,0,0,0,.76-2.43c-.32-4-.33-19.3-.21-28.84a1,1,0,0,1,1-1h0a1,1,0,0,1,1,1c-.14,10.95-.09,25.08.2,28.66a5,5,0,0,1-1.28,4C377.3,325.64,372.6,326,368.76,326Z" style="fill:#fff"></path><path d="M368.76,326.46a1.5,1.5,0,0,1,0-3c4.75,0,7.78-.67,9-2a2.49,2.49,0,0,0,.63-2c-.32-4-.33-19.33-.22-28.89a1.51,1.51,0,0,1,1.5-1.48,1.56,1.56,0,0,1,1.08.45,1.48,1.48,0,0,1,.42,1.07c-.13,10.94-.08,25,.21,28.61A5.53,5.53,0,0,1,380,323.5C377.54,326.12,372.7,326.46,368.76,326.46ZM379.68,290a.51.51,0,0,0-.51.5c-.11,9.53-.1,24.84.21,28.79a3.46,3.46,0,0,1-.88,2.81c-2.15,2.32-7.86,2.32-9.74,2.32a.5.5,0,0,0-.5.5.5.5,0,0,0,.5.5c3.74,0,8.31-.3,10.47-2.64a4.48,4.48,0,0,0,1.15-3.57c-.29-3.59-.34-17.75-.21-28.7a.45.45,0,0,0-.14-.36A.51.51,0,0,0,379.68,290Z" style="fill:#263238"></path><path d="M401.92,252.9a1.47,1.47,0,0,0-.95.2,137.82,137.82,0,0,0-21.72,17c-4.76,4.66-8.81,11.16-12.05,19.31a1.49,1.49,0,0,0,.84,1.94,1.35,1.35,0,0,0,.55.11,1.51,1.51,0,0,0,1.4-.95,55.79,55.79,0,0,1,9.5-16.28,35.06,35.06,0,0,0-1.1,7.15c-.09,1.66-.16,4.89-.21,9.09a1.5,1.5,0,0,0,1.48,1.52h0a1.5,1.5,0,0,0,1.5-1.48c0-4.17.12-7.35.2-9a29.16,29.16,0,0,1,3.27-12.38,142.49,142.49,0,0,1,16.15-12.43A21.12,21.12,0,0,0,401.92,252.9Z" style="fill:#8c8c8c"></path><path d="M379.67,292.54a2,2,0,0,1-1.43-.6,2,2,0,0,1-.57-1.42c.06-4.22.13-7.46.22-9.11a35.9,35.9,0,0,1,.64-5.19,58.08,58.08,0,0,0-8.08,14.53,2,2,0,0,1-2.6,1.12,2,2,0,0,1-1.09-1.07,2,2,0,0,1,0-1.53c3.26-8.21,7.35-14.76,12.16-19.48a137.64,137.64,0,0,1,21.81-17.11,2,2,0,0,1,1.27-.28l.54.06-.11.54a21.29,21.29,0,0,1-1.15,4l-.06.14-.12.08a140.91,140.91,0,0,0-16,12.32,28.47,28.47,0,0,0-3.17,12.09c-.08,1.62-.16,4.8-.21,9A2,2,0,0,1,379.67,292.54Zm.84-20.18-.54,2.05a35.22,35.22,0,0,0-1.09,7c-.08,1.64-.15,4.86-.21,9.07a1,1,0,1,0,2,0c.05-4.17.13-7.36.21-9a29.51,29.51,0,0,1,3.34-12.6l.1-.13a142.61,142.61,0,0,1,16.08-12.38,18.85,18.85,0,0,0,.88-2.95l0,0a136.75,136.75,0,0,0-21.63,17c-4.71,4.61-8.72,11.05-11.93,19.13a1,1,0,0,0,0,.77,1,1,0,0,0,.54.53,1,1,0,0,0,1.3-.56A56.42,56.42,0,0,1,379.11,274Z" style="fill:#263238"></path><path d="M373,323.56a25,25,0,0,1-3.33-.26,2,2,0,0,1,.54-4,13.09,13.09,0,0,0,3.86.14,2,2,0,0,1,1.15,3.83A8.18,8.18,0,0,1,373,323.56Z" style="fill:#fff"></path><path d="M373,324.06a25.06,25.06,0,0,1-3.4-.27,2.5,2.5,0,0,1,.68-5,12.77,12.77,0,0,0,3.65.16,2.5,2.5,0,1,1,1.43,4.79A8.45,8.45,0,0,1,373,324.06Zm-3.06-4.24a1.48,1.48,0,0,0-.9.3,1.5,1.5,0,0,0-.58,1,1.41,1.41,0,0,0,.29,1.1,1.46,1.46,0,0,0,1,.58,14.61,14.61,0,0,0,5.34,0,1.5,1.5,0,1,0-.87-2.87,13.37,13.37,0,0,1-4.07-.13Z" style="fill:#263238"></path><path d="M368.76,327h-4.41a2,2,0,0,1,0-4h4.41a2,2,0,0,1,0,4Z" style="fill:#fff"></path><path d="M368.76,327.46h-4.41a2.5,2.5,0,0,1,0-5h4.41a2.5,2.5,0,0,1,0,5Zm-4.41-4a1.5,1.5,0,0,0,0,3h4.41a1.5,1.5,0,0,0,0-3Z" style="fill:#263238"></path><path d="M436.74,295.63c.59,3.35-.69,6.38-2.86,6.76s-4.41-2-5-5.37.69-6.37,2.86-6.76S436.15,292.28,436.74,295.63Z" style="fill:#fff"></path><path d="M433.42,302.93a4.16,4.16,0,0,1-3-1.48,8.6,8.6,0,0,1-2-4.34c-.64-3.62.82-6.91,3.26-7.34a3.92,3.92,0,0,1,3.55,1.44,8.53,8.53,0,0,1,2,4.33h0a8.53,8.53,0,0,1-.42,4.78,3.92,3.92,0,0,1-2.84,2.56A2.56,2.56,0,0,1,433.42,302.93Zm-1.22-12.21a2.22,2.22,0,0,0-.37,0c-1.9.34-3,3.11-2.46,6.18a7.63,7.63,0,0,0,1.79,3.84,2.62,2.62,0,0,0,4.73-.84,7.61,7.61,0,0,0,.36-4.21h0a7.55,7.55,0,0,0-1.78-3.83A3.22,3.22,0,0,0,432.2,290.72Z" style="fill:#263238"></path><path d="M336,311S317,286.66,314.88,284a38.72,38.72,0,0,1-3.5-5.57s0-15.47-1.65-18-12.38-12-15.48-15.88S287.86,239,287,240s1,2.48,2.07,3.51,5.77,8.87,6.18,9.69a6.41,6.41,0,0,1,0,2.89s-7.22,12.79-5.36,14.44,7,7.22,7,7.22l5,3.72s10.31,27.64,16.71,38.57,16.09,25.79,18.15,28.68,5.16,1.24,6.4-.41S356.31,336,356.31,336Z" style="fill:#fff"></path><path d="M339.51,350.84h0a3.83,3.83,0,0,1-3.13-1.79c-2.2-3.08-11.83-17.86-18.18-28.71-6.11-10.45-15.89-36.39-16.69-38.52l-4.84-3.63c-.11-.11-5.22-5.63-7-7.24-2-1.77,3.44-11.83,5.22-15a5.66,5.66,0,0,0,0-2.49c-.43-.86-5.12-8.59-6.1-9.57l-.49-.47c-1.1-1-2.6-2.46-1.61-3.7a1.36,1.36,0,0,1,1.14-.49h0c1.73,0,4.48,2,6.86,5a116.7,116.7,0,0,0,8.35,8.55c3.38,3.27,6.3,6.1,7.14,7.37,1.65,2.47,1.73,16,1.74,18.1a38,38,0,0,0,3.4,5.39c2,2.64,20.74,26.62,21.08,27.05L357,336l-.35.32c-4.11,3.71-12.14,11.05-13.09,12.33A5.47,5.47,0,0,1,339.51,350.84Zm-51.73-110.6a.5.5,0,0,0-.36.11c-.41.52.7,1.58,1.52,2.35l.51.49c1.12,1.12,5.87,9,6.28,9.83a6.32,6.32,0,0,1,0,3.21l0,.15c-3.39,6-6.4,13-5.47,13.82,1.86,1.64,6.84,7,7.05,7.25l5,3.74.05.14c.11.28,10.38,27.73,16.68,38.5S335,345.4,337.16,348.47a2.85,2.85,0,0,0,2.32,1.37h0a4.44,4.44,0,0,0,3.23-1.79c1.15-1.53,10.85-10.32,12.88-12.16l-20.05-24.54c-.19-.24-19-24.41-21.08-27.06a38.89,38.89,0,0,1-3.56-5.66l-.05-.1v-.12c0-4.26-.29-15.74-1.57-17.67a83.42,83.42,0,0,0-7-7.2,119.77,119.77,0,0,1-8.45-8.65c-2.38-3-4.91-4.65-6.08-4.65Z" style="fill:#263238"></path><path d="M292.93,257.78s-4.75,7.86-4.75,9.9,6.4,4.47,8.34,4.66,4.08-.19,4-2.72S298.66,262,298,260.4,294.19,256.81,292.93,257.78Z" style="fill:#fff"></path><path d="M297.36,272.88c-.28,0-.58,0-.89,0-1.7-.17-8.8-2.59-8.8-5.16,0-2.11,4.34-9.34,4.83-10.16l.13-.13a2.16,2.16,0,0,1,1.92-.25,6.59,6.59,0,0,1,3.88,3.06c.73,1.65,2.47,6.84,2.57,9.4a3,3,0,0,1-.85,2.39A3.91,3.91,0,0,1,297.36,272.88Zm-4.06-14.75c-1.88,3.12-4.63,8.17-4.63,9.55s5.73,3.94,7.9,4.16a3.91,3.91,0,0,0,2.9-.58,2,2,0,0,0,.53-1.62c-.09-2.4-1.8-7.48-2.48-9a5.69,5.69,0,0,0-3.21-2.49A1.46,1.46,0,0,0,293.3,258.13Z" style="fill:#263238"></path><path d="M298.47,272.27c-2-2.34-9.42-7-9.49-7.08l.53-.84c.31.19,7.66,4.82,9.72,7.28Z" style="fill:#263238"></path><path d="M299.67,268.4c-.91-1.74-6.49-5.71-8.57-7.1l.55-.83c.32.21,7.69,5.15,8.9,7.47Z" style="fill:#263238"></path><path d="M310.55,265.62s.41-5.78-1.44-8.25-3.1-2.89-5.37-3.1-10.11.62-12.38.62-3.5,1.24-1.23,2.07,9.49,1,9.49,1,0,6.39,1.23,8.66,6.61,6.4,6.61,6.4" style="fill:#fff"></path><path d="M307.15,273.44c-.22-.17-5.46-4.21-6.73-6.55-1.1-2-1.27-6.86-1.3-8.42-1.67-.06-7.17-.32-9.16-1-1.48-.54-1.59-1.27-1.52-1.65.14-.83,1.32-1.39,2.92-1.39.9,0,2.73-.13,4.66-.27a70.3,70.3,0,0,1,7.77-.34c2.46.22,3.79.73,5.72,3.29s1.56,8.34,1.54,8.59l-1-.08c0-.05.38-5.62-1.34-7.91s-2.9-2.71-5-2.9a76,76,0,0,0-7.6.34c-2,.15-3.81.28-4.74.28-1.25,0-1.9.41-1.94.56h0s.09.25.88.54c2.17.78,9.26,1,9.33,1h.49V258c0,.06,0,6.29,1.17,8.42s6.42,6.2,6.47,6.24Z" style="fill:#263238"></path></g><g id="freepik--Table--inject-51"><rect x="29.08" y="476.49" width="441.18" height="1" style="fill:#263238"></rect></g></svg>
