<svg xmlns="http://www.w3.org/2000/svg" xmlns:xlink="http://www.w3.org/1999/xlink" viewBox="0 0 500 500"><defs><clipPath id="freepik--clip-path--inject-4"><rect x="180.58" y="143.57" width="96" height="118" transform="translate(-13.33 16.12) rotate(-3.92)" style="fill:#fff;stroke:#263238;stroke-linecap:round;stroke-linejoin:round;stroke-width:0.8269559999999999px"></rect></clipPath><clipPath id="freepik--clip-path-2--inject-4"><rect x="180.58" y="143.57" width="96" height="118" transform="translate(-13.33 16.12) rotate(-3.92)" style="fill:none"></rect></clipPath><clipPath id="freepik--clip-path-3--inject-4"><rect x="172.04" y="135.03" width="105.33" height="22" transform="translate(-9.47 15.72) rotate(-3.92)" style="fill:#fff;stroke:#263238;stroke-linecap:round;stroke-linejoin:round;stroke-width:0.8269559999999999px"></rect></clipPath><clipPath id="freepik--clip-path-4--inject-4"><rect x="172.04" y="135.03" width="105.33" height="22" transform="translate(-9.47 15.72) rotate(-3.92)" style="fill:none"></rect></clipPath></defs><g id="freepik--background-simple--inject-4"><path d="M409.52,210.26c-7.12-27.29-19-52.73-31.36-70.18-29.78-41.94-99-60.4-146.87-42.83-40.77,15-55,60.24-90.65,81.91-32.76,20-62.49,36.21-73.95,74.22-24.2,80.31,71.51,144.33,143,124,22.58-6.43,41.66-19.95,65.74-20,48.85-.17,66.05,6.53,105.57-19.85C420,311.45,422,258,409.52,210.26Z" style="fill:#C53F3F"></path><path d="M409.52,210.26c-7.12-27.29-19-52.73-31.36-70.18-29.78-41.94-99-60.4-146.87-42.83-40.77,15-55,60.24-90.65,81.91-32.76,20-62.49,36.21-73.95,74.22-24.2,80.31,71.51,144.33,143,124,22.58-6.43,41.66-19.95,65.74-20,48.85-.17,66.05,6.53,105.57-19.85C420,311.45,422,258,409.52,210.26Z" style="fill:#fff;opacity:0.8"></path><path d="M334.63,124.76c-4-2.16-5.76-.36-7.2-2.16s4-6.48-6.85-11.16c0,0-.72-10.08-15.48-10.44s-10.8,10.08-14.76,12.6-5-1.44-9,1.08-2.16,7.56-5.4,8.28-7.56-3.24-11.52-.72-4,4.68-5.76,4.68-5.4-1.44-7.56,0-4.69,3.25-4.69,3.25h91.11S338.59,126.92,334.63,124.76Z" style="fill:#fff"></path><path d="M335.3,280.35c-4-2.16-5.77-.36-7.21-2.16s4-6.49-6.84-11.17c0,0-.72-10.08-15.48-10.44S295,266.66,291,269.18s-5-1.44-9,1.08-2.16,7.57-5.4,8.29-7.56-3.24-11.52-.72-4,4.68-5.76,4.68-5.41-1.44-7.57,0-4.68,3.24-4.68,3.24h91.11S339.26,282.51,335.3,280.35Z" style="fill:#fff"></path><path d="M392.34,217.41c-2.73-1.49-4-.25-5-1.49s2.74-4.48-4.73-7.71c0,0-.49-7-10.69-7.22s-7.46,7-10.2,8.71-3.48-1-6.22.75-1.49,5.22-3.73,5.72-5.22-2.24-8-.5-2.73,3.23-4,3.23-3.73-1-5.22,0-3.24,2.24-3.24,2.24h62.93S395.08,218.9,392.34,217.41Z" style="fill:#fff"></path><path d="M354.71,203.31c-1.72-.94-2.5-.16-3.13-.94s1.72-2.81-3-4.84c0,0-.31-4.38-6.72-4.54s-4.69,4.38-6.41,5.47-2.19-.62-3.91.47-.94,3.29-2.35,3.6-3.28-1.41-5-.31-1.72,2-2.5,2-2.34-.63-3.28,0-2,1.41-2,1.41H356A2,2,0,0,0,354.71,203.31Z" style="fill:#fff"></path><path d="M238,223.77c-7.3-4-10.61-.66-13.27-4s7.3-11.93-12.6-20.55c0,0-1.32-18.57-28.51-19.23s-19.89,18.56-27.19,23.21-9.28-2.66-16.58,2-4,13.93-9.95,15.26-13.92-6-21.22-1.33-7.29,8.62-10.61,8.62-9.94-2.65-13.92,0-8.62,6-8.62,6H243.34S245.33,227.75,238,223.77Z" style="fill:#fff"></path></g><g id="freepik--Floor--inject-4"><path d="M433.89,387.81c-3.78,0-3.78,3.89-7.56,3.89s-3.78-3.89-7.56-3.89-3.78,3.89-7.56,3.89-3.78-3.89-7.56-3.89-3.78,3.89-7.56,3.89-3.78-3.89-7.56-3.89-3.78,3.89-7.56,3.89-3.78-3.89-7.56-3.89-3.77,3.89-7.55,3.89-3.78-3.89-7.56-3.89-3.78,3.89-7.56,3.89-3.78-3.89-7.55-3.89-3.78,3.89-7.56,3.89-3.78-3.89-7.55-3.89-3.78,3.89-7.56,3.89-3.78-3.89-7.55-3.89-3.78,3.89-7.56,3.89-3.78-3.89-7.55-3.89-3.78,3.89-7.56,3.89-3.77-3.89-7.55-3.89-3.78,3.89-7.56,3.89-3.78-3.89-7.56-3.89-3.77,3.89-7.55,3.89-3.78-3.89-7.56-3.89-3.78,3.89-7.56,3.89-3.77-3.89-7.55-3.89-3.78,3.89-7.56,3.89-3.78-3.89-7.55-3.89-3.78,3.89-7.56,3.89-3.78-3.89-7.56-3.89-3.77,3.89-7.55,3.89-3.78-3.89-7.56-3.89-3.78,3.89-7.55,3.89-3.78-3.89-7.56-3.89-3.78,3.89-7.55,3.89-3.78-3.89-7.56-3.89-3.78,3.89-7.55,3.89-3.78-3.89-7.56-3.89-3.78,3.89-7.56,3.89-3.77-3.89-7.55-3.89-3.78,3.89-7.55,3.89-3.78-3.89-7.56-3.89-3.78,3.89-7.56,3.89-3.77-3.89-7.55-3.89-3.78,3.89-7.55,3.89-3.78-3.89-7.56-3.89-3.78,3.89-7.55,3.89-3.78-3.89-7.56-3.89-3.77,3.89-7.55,3.89l-.36,0v13H440.39v-13.1C437.64,390.92,437.27,387.81,433.89,387.81Z" style="fill:#C53F3F"></path><rect x="63.28" y="400.47" width="377.11" height="6.39" style="fill:#263238"></rect></g><g id="freepik--Plants--inject-4"><path d="M336.85,297.93s5.36-4.23,6.74-6.95c1.17-2.32,2-5.59.81-8.06a4.61,4.61,0,0,0-6.53-2.09c-3.3,2.05-3.65,9.06-2.81,12.43C335.13,293.55,336.79,298,336.85,297.93Z" style="fill:#C53F3F"></path><path d="M287.25,333.23c.22.2,4,3,4.07,2.91s2.13-6.49,1.78-9.52c-.3-2.58-1.4-5.77-3.77-7.16a4.59,4.59,0,0,0-6.59,1.85C281.11,324.84,284.68,330.88,287.25,333.23Z" style="fill:#C53F3F"></path><path d="M399.66,304.35S380,324.62,380.13,349.53s19.92,45,19.92,45,19.64-20.27,19.53-45.17S399.66,304.35,399.66,304.35Z" style="fill:#C53F3F"></path><path d="M371.66,364.44a7.67,7.67,0,0,0,.71-.89c1.43-2.17,2.64-5.32,1.73-7.91a4.6,4.6,0,0,0-6.24-2.83c-2.67,1.26-4,5.54-4.26,9-1.06-.24-2-.42-2.84-.56-.36-.79-.71-1.59-1.07-2.4s-.66-1.66-1-2.5c-.47-1.25-.89-2.55-1.32-3.85,1.56-.7,6.08-2.81,7.77-4.68s3.42-4.86,2.9-7.55a4.59,4.59,0,0,0-5.73-3.74c-3.73,1.1-5.93,7.77-6,11.24,0,.11.05.85.13,1.72-.37-1.28-.75-2.56-1.09-3.88-1-3.73-1.82-7.56-2.7-11.39-.18-.8-.38-1.59-.56-2.39,1.31-.58,6.23-2.83,8-4.78s3.42-4.86,2.9-7.55a4.6,4.6,0,0,0-5.74-3.74c-3.72,1.11-5.92,7.77-6,11.24,0,.13.07,1,.16,2-.51-2.08-1-4.14-1.63-6.17a82.06,82.06,0,0,0-3.67-10.24c.47-.2,6.29-2.72,8.25-4.89,1.74-1.92,3.42-4.86,2.91-7.55a4.6,4.6,0,0,0-5.74-3.74c-3.73,1.11-5.92,7.77-6,11.24,0,.25.29,3.42.43,4.55,0,0,0-.08-.05-.11a60.11,60.11,0,0,0-5.35-9.24,80.71,80.71,0,0,0-5.9-7.5c-1.93-2.23-3.84-4.15-5.54-5.84-.93-.91-1.8-1.72-2.61-2.47h.08c.07,0-1.82-4.34-2-4.6-1.74-3-6.87-7.79-10.68-7a4.61,4.61,0,0,0-3.22,6.05c.85,2.61,3.74,4.37,6.19,5.22s8,.45,9.37.33c.83.79,1.71,1.65,2.66,2.62,1.66,1.72,3.52,3.68,5.4,5.94.5.6,1,1.27,1.53,1.91-1.09-.9-2.59-2.11-2.75-2.21-2.93-1.86-9.69-3.74-12.69-1.26a4.61,4.61,0,0,0-.07,6.85c1.95,1.93,5.33,2.16,7.9,1.78s7.46-3.38,8.5-4.05c1.11,1.43,2.22,2.93,3.28,4.55a59,59,0,0,1,5.08,9.24c.08.18.14.39.22.57-.46-.53-3.19-3.29-3.41-3.46-2.71-2.18-9.22-4.79-12.47-2.65a4.61,4.61,0,0,0-.82,6.81c1.73,2.12,5.06,2.72,7.65,2.63,3-.11,8.88-3.08,9.1-3.19a80.51,80.51,0,0,1,3.32,10c.67,2.51,1.25,5.07,1.8,7.66-.61-.69-3.15-3.25-3.36-3.41-2.7-2.18-9.22-4.79-12.46-2.65a4.6,4.6,0,0,0-.83,6.8c1.73,2.13,5.06,2.73,7.65,2.64,2.92-.11,8.57-2.93,9.05-3.17.25,1.18.51,2.35.75,3.52.79,3.85,1.57,7.71,2.46,11.49.3,1.31.65,2.59,1,3.88-.95-1-2.72-2.78-2.89-2.91-2.71-2.18-9.22-4.79-12.47-2.65a4.6,4.6,0,0,0-.83,6.8c1.74,2.13,5.07,2.73,7.66,2.64s7.41-2.37,8.75-3c.59,2.13,1.22,4.23,1.95,6.27.33.87.61,1.79,1,2.61l.55,1.3-.75-.07s-.05,1.22.06,3.19c-2.86-2-7-3.79-9.66-2.56a4.61,4.61,0,0,0-1.85,6.6,6.27,6.27,0,0,0,.6.83,18,18,0,0,0,3.69,8.23c.15.16,2.1,2,3.11,2.85-1-.53-2-1.06-3-1.63-1.45-.8-3-1.71-4.44-2.57L344,374.37c-.78-.47-1.46-1-2.21-1.53-1.08-.78-2.15-1.64-3.23-2.49.92-1.44,3.52-5.7,3.9-8.18s.17-5.94-1.74-7.91a4.61,4.61,0,0,0-6.85.05c-2.5,3-.65,9.75,1.2,12.69.06.09.51.67,1.06,1.36-1-.87-2.05-1.73-3.05-2.64-2.86-2.58-5.69-5.29-8.54-8L322.75,356c.77-1.2,3.63-5.79,4-8.4s.17-5.94-1.74-7.9a4.6,4.6,0,0,0-6.85,0c-2.5,3-.65,9.75,1.2,12.69.06.11.61.8,1.23,1.57-1.57-1.45-3.15-2.88-4.76-4.25a82.15,82.15,0,0,0-8.71-6.51c.28-.43,3.74-5.74,4.18-8.63.39-2.57.18-5.94-1.74-7.91a4.61,4.61,0,0,0-6.85,0c-2.5,3-.65,9.75,1.2,12.69.13.2,2.12,2.69,2.87,3.56l-.11-.07a59.82,59.82,0,0,0-9.55-4.76,82.53,82.53,0,0,0-9.06-3c-2.85-.79-5.5-1.34-7.85-1.81-1.27-.24-2.44-.44-3.54-.62l.07,0c.05,0-3.91-2.62-4.18-2.75-3.11-1.54-10-2.7-12.75.08a4.6,4.6,0,0,0,.65,6.82c2.15,1.71,5.53,1.59,8,.94s6.92-4,8-4.89c1.13.2,2.34.43,3.67.72,2.34.52,5,1.12,7.78,2,.75.23,1.55.5,2.33.75-1.4-.15-3.32-.33-3.51-.32-3.47.06-10.15,2.22-11.28,5.94a4.61,4.61,0,0,0,3.72,5.76c2.69.53,5.64-1.14,7.57-2.87s4.36-6.94,4.86-8.07c1.71.58,3.46,1.22,5.25,2a59.7,59.7,0,0,1,9.33,4.89l.5.37c-.68-.2-4.48-1-4.75-1-3.46-.32-10.33,1.1-11.86,4.68a4.61,4.61,0,0,0,3.06,6.13c2.62.81,5.73-.52,7.84-2,2.43-1.74,5.7-7.46,5.82-7.68a81.23,81.23,0,0,1,8.28,6.49c1.94,1.72,3.84,3.55,5.73,5.4-.89-.24-4.42-1-4.69-1-3.45-.32-10.33,1.1-11.85,4.68a4.61,4.61,0,0,0,3.06,6.13c2.62.81,5.73-.52,7.84-2,2.37-1.7,5.53-7.17,5.79-7.63.86.84,1.72,1.67,2.57,2.52,2.79,2.77,5.56,5.56,8.39,8.23,1,.92,2,1.8,3,2.68-1.34-.31-3.8-.82-4-.84-3.46-.32-10.33,1.1-11.86,4.68a4.61,4.61,0,0,0,3.06,6.13c2.62.81,5.73-.52,7.84-2s4.88-6.06,5.63-7.35c1.67,1.45,3.36,2.86,5.09,4.16.75.55,1.49,1.15,2.25,1.64l2.23,1.49c1.56,1,3,1.87,4.49,2.73.74.44,1.45.84,2.18,1.26-1.32-.51-3.42-1.29-3.61-1.34-3.38-.84-10.38-.48-12.43,2.82a4.6,4.6,0,0,0,2.09,6.52c2.47,1.21,5.74.36,8.06-.81,2.55-1.29,6.39-6.05,6.86-6.63,1.78,1,3.53,2,5.18,2.87,4.41,2.36,8.26,4.24,11.24,5.64,9.7,8.39,23.35,9.31,23.35,9.31s.72-16.35-8.91-27.11A33.75,33.75,0,0,0,371.66,364.44Zm-17.33,15.95c.31-.67,2.63-5.87,2.79-8.8.54-.1,1.09-.21,1.61-.33a38,38,0,0,0,6,14.39c-1.76-.83-3.67-1.76-5.7-2.79C357.54,382.09,356,381.26,354.33,380.39Z" style="fill:#C53F3F"></path><path d="M443.2,361.31s-16.36.51-26.38,10.91S406.93,399,406.93,399s16.36-.5,26.38-10.91S443.2,361.31,443.2,361.31Z" style="fill:#C53F3F"></path><g style="opacity:0.5"><path d="M336.85,297.93s5.36-4.23,6.74-6.95c1.17-2.32,2-5.59.81-8.06a4.61,4.61,0,0,0-6.53-2.09c-3.3,2.05-3.65,9.06-2.81,12.43C335.13,293.55,336.79,298,336.85,297.93Z" style="fill:#fff"></path><path d="M287.25,333.23c.22.2,4,3,4.07,2.91s2.13-6.49,1.78-9.52c-.3-2.58-1.4-5.77-3.77-7.16a4.59,4.59,0,0,0-6.59,1.85C281.11,324.84,284.68,330.88,287.25,333.23Z" style="fill:#fff"></path><path d="M399.66,304.35S380,324.62,380.13,349.53s19.92,45,19.92,45,19.64-20.27,19.53-45.17S399.66,304.35,399.66,304.35Z" style="fill:#fff"></path><path d="M371.66,364.44a7.67,7.67,0,0,0,.71-.89c1.43-2.17,2.64-5.32,1.73-7.91a4.6,4.6,0,0,0-6.24-2.83c-2.67,1.26-4,5.54-4.26,9-1.06-.24-2-.42-2.84-.56-.36-.79-.71-1.59-1.07-2.4s-.66-1.66-1-2.5c-.47-1.25-.89-2.55-1.32-3.85,1.56-.7,6.08-2.81,7.77-4.68s3.42-4.86,2.9-7.55a4.59,4.59,0,0,0-5.73-3.74c-3.73,1.1-5.93,7.77-6,11.24,0,.11.05.85.13,1.72-.37-1.28-.75-2.56-1.09-3.88-1-3.73-1.82-7.56-2.7-11.39-.18-.8-.38-1.59-.56-2.39,1.31-.58,6.23-2.83,8-4.78s3.42-4.86,2.9-7.55a4.6,4.6,0,0,0-5.74-3.74c-3.72,1.11-5.92,7.77-6,11.24,0,.13.07,1,.16,2-.51-2.08-1-4.14-1.63-6.17a82.06,82.06,0,0,0-3.67-10.24c.47-.2,6.29-2.72,8.25-4.89,1.74-1.92,3.42-4.86,2.91-7.55a4.6,4.6,0,0,0-5.74-3.74c-3.73,1.11-5.92,7.77-6,11.24,0,.25.29,3.42.43,4.55,0,0,0-.08-.05-.11a60.11,60.11,0,0,0-5.35-9.24,80.71,80.71,0,0,0-5.9-7.5c-1.93-2.23-3.84-4.15-5.54-5.84-.93-.91-1.8-1.72-2.61-2.47h.08c.07,0-1.82-4.34-2-4.6-1.74-3-6.87-7.79-10.68-7a4.61,4.61,0,0,0-3.22,6.05c.85,2.61,3.74,4.37,6.19,5.22s8,.45,9.37.33c.83.79,1.71,1.65,2.66,2.62,1.66,1.72,3.52,3.68,5.4,5.94.5.6,1,1.27,1.53,1.91-1.09-.9-2.59-2.11-2.75-2.21-2.93-1.86-9.69-3.74-12.69-1.26a4.61,4.61,0,0,0-.07,6.85c1.95,1.93,5.33,2.16,7.9,1.78s7.46-3.38,8.5-4.05c1.11,1.43,2.22,2.93,3.28,4.55a59,59,0,0,1,5.08,9.24c.08.18.14.39.22.57-.46-.53-3.19-3.29-3.41-3.46-2.71-2.18-9.22-4.79-12.47-2.65a4.61,4.61,0,0,0-.82,6.81c1.73,2.12,5.06,2.72,7.65,2.63,3-.11,8.88-3.08,9.1-3.19a80.51,80.51,0,0,1,3.32,10c.67,2.51,1.25,5.07,1.8,7.66-.61-.69-3.15-3.25-3.36-3.41-2.7-2.18-9.22-4.79-12.46-2.65a4.6,4.6,0,0,0-.83,6.8c1.73,2.13,5.06,2.73,7.65,2.64,2.92-.11,8.57-2.93,9.05-3.17.25,1.18.51,2.35.75,3.52.79,3.85,1.57,7.71,2.46,11.49.3,1.31.65,2.59,1,3.88-.95-1-2.72-2.78-2.89-2.91-2.71-2.18-9.22-4.79-12.47-2.65a4.6,4.6,0,0,0-.83,6.8c1.74,2.13,5.07,2.73,7.66,2.64s7.41-2.37,8.75-3c.59,2.13,1.22,4.23,1.95,6.27.33.87.61,1.79,1,2.61l.55,1.3-.75-.07s-.05,1.22.06,3.19c-2.86-2-7-3.79-9.66-2.56a4.61,4.61,0,0,0-1.85,6.6,6.27,6.27,0,0,0,.6.83,18,18,0,0,0,3.69,8.23c.15.16,2.1,2,3.11,2.85-1-.53-2-1.06-3-1.63-1.45-.8-3-1.71-4.44-2.57L344,374.37c-.78-.47-1.46-1-2.21-1.53-1.08-.78-2.15-1.64-3.23-2.49.92-1.44,3.52-5.7,3.9-8.18s.17-5.94-1.74-7.91a4.61,4.61,0,0,0-6.85.05c-2.5,3-.65,9.75,1.2,12.69.06.09.51.67,1.06,1.36-1-.87-2.05-1.73-3.05-2.64-2.86-2.58-5.69-5.29-8.54-8L322.75,356c.77-1.2,3.63-5.79,4-8.4s.17-5.94-1.74-7.9a4.6,4.6,0,0,0-6.85,0c-2.5,3-.65,9.75,1.2,12.69.06.11.61.8,1.23,1.57-1.57-1.45-3.15-2.88-4.76-4.25a82.15,82.15,0,0,0-8.71-6.51c.28-.43,3.74-5.74,4.18-8.63.39-2.57.18-5.94-1.74-7.91a4.61,4.61,0,0,0-6.85,0c-2.5,3-.65,9.75,1.2,12.69.13.2,2.12,2.69,2.87,3.56l-.11-.07a59.82,59.82,0,0,0-9.55-4.76,82.53,82.53,0,0,0-9.06-3c-2.85-.79-5.5-1.34-7.85-1.81-1.27-.24-2.44-.44-3.54-.62l.07,0c.05,0-3.91-2.62-4.18-2.75-3.11-1.54-10-2.7-12.75.08a4.6,4.6,0,0,0,.65,6.82c2.15,1.71,5.53,1.59,8,.94s6.92-4,8-4.89c1.13.2,2.34.43,3.67.72,2.34.52,5,1.12,7.78,2,.75.23,1.55.5,2.33.75-1.4-.15-3.32-.33-3.51-.32-3.47.06-10.15,2.22-11.28,5.94a4.61,4.61,0,0,0,3.72,5.76c2.69.53,5.64-1.14,7.57-2.87s4.36-6.94,4.86-8.07c1.71.58,3.46,1.22,5.25,2a59.7,59.7,0,0,1,9.33,4.89l.5.37c-.68-.2-4.48-1-4.75-1-3.46-.32-10.33,1.1-11.86,4.68a4.61,4.61,0,0,0,3.06,6.13c2.62.81,5.73-.52,7.84-2,2.43-1.74,5.7-7.46,5.82-7.68a81.23,81.23,0,0,1,8.28,6.49c1.94,1.72,3.84,3.55,5.73,5.4-.89-.24-4.42-1-4.69-1-3.45-.32-10.33,1.1-11.85,4.68a4.61,4.61,0,0,0,3.06,6.13c2.62.81,5.73-.52,7.84-2,2.37-1.7,5.53-7.17,5.79-7.63.86.84,1.72,1.67,2.57,2.52,2.79,2.77,5.56,5.56,8.39,8.23,1,.92,2,1.8,3,2.68-1.34-.31-3.8-.82-4-.84-3.46-.32-10.33,1.1-11.86,4.68a4.61,4.61,0,0,0,3.06,6.13c2.62.81,5.73-.52,7.84-2s4.88-6.06,5.63-7.35c1.67,1.45,3.36,2.86,5.09,4.16.75.55,1.49,1.15,2.25,1.64l2.23,1.49c1.56,1,3,1.87,4.49,2.73.74.44,1.45.84,2.18,1.26-1.32-.51-3.42-1.29-3.61-1.34-3.38-.84-10.38-.48-12.43,2.82a4.6,4.6,0,0,0,2.09,6.52c2.47,1.21,5.74.36,8.06-.81,2.55-1.29,6.39-6.05,6.86-6.63,1.78,1,3.53,2,5.18,2.87,4.41,2.36,8.26,4.24,11.24,5.64,9.7,8.39,23.35,9.31,23.35,9.31s.72-16.35-8.91-27.11A33.75,33.75,0,0,0,371.66,364.44Zm-17.33,15.95c.31-.67,2.63-5.87,2.79-8.8.54-.1,1.09-.21,1.61-.33a38,38,0,0,0,6,14.39c-1.76-.83-3.67-1.76-5.7-2.79C357.54,382.09,356,381.26,354.33,380.39Z" style="fill:#fff"></path><path d="M443.2,361.31s-16.36.51-26.38,10.91S406.93,399,406.93,399s16.36-.5,26.38-10.91S443.2,361.31,443.2,361.31Z" style="fill:#fff"></path></g><polygon points="400.47 371.85 416.54 357.41 415.85 356.64 400.46 370.47 400.38 351.54 400.46 351.6 414.05 331.73 413.2 331.15 400.37 349.91 400.17 304.35 399.14 304.35 399.28 335.27 389.05 326.42 388.37 327.2 399.28 336.64 399.38 358.75 383.87 345.03 383.19 345.8 399.38 360.13 399.47 380.26 387.82 371.12 387.18 371.93 399.48 381.58 399.53 394.54 400.56 394.53 400.46 371.85 400.47 371.85" style="fill:#fff"></polygon><polygon points="385.67 377.43 384.64 377.31 383.34 388.75 376.44 381.04 376.46 381.04 374.71 367.19 373.69 367.32 375.25 379.71 358.1 360.54 357.33 361.22 368.97 374.23 361.6 374.32 361.62 375.35 369.88 375.25 378.04 384.37 366.52 384.38 366.52 385.42 378.96 385.4 386.38 393.69 378.25 394.18 378.32 395.21 387.26 394.67 392.2 400.2 392.96 399.51 384.26 389.78 385.67 377.43" style="fill:#fff"></polygon><polygon points="424.49 381.51 438.17 378.73 437.96 377.72 425.73 380.2 443.57 361.67 442.82 360.96 430.72 373.53 430.08 366.19 429.06 366.28 429.77 374.52 421.29 383.33 420.41 371.85 419.38 371.93 420.33 384.33 412.61 392.35 411.52 384.28 410.5 384.42 411.7 393.29 406.56 398.63 407.3 399.35 416.35 389.94 428.78 390.42 428.82 389.39 417.31 388.95 424.49 381.49 424.49 381.51" style="fill:#fff"></polygon></g><g id="freepik--character-2--inject-4"><path d="M316.31,224.41s12-4.75,18.5-10.25,8.25-14.75,4.75-15.5-19.25,11.75-19.25,11.75S312.56,211.91,316.31,224.41Z" style="fill:#fff;stroke:#263238;stroke-linecap:round;stroke-linejoin:round;stroke-width:0.8269559999999999px"></path><path d="M332.33,175.45a78.18,78.18,0,0,1,1-7.8c.59-2.59-3.58-1.27-4.22.26s-4,2.16-4.47,3.25a17.23,17.23,0,0,0-.73,4.82c-.18,2.24,1.57,4.7,1.57,4.7s-10.36,23.79-11.13,30.74c-1.1,9.87.86,12.77,1.83,13.18s6.9-3.47,8.37-8.27,1.77-26.71,6.21-35.37A40.84,40.84,0,0,0,332.33,175.45Z" style="fill:#fff;stroke:#263238;stroke-linecap:round;stroke-linejoin:round;stroke-width:0.8269559999999999px"></path><path d="M332.57,164.84a1.71,1.71,0,0,0-1.49,1.26c-.2,1.14-.36,3.1.93,3.25s1.85-.85,1.78-2.91S332.57,164.84,332.57,164.84Z" style="fill:#fff;stroke:#263238;stroke-linecap:round;stroke-linejoin:round;stroke-width:0.8269559999999999px"></path><path d="M329.72,165.69a1.71,1.71,0,0,0-1.49,1.26c-.21,1.14-.37,3.1.93,3.25s1.85-.85,1.78-2.91S329.72,165.69,329.72,165.69Z" style="fill:#fff;stroke:#263238;stroke-linecap:round;stroke-linejoin:round;stroke-width:0.8269559999999999px"></path><path d="M325.35,169.84a1.64,1.64,0,0,0-1.42,1.21c-.2,1.08-.35,2.95.89,3.09s1.76-.8,1.69-2.77S325.35,169.84,325.35,169.84Z" style="fill:#fff;stroke:#263238;stroke-linecap:round;stroke-linejoin:round;stroke-width:0.8269559999999999px"></path><path d="M327.13,167.51a1.64,1.64,0,0,0-1.42,1.21c-.2,1.08-.35,3,.89,3.09s1.76-.8,1.69-2.77S327.13,167.51,327.13,167.51Z" style="fill:#fff;stroke:#263238;stroke-linecap:round;stroke-linejoin:round;stroke-width:0.8269559999999999px"></path><path d="M331.18,179.69s2.36-5.27,3-6.79.05-2.55.89-4.51-1.71-.21-2.27,1.09a26.47,26.47,0,0,0-1,2.93,3.81,3.81,0,0,0-2.83,2.4,4.27,4.27,0,0,0-.2,3.52" style="fill:#fff;stroke:#263238;stroke-linecap:round;stroke-linejoin:round;stroke-width:0.8269559999999999px"></path><path d="M337.9,293.66s.43,29.67,1.75,32.83,34.41,65.75,34.41,65.75l3.92-2.91-24.43-68.18,3.95-57Z" style="fill:#263238;stroke:#263238;stroke-linecap:round;stroke-linejoin:round;stroke-width:0.8269559999999999px"></path><path d="M331.13,255.2s-8.83,51.94-10.15,62,2.13,76.74,2.13,76.74l4.92-.15,9-75.93s14.08-37.31,18.48-42.41c5.06-5.85,7.6-12.84,4.67-18.63C358.17,252.9,331.13,255.2,331.13,255.2Z" style="fill:#263238;stroke:#263238;stroke-linecap:round;stroke-linejoin:round;stroke-width:0.8269559999999999px"></path><path d="M323.11,393.9s-12.39,5.67-11.75,6.84,15.62.91,16.62.6,0-7.59,0-7.59Z" style="fill:#fff;stroke:#263238;stroke-miterlimit:10;stroke-width:0.8269559999999999px"></path><path d="M374.06,392.24a14.09,14.09,0,0,1-2,3.07c-.94.91-4.63,3-4.5,4s8,.56,9.52.1,2.94-3.81,4.36-5.05-3.49-5-3.49-5A45.28,45.28,0,0,1,374.06,392.24Z" style="fill:#fff;stroke:#263238;stroke-linecap:round;stroke-linejoin:round;stroke-width:0.8269559999999999px"></path><line x1="337.98" y1="312.49" x2="351.98" y2="278.49" style="fill:none;stroke:#fff;stroke-linecap:round;stroke-linejoin:round;stroke-width:0.620217px"></line><path d="M331.89,201.7a54.18,54.18,0,0,1,3.29-7.26c3.48-6.61,8.07-11.6,13.4-16.79,1-1,2.69-3.1,4.23-3.28,2.49-.28.52.11,2.51,2.15s8.52,8.25,9.66,22c.35,4.23-.92,8.7-1.56,12.85-.87,5.71-2.18,11.36-2.63,17.13-.55,6.93,1.17,14.29,1.46,21.27.19,4.71.51,9.43.88,14.14,0,0-6.29-5-9.43-6.29A19,19,0,0,0,336.4,260c-4.79,3.19-8.65,6-9.17,4.72s.67-5.87,1.57-9.7c1.05-4.45,2.95-19.43,2.95-19.43.66-3.09.64-19.4-.41-22C329.87,209.8,330.52,205.62,331.89,201.7Z" style="fill:#C53F3F;stroke:#263238;stroke-linecap:round;stroke-linejoin:round;stroke-width:0.8269559999999999px"></path><path d="M350.18,231.23s-9.29-5-12.31-9.32" style="fill:none;stroke:#263238;stroke-linecap:round;stroke-linejoin:round;stroke-width:0.620217px"></path><line x1="349.02" y1="234.06" x2="344.21" y2="231.65" style="fill:none;stroke:#263238;stroke-linecap:round;stroke-linejoin:round;stroke-width:0.620217px"></line><path d="M363,165.49c-4.75,3.53-6.86,11.76-5.3,15,.35.74-7.21,3.27-7.83,3.49-3.6,1.27-5.86,2.21-8.78,4.74a.79.79,0,0,1-1-1.19c1.28-1.09,4.1-3.65,4.75-5.51.84-2.42,1.18-3.77,1.18-3.77.95-3.85-1-7.9-1-7.9C347.63,166.29,365,164,363,165.49Z" style="fill:#fff;stroke:#263238;stroke-linecap:round;stroke-linejoin:round;stroke-width:0.8269559999999999px"></path><path d="M359.89,141c-4.09-.8-9.21-.81-12,2.76-4.85,6.26-4.22,10.68-5.44,12.25s-4.91,2-4.73,3.42,2.2,2.54,2.2,2.54a70.48,70.48,0,0,0-.87,9.75c.15,3,5,2.65,10,2.73s8.13-.8,11.56-5.23,8.15-6,9.56-11.81A13.5,13.5,0,0,0,359.89,141Z" style="fill:#fff;stroke:#263238;stroke-linecap:round;stroke-linejoin:round;stroke-width:0.8269559999999999px"></path><path d="M348.93,157s-.63-3.47-2.51-3.6" style="fill:#fff;stroke:#263238;stroke-linecap:round;stroke-linejoin:round;stroke-width:0.8269559999999999px"></path><path d="M346.08,157.11c-.28.59-.77.94-1.09.79s-.35-.76-.08-1.34.77-.95,1.09-.8S346.36,156.52,346.08,157.11Z" style="fill:#263238"></path><path d="M341.2,164.89a4.88,4.88,0,0,0,5.31-.09" style="fill:#fff;stroke:#263238;stroke-linecap:round;stroke-linejoin:round;stroke-width:0.8269559999999999px"></path><path d="M342.7,165.53s-.86,3,1.08,3,2.15-3.44,2.15-3.44A4,4,0,0,1,342.7,165.53Z" style="fill:#263238"></path><path d="M376.05,196.29c-.8-3.61-2-12.64.41-21.2a52.12,52.12,0,0,0,1.69-16.87l-.11.21a18.5,18.5,0,0,0-.38-4.76c-2.16-9.62-9.78-15.19-16.61-17.5a15.26,15.26,0,0,0-7.71-.69h0S344.75,137,338,141c0,2.86,3,7.71,5.5,11.77a22.4,22.4,0,0,1,2.84-6.82A59.77,59.77,0,0,0,353,156.81c5.65,7.69,7,8.07,7,8.07-.59,4.19-10.33,6.92-11,9.54,0,.1,0,.2-.05.31,0,.35.05.7.07,1,.53,2,3.05,3.55,3.9,4.21,1,.8,1,6,2.82,7.49s2-.44,3.2.15c1,.52,3.72,6.29,5.63,6.81a36.75,36.75,0,0,0,3.12,2.61C371,199.6,376.85,199.9,376.05,196.29Z" style="fill:#263238"></path><path d="M353.33,137.05c-2.21.67-8.29,1.06-8.16,3.53a13,13,0,0,0,1.37,4.8" style="fill:none;stroke:#fff;stroke-linecap:round;stroke-linejoin:round;stroke-width:0.620217px"></path><path d="M351.1,142.12S355,154.64,359,158.73s10.58,6.5,10.58,6.5" style="fill:none;stroke:#fff;stroke-linecap:round;stroke-linejoin:round;stroke-width:0.620217px"></path><path d="M358.25,138.15a32.3,32.3,0,0,0,1.89,13.35,22.23,22.23,0,0,0,7,9.83" style="fill:none;stroke:#fff;stroke-linecap:round;stroke-linejoin:round;stroke-width:0.620217px"></path><path d="M357.41,164.84s5.3-3.85,6.27-2.1-.75,4.39-3,6-3.51.26-3.86-1" style="fill:#fff;stroke:#263238;stroke-linecap:round;stroke-linejoin:round;stroke-width:0.8269559999999999px"></path><path d="M350.29,185.35c2.77-2.34,7.11-1.36,9,3.57,3.14,8,6.28,16.08,9.5,24.12,3.14,7.86,15.72,46.39,16.77,49.27S389,272.53,389,272.53s7.58,5.81,7.58,6.6-1.31,3.67-2.36,3.93-5.75-2.4-6.79-3.19-1.58-2.36-2.89-6.29c0,0-7.86-21-13.1-27.52S362,222.47,361,220.64a165.36,165.36,0,0,1-9.43-17.3c-1.76-3.87-4.12-8.52-3.64-12.91A8,8,0,0,1,350.29,185.35Z" style="fill:#fff;stroke:#263238;stroke-linecap:round;stroke-linejoin:round;stroke-width:0.8269559999999999px"></path><line x1="391.62" y1="280.2" x2="392.69" y2="278.46" style="fill:none;stroke:#263238;stroke-linecap:round;stroke-linejoin:round;stroke-width:0.8269559999999999px"></line><path d="M392.82,282.21s3.09-1.61,3.76-3.08" style="fill:none;stroke:#263238;stroke-linecap:round;stroke-linejoin:round;stroke-width:0.8269559999999999px"></path><path d="M388.47,277s1,1.31,2.62,2.88a7.76,7.76,0,0,1,1.84,4.19s-.52,1.58-1.31.79S389,281.7,389,281.7a4.85,4.85,0,0,1-2.62-2.09c-1.31-1.84-1.84-6-1.84-6" style="fill:#fff;stroke:#263238;stroke-linecap:round;stroke-linejoin:round;stroke-width:0.8269559999999999px"></path></g><g id="freepik--character-1--inject-4"><path d="M190.53,264.23s-1.54,7.7-1.54,10,12.7,46.2,12.7,52.75,5.39,63.52,5.39,63.52l-8.85,1.93s-7.32-27.34-10.78-37.35-5-27.33-5-27.33l-8.08-28.88s-6.55-13.09-9.63-18.09-5.77-8.86-5.39-13.09,4.62-6.93,4.62-6.93Z" style="fill:#263238"></path><path d="M152.8,262.31a38.08,38.08,0,0,0,.77,14.24c1.92,6.93,5,13.09,5,14.25s-2.31,34.65-2.69,35.8-26.57,60.06-26.18,61.22,6.16,3.46,6.16,3.46,38.5-53.51,40.42-56.21,8.86-50.82,10-53.51,2.31-20,2.31-20S162.42,260.77,152.8,262.31Z" style="fill:#263238"></path><line x1="187.79" y1="275.81" x2="181.33" y2="312" style="fill:none;stroke:#fff;stroke-linecap:round;stroke-linejoin:round;stroke-width:0.620217px"></line><path d="M168.41,328.48s-12.28-1.61-9,.32a38,38,0,0,0,8.08,3.24H160" style="fill:none;stroke:#fff;stroke-linecap:round;stroke-linejoin:round;stroke-width:0.620217px"></path><path d="M175.84,271a29.41,29.41,0,0,1-3.56,5.17,7,7,0,0,1-3.23,1.94" style="fill:none;stroke:#fff;stroke-linecap:round;stroke-linejoin:round;stroke-width:0.620217px"></path><path d="M167.76,270.31s.32,9.38.65,13.25a108.55,108.55,0,0,1-.65,19.39c-1,9.37-1,13.9-1,13.9" style="fill:none;stroke:#fff;stroke-linecap:round;stroke-linejoin:round;stroke-width:0.620217px"></path><path d="M207.08,390.51s14.25,2.31,14.25,3.85-22,8.86-23.1,6.93,0-8.85,0-8.85Z" style="fill:#fff;stroke:#263238;stroke-linecap:round;stroke-linejoin:round;stroke-width:0.8269559999999999px"></path><path d="M129.7,387.82s-5.39,6.16-5,7.7,6.55,4.62,9.63,5,10,.39,11.93-.77-4.23-2.69-5.77-4.23-4.62-4.24-4.62-4.24Z" style="fill:#fff;stroke:#263238;stroke-linecap:round;stroke-linejoin:round;stroke-width:0.8269559999999999px"></path><path d="M146.25,399.75s-8.22-.17-11.78-1.14-8.72-4.53-8.72-4.53l-.56-.18a2.85,2.85,0,0,0-.5,1.62c.39,1.54,6.55,4.62,9.63,5S144.33,400.91,146.25,399.75Z" style="fill:#C53F3F;stroke:#263238;stroke-linecap:round;stroke-linejoin:round;stroke-width:0.620217px"></path><path d="M207.83,398c-3.88,1.62-8.72,1-9.69,1l-.4.06a5.39,5.39,0,0,0,.49,2.3c1.15,1.93,23.1-5.39,23.1-6.93,0-.22-.32-.47-.84-.72l-.7.12S211.71,396.34,207.83,398Z" style="fill:#C53F3F;stroke:#263238;stroke-linecap:round;stroke-linejoin:round;stroke-width:0.620217px"></path><path d="M165.5,150.29q-.88-2.1-1.89-4.19c-2.46-5.06-6.29-9.79-12.3-10.13s-14.91,3.63-17.3,9.51c-2,5.06-1.1,11,1.36,15.71a12.43,12.43,0,0,0,4.66,5.07c1.86,1.28,4.8,2.26,5.5,4.69.81,2.79-.78,11.32-.78,11.32L155,186.38a24.21,24.21,0,0,1,2.79-7.86,13.92,13.92,0,0,1,5.77-5.67c3.64,0,7.15-1.34,7.33-3.15.16-1.57-.75-6.21-2.6-11.88a2.81,2.81,0,0,0,2-2.56C170.21,153.52,166.47,150.93,165.5,150.29Z" style="fill:#fff;stroke:#263238;stroke-linecap:round;stroke-linejoin:round;stroke-width:0.8269559999999999px"></path><path d="M149.07,158.09s3.39-1.41,3-3.12,0-2.83,1.44-4.76-1.88-2.27-3.51-4.12,5.07-5.75,9.66-7,8.79-3.69,4.58-8.54-7.8-1.36-9.89-.14-.22-5.2-5.47-4.12-4.63,4.09-4.2,5.8-1.67,2.93-3.55,4-5.12-.12-10.66,6.74-1.34,17,3.62,21.71,7.5,6.91,11.48,6.4,5.48-9.51,4.51-11.19Z" style="fill:#263238"></path><path d="M148.69,146.16s-.36-1.28-2,3-1.28,7.47-5.59,10.34" style="fill:none;stroke:#fff;stroke-linecap:round;stroke-linejoin:round;stroke-width:0.620217px"></path><path d="M139.15,165.14s4.17-.54,5.32-3.08" style="fill:none;stroke:#fff;stroke-linecap:round;stroke-linejoin:round;stroke-width:0.620217px"></path><path d="M152,157.6s-3.33-4.79-4.74.51,3.29,7.62,5.21,7.06a2.68,2.68,0,0,0,1.79-2.71" style="fill:#fff;stroke:#263238;stroke-linecap:round;stroke-linejoin:round;stroke-width:0.8269559999999999px"></path><path d="M168.61,163.28s-3.93,1.44-4.66.18" style="fill:#fff;stroke:#263238;stroke-linecap:round;stroke-linejoin:round;stroke-width:0.8269559999999999px"></path><path d="M157.7,148.32s.88-3.31,3.23-2.15" style="fill:#fff;stroke:#263238;stroke-linecap:round;stroke-linejoin:round;stroke-width:0.8269559999999999px"></path><path d="M152.5,165.17s2.83,4,6,5.58" style="fill:none;stroke:#263238;stroke-linecap:round;stroke-linejoin:round;stroke-width:0.620217px"></path><path d="M162.07,151c.33.79.32,1.55,0,1.7s-.89-.39-1.22-1.18-.32-1.56,0-1.7S161.74,150.21,162.07,151Z" style="fill:#263238"></path><path d="M144.88,177.23l15.91,10s12,27.85,21.69,48.75,11.83,28.7,11.83,28.7a139.9,139.9,0,0,1-23,6.29,154,154,0,0,1-23.77,2.1s-10.55-51.8-11.8-66.62S144.88,177.23,144.88,177.23Z" style="fill:#C53F3F;stroke:#263238;stroke-linecap:round;stroke-linejoin:round;stroke-width:0.8269559999999999px"></path><path d="M141.54,182.53s13.51,11.47,14.93,12.28,4.32-7.56,4.32-7.56-13.85-9.79-15.91-10S141.54,182.53,141.54,182.53Z" style="fill:#C53F3F;stroke:#263238;stroke-linecap:round;stroke-linejoin:round;stroke-width:0.8269559999999999px"></path><line x1="168.73" y1="206.07" x2="163.75" y2="207.43" style="fill:none;stroke:#263238;stroke-linecap:round;stroke-linejoin:round;stroke-width:0.620217px"></line><line x1="171.68" y1="211.97" x2="166.7" y2="213.33" style="fill:none;stroke:#263238;stroke-linecap:round;stroke-linejoin:round;stroke-width:0.620217px"></line><path d="M148.12,268a121.56,121.56,0,0,0,19-1.51l9.6-1.62" style="fill:none;stroke:#263238;stroke-linecap:round;stroke-linejoin:round;stroke-width:0.620217px"></path><line x1="180.49" y1="263.83" x2="188.81" y2="260.62" style="fill:none;stroke:#263238;stroke-linecap:round;stroke-linejoin:round;stroke-width:0.620217px"></line><line x1="179.91" y1="237.19" x2="187.26" y2="254.28" style="fill:none;stroke:#263238;stroke-linecap:round;stroke-linejoin:round;stroke-width:0.620217px"></line><line x1="143.03" y1="224.81" x2="150.27" y2="226.41" style="fill:none;stroke:#263238;stroke-linecap:round;stroke-linejoin:round;stroke-width:0.620217px"></line><path d="M143.57,231.7s6-1.3,7.77-3.46" style="fill:none;stroke:#263238;stroke-linecap:round;stroke-linejoin:round;stroke-width:0.620217px"></path><path d="M145.15,199.45s-.17-8,1.64-11.17" style="fill:none;stroke:#263238;stroke-linecap:round;stroke-linejoin:round;stroke-width:0.620217px"></path><line x1="149.57" y1="189.87" x2="147.62" y2="193.75" style="fill:none;stroke:#263238;stroke-linecap:round;stroke-linejoin:round;stroke-width:0.620217px"></line><rect x="180.58" y="143.57" width="96" height="118" transform="translate(-13.33 16.12) rotate(-3.92)" style="fill:#fff"></rect><g style="clip-path:url(#freepik--clip-path--inject-4)"><g style="clip-path:url(#freepik--clip-path-2--inject-4)"><rect x="268.71" y="133.06" width="20.03" height="18.41" style="fill:none"></rect><path d="M277.15,146.6a1.91,1.91,0,0,0-3.63-.83,1.91,1.91,0,0,0-3.63.83c0,1.21,1.35,2.35,2.28,3a8.12,8.12,0,0,1,1.43,1.13,5.23,5.23,0,0,1,1.51-1.28A3.77,3.77,0,0,0,277.15,146.6Z" style="fill:#C53F3F"></path><path d="M287.22,136.53a1.91,1.91,0,0,0-3.63-.83,1.91,1.91,0,0,0-3.63.83c0,1.21,1.35,2.35,2.28,3a8.12,8.12,0,0,1,1.43,1.13,5.23,5.23,0,0,1,1.51-1.28A3.77,3.77,0,0,0,287.22,136.53Z" style="fill:#C53F3F"></path><rect x="268.71" y="133.06" width="20.03" height="18.41" style="fill:none"></rect><rect x="268.71" y="151.48" width="20.03" height="18.41" style="fill:none"></rect><path d="M277.15,165a1.91,1.91,0,0,0-3.63-.83,1.91,1.91,0,0,0-3.63.83c0,1.2,1.35,2.34,2.28,2.95a8.12,8.12,0,0,1,1.43,1.13,5.23,5.23,0,0,1,1.51-1.28A3.75,3.75,0,0,0,277.15,165Z" style="fill:#C53F3F"></path><path d="M287.22,155a1.91,1.91,0,0,0-3.63-.83A1.91,1.91,0,0,0,280,155c0,1.2,1.35,2.34,2.28,3a8.12,8.12,0,0,1,1.43,1.13,5.23,5.23,0,0,1,1.51-1.28A3.75,3.75,0,0,0,287.22,155Z" style="fill:#C53F3F"></path><rect x="268.71" y="151.48" width="20.03" height="18.41" style="fill:none"></rect><rect x="268.71" y="169.89" width="20.03" height="18.41" style="fill:none"></rect><path d="M277.15,183.43a1.91,1.91,0,0,0-3.63-.83,1.91,1.91,0,0,0-3.63.83c0,1.21,1.35,2.35,2.28,3a8.12,8.12,0,0,1,1.43,1.13,5.23,5.23,0,0,1,1.51-1.28A3.77,3.77,0,0,0,277.15,183.43Z" style="fill:#C53F3F"></path><path d="M287.22,173.36a1.91,1.91,0,0,0-3.63-.83,1.91,1.91,0,0,0-3.63.83c0,1.21,1.35,2.35,2.28,3a8.12,8.12,0,0,1,1.43,1.13,5.23,5.23,0,0,1,1.51-1.28A3.77,3.77,0,0,0,287.22,173.36Z" style="fill:#C53F3F"></path><rect x="268.71" y="169.89" width="20.03" height="18.41" style="fill:none"></rect><rect x="268.71" y="188.31" width="20.03" height="18.41" style="fill:none"></rect><path d="M277.15,201.85a1.91,1.91,0,0,0-3.63-.83,1.91,1.91,0,0,0-3.63.83c0,1.2,1.35,2.34,2.28,3a8.12,8.12,0,0,1,1.43,1.13,5.23,5.23,0,0,1,1.51-1.28A3.75,3.75,0,0,0,277.15,201.85Z" style="fill:#C53F3F"></path><path d="M287.22,191.78a1.91,1.91,0,0,0-3.63-.83,1.91,1.91,0,0,0-3.63.83c0,1.2,1.35,2.34,2.28,2.95a8.12,8.12,0,0,1,1.43,1.13,5.23,5.23,0,0,1,1.51-1.28A3.75,3.75,0,0,0,287.22,191.78Z" style="fill:#C53F3F"></path><rect x="268.71" y="188.31" width="20.03" height="18.41" style="fill:none"></rect><rect x="268.71" y="206.72" width="20.03" height="18.42" style="fill:none"></rect><path d="M277.15,220.26a1.91,1.91,0,0,0-3.63-.83,1.91,1.91,0,0,0-3.63.83c0,1.21,1.35,2.35,2.28,3a8.12,8.12,0,0,1,1.43,1.13,5.23,5.23,0,0,1,1.51-1.28A3.77,3.77,0,0,0,277.15,220.26Z" style="fill:#C53F3F"></path><path d="M287.22,210.19a1.91,1.91,0,0,0-3.63-.83,1.91,1.91,0,0,0-3.63.83c0,1.21,1.35,2.35,2.28,3a8.12,8.12,0,0,1,1.43,1.13,5.23,5.23,0,0,1,1.51-1.28A3.77,3.77,0,0,0,287.22,210.19Z" style="fill:#C53F3F"></path><rect x="268.71" y="206.72" width="20.03" height="18.42" style="fill:none"></rect><rect x="268.71" y="225.14" width="20.03" height="18.41" style="fill:none"></rect><path d="M277.15,238.68a1.91,1.91,0,0,0-3.63-.83,1.91,1.91,0,0,0-3.63.83c0,1.2,1.35,2.34,2.28,2.95a8.12,8.12,0,0,1,1.43,1.13,5.23,5.23,0,0,1,1.51-1.28A3.75,3.75,0,0,0,277.15,238.68Z" style="fill:#C53F3F"></path><path d="M287.22,228.61a1.91,1.91,0,0,0-3.63-.83,1.91,1.91,0,0,0-3.63.83c0,1.2,1.35,2.34,2.28,2.95a8.12,8.12,0,0,1,1.43,1.13,5.23,5.23,0,0,1,1.51-1.28A3.75,3.75,0,0,0,287.22,228.61Z" style="fill:#C53F3F"></path><rect x="268.71" y="225.14" width="20.03" height="18.41" style="fill:none"></rect><rect x="268.71" y="243.55" width="20.03" height="18.41" style="fill:none"></rect><path d="M277.15,257.09a1.91,1.91,0,0,0-3.63-.83,1.91,1.91,0,0,0-3.63.83c0,1.21,1.35,2.35,2.28,3a8.12,8.12,0,0,1,1.43,1.13,5.23,5.23,0,0,1,1.51-1.28A3.77,3.77,0,0,0,277.15,257.09Z" style="fill:#C53F3F"></path><path d="M287.22,247a1.91,1.91,0,0,0-3.63-.83A1.91,1.91,0,0,0,280,247c0,1.21,1.35,2.35,2.28,3a8.12,8.12,0,0,1,1.43,1.13,5.23,5.23,0,0,1,1.51-1.28A3.77,3.77,0,0,0,287.22,247Z" style="fill:#C53F3F"></path><rect x="268.71" y="243.55" width="20.03" height="18.41" style="fill:none"></rect><rect x="268.71" y="261.97" width="20.03" height="18.42" style="fill:none"></rect><path d="M277.15,275.51a1.91,1.91,0,0,0-3.63-.83,1.91,1.91,0,0,0-3.63.83c0,1.2,1.35,2.34,2.28,2.95a8.12,8.12,0,0,1,1.43,1.13,5.23,5.23,0,0,1,1.51-1.28A3.75,3.75,0,0,0,277.15,275.51Z" style="fill:#C53F3F"></path><path d="M287.22,265.44a1.91,1.91,0,0,0-3.63-.83,1.91,1.91,0,0,0-3.63.83c0,1.2,1.35,2.34,2.28,2.95a8.12,8.12,0,0,1,1.43,1.13,5.23,5.23,0,0,1,1.51-1.28A3.75,3.75,0,0,0,287.22,265.44Z" style="fill:#C53F3F"></path><rect x="268.71" y="261.97" width="20.03" height="18.42" style="fill:none"></rect><rect x="248.68" y="133.06" width="20.03" height="18.41" style="fill:none"></rect><path d="M257.12,146.6a1.91,1.91,0,0,0-3.63-.83,1.91,1.91,0,0,0-3.63.83c0,1.21,1.35,2.35,2.28,3a8.12,8.12,0,0,1,1.43,1.13,5.23,5.23,0,0,1,1.51-1.28A3.77,3.77,0,0,0,257.12,146.6Z" style="fill:#C53F3F"></path><path d="M267.19,136.53a1.91,1.91,0,0,0-3.63-.83,1.91,1.91,0,0,0-3.63.83c0,1.21,1.35,2.35,2.28,3a8.12,8.12,0,0,1,1.43,1.13,5.23,5.23,0,0,1,1.51-1.28A3.77,3.77,0,0,0,267.19,136.53Z" style="fill:#C53F3F"></path><rect x="248.68" y="133.06" width="20.03" height="18.41" style="fill:none"></rect><rect x="248.68" y="151.48" width="20.03" height="18.41" style="fill:none"></rect><path d="M257.12,165a1.91,1.91,0,0,0-3.63-.83,1.91,1.91,0,0,0-3.63.83c0,1.2,1.35,2.34,2.28,2.95a8.12,8.12,0,0,1,1.43,1.13,5.23,5.23,0,0,1,1.51-1.28A3.75,3.75,0,0,0,257.12,165Z" style="fill:#C53F3F"></path><path d="M267.19,155a1.91,1.91,0,0,0-3.63-.83,1.91,1.91,0,0,0-3.63.83c0,1.2,1.35,2.34,2.28,3a8.12,8.12,0,0,1,1.43,1.13,5.23,5.23,0,0,1,1.51-1.28A3.75,3.75,0,0,0,267.19,155Z" style="fill:#C53F3F"></path><rect x="248.68" y="151.48" width="20.03" height="18.41" style="fill:none"></rect><rect x="248.68" y="169.89" width="20.03" height="18.41" style="fill:none"></rect><path d="M257.12,183.43a1.91,1.91,0,0,0-3.63-.83,1.91,1.91,0,0,0-3.63.83c0,1.21,1.35,2.35,2.28,3a8.12,8.12,0,0,1,1.43,1.13,5.23,5.23,0,0,1,1.51-1.28A3.77,3.77,0,0,0,257.12,183.43Z" style="fill:#C53F3F"></path><path d="M267.19,173.36a1.91,1.91,0,0,0-3.63-.83,1.91,1.91,0,0,0-3.63.83c0,1.21,1.35,2.35,2.28,3a8.12,8.12,0,0,1,1.43,1.13,5.23,5.23,0,0,1,1.51-1.28A3.77,3.77,0,0,0,267.19,173.36Z" style="fill:#C53F3F"></path><rect x="248.68" y="169.89" width="20.03" height="18.41" style="fill:none"></rect><rect x="248.68" y="188.31" width="20.03" height="18.41" style="fill:none"></rect><path d="M257.12,201.85a1.91,1.91,0,0,0-3.63-.83,1.91,1.91,0,0,0-3.63.83c0,1.2,1.35,2.34,2.28,3a8.12,8.12,0,0,1,1.43,1.13,5.23,5.23,0,0,1,1.51-1.28A3.75,3.75,0,0,0,257.12,201.85Z" style="fill:#C53F3F"></path><path d="M267.19,191.78a1.91,1.91,0,0,0-3.63-.83,1.91,1.91,0,0,0-3.63.83c0,1.2,1.35,2.34,2.28,2.95a8.12,8.12,0,0,1,1.43,1.13,5.23,5.23,0,0,1,1.51-1.28A3.75,3.75,0,0,0,267.19,191.78Z" style="fill:#C53F3F"></path><rect x="248.68" y="188.31" width="20.03" height="18.41" style="fill:none"></rect><rect x="248.68" y="206.72" width="20.03" height="18.42" style="fill:none"></rect><path d="M257.12,220.26a1.91,1.91,0,0,0-3.63-.83,1.91,1.91,0,0,0-3.63.83c0,1.21,1.35,2.35,2.28,3a8.12,8.12,0,0,1,1.43,1.13,5.23,5.23,0,0,1,1.51-1.28A3.77,3.77,0,0,0,257.12,220.26Z" style="fill:#C53F3F"></path><path d="M267.19,210.19a1.91,1.91,0,0,0-3.63-.83,1.91,1.91,0,0,0-3.63.83c0,1.21,1.35,2.35,2.28,3a8.12,8.12,0,0,1,1.43,1.13,5.23,5.23,0,0,1,1.51-1.28A3.77,3.77,0,0,0,267.19,210.19Z" style="fill:#C53F3F"></path><rect x="248.68" y="206.72" width="20.03" height="18.42" style="fill:none"></rect><rect x="248.68" y="225.14" width="20.03" height="18.41" style="fill:none"></rect><path d="M257.12,238.68a1.91,1.91,0,0,0-3.63-.83,1.91,1.91,0,0,0-3.63.83c0,1.2,1.35,2.34,2.28,2.95a8.12,8.12,0,0,1,1.43,1.13,5.23,5.23,0,0,1,1.51-1.28A3.75,3.75,0,0,0,257.12,238.68Z" style="fill:#C53F3F"></path><path d="M267.19,228.61a1.91,1.91,0,0,0-3.63-.83,1.91,1.91,0,0,0-3.63.83c0,1.2,1.35,2.34,2.28,2.95a8.12,8.12,0,0,1,1.43,1.13,5.23,5.23,0,0,1,1.51-1.28A3.75,3.75,0,0,0,267.19,228.61Z" style="fill:#C53F3F"></path><rect x="248.68" y="225.14" width="20.03" height="18.41" style="fill:none"></rect><rect x="248.68" y="243.55" width="20.03" height="18.41" style="fill:none"></rect><path d="M257.12,257.09a1.91,1.91,0,0,0-3.63-.83,1.91,1.91,0,0,0-3.63.83c0,1.21,1.35,2.35,2.28,3a8.12,8.12,0,0,1,1.43,1.13,5.23,5.23,0,0,1,1.51-1.28A3.77,3.77,0,0,0,257.12,257.09Z" style="fill:#C53F3F"></path><path d="M267.19,247a1.91,1.91,0,0,0-3.63-.83,1.91,1.91,0,0,0-3.63.83c0,1.21,1.35,2.35,2.28,3a8.12,8.12,0,0,1,1.43,1.13,5.23,5.23,0,0,1,1.51-1.28A3.77,3.77,0,0,0,267.19,247Z" style="fill:#C53F3F"></path><rect x="248.68" y="243.55" width="20.03" height="18.41" style="fill:none"></rect><rect x="248.68" y="261.97" width="20.03" height="18.42" style="fill:none"></rect><path d="M257.12,275.51a1.91,1.91,0,0,0-3.63-.83,1.91,1.91,0,0,0-3.63.83c0,1.2,1.35,2.34,2.28,2.95a8.12,8.12,0,0,1,1.43,1.13,5.23,5.23,0,0,1,1.51-1.28A3.75,3.75,0,0,0,257.12,275.51Z" style="fill:#C53F3F"></path><path d="M267.19,265.44a1.91,1.91,0,0,0-3.63-.83,1.91,1.91,0,0,0-3.63.83c0,1.2,1.35,2.34,2.28,2.95a8.12,8.12,0,0,1,1.43,1.13,5.23,5.23,0,0,1,1.51-1.28A3.75,3.75,0,0,0,267.19,265.44Z" style="fill:#C53F3F"></path><rect x="248.68" y="261.97" width="20.03" height="18.42" style="fill:none"></rect><rect x="228.65" y="133.06" width="20.03" height="18.41" style="fill:none"></rect><path d="M237.09,146.6a1.91,1.91,0,0,0-3.63-.83,1.91,1.91,0,0,0-3.63.83c0,1.21,1.35,2.35,2.28,3a8.12,8.12,0,0,1,1.43,1.13,5.23,5.23,0,0,1,1.51-1.28A3.77,3.77,0,0,0,237.09,146.6Z" style="fill:#C53F3F"></path><path d="M247.16,136.53a1.91,1.91,0,0,0-3.63-.83,1.91,1.91,0,0,0-3.63.83c0,1.21,1.35,2.35,2.28,3a8.12,8.12,0,0,1,1.43,1.13,5.23,5.23,0,0,1,1.51-1.28A3.77,3.77,0,0,0,247.16,136.53Z" style="fill:#C53F3F"></path><rect x="228.65" y="133.06" width="20.03" height="18.41" style="fill:none"></rect><rect x="228.65" y="151.48" width="20.03" height="18.41" style="fill:none"></rect><path d="M237.09,165a1.91,1.91,0,0,0-3.63-.83,1.91,1.91,0,0,0-3.63.83c0,1.2,1.35,2.34,2.28,2.95a8.12,8.12,0,0,1,1.43,1.13,5.23,5.23,0,0,1,1.51-1.28A3.75,3.75,0,0,0,237.09,165Z" style="fill:#C53F3F"></path><path d="M247.16,155a1.91,1.91,0,0,0-3.63-.83,1.91,1.91,0,0,0-3.63.83c0,1.2,1.35,2.34,2.28,3a8.12,8.12,0,0,1,1.43,1.13,5.23,5.23,0,0,1,1.51-1.28A3.75,3.75,0,0,0,247.16,155Z" style="fill:#C53F3F"></path><rect x="228.65" y="151.48" width="20.03" height="18.41" style="fill:none"></rect><rect x="228.65" y="169.89" width="20.03" height="18.41" style="fill:none"></rect><path d="M237.09,183.43a1.91,1.91,0,0,0-3.63-.83,1.91,1.91,0,0,0-3.63.83c0,1.21,1.35,2.35,2.28,3a8.12,8.12,0,0,1,1.43,1.13,5.23,5.23,0,0,1,1.51-1.28A3.77,3.77,0,0,0,237.09,183.43Z" style="fill:#C53F3F"></path><path d="M247.16,173.36a1.91,1.91,0,0,0-3.63-.83,1.91,1.91,0,0,0-3.63.83c0,1.21,1.35,2.35,2.28,3a8.12,8.12,0,0,1,1.43,1.13,5.23,5.23,0,0,1,1.51-1.28A3.77,3.77,0,0,0,247.16,173.36Z" style="fill:#C53F3F"></path><rect x="228.65" y="169.89" width="20.03" height="18.41" style="fill:none"></rect><rect x="228.65" y="188.31" width="20.03" height="18.41" style="fill:none"></rect><path d="M237.09,201.85a1.91,1.91,0,0,0-3.63-.83,1.91,1.91,0,0,0-3.63.83c0,1.2,1.35,2.34,2.28,3a8.12,8.12,0,0,1,1.43,1.13,5.23,5.23,0,0,1,1.51-1.28A3.75,3.75,0,0,0,237.09,201.85Z" style="fill:#C53F3F"></path><path d="M247.16,191.78a1.91,1.91,0,0,0-3.63-.83,1.91,1.91,0,0,0-3.63.83c0,1.2,1.35,2.34,2.28,2.95a8.12,8.12,0,0,1,1.43,1.13,5.23,5.23,0,0,1,1.51-1.28A3.75,3.75,0,0,0,247.16,191.78Z" style="fill:#C53F3F"></path><rect x="228.65" y="188.31" width="20.03" height="18.41" style="fill:none"></rect><rect x="228.65" y="206.72" width="20.03" height="18.42" style="fill:none"></rect><path d="M237.09,220.26a1.91,1.91,0,0,0-3.63-.83,1.91,1.91,0,0,0-3.63.83c0,1.21,1.35,2.35,2.28,3a8.12,8.12,0,0,1,1.43,1.13,5.23,5.23,0,0,1,1.51-1.28A3.77,3.77,0,0,0,237.09,220.26Z" style="fill:#C53F3F"></path><path d="M247.16,210.19a1.91,1.91,0,0,0-3.63-.83,1.91,1.91,0,0,0-3.63.83c0,1.21,1.35,2.35,2.28,3a8.12,8.12,0,0,1,1.43,1.13,5.23,5.23,0,0,1,1.51-1.28A3.77,3.77,0,0,0,247.16,210.19Z" style="fill:#C53F3F"></path><rect x="228.65" y="206.72" width="20.03" height="18.42" style="fill:none"></rect><rect x="228.65" y="225.14" width="20.03" height="18.41" style="fill:none"></rect><path d="M237.09,238.68a1.91,1.91,0,0,0-3.63-.83,1.91,1.91,0,0,0-3.63.83c0,1.2,1.35,2.34,2.28,2.95a8.12,8.12,0,0,1,1.43,1.13,5.23,5.23,0,0,1,1.51-1.28A3.75,3.75,0,0,0,237.09,238.68Z" style="fill:#C53F3F"></path><path d="M247.16,228.61a1.91,1.91,0,0,0-3.63-.83,1.91,1.91,0,0,0-3.63.83c0,1.2,1.35,2.34,2.28,2.95a8.12,8.12,0,0,1,1.43,1.13,5.23,5.23,0,0,1,1.51-1.28A3.75,3.75,0,0,0,247.16,228.61Z" style="fill:#C53F3F"></path><rect x="228.65" y="225.14" width="20.03" height="18.41" style="fill:none"></rect><rect x="228.65" y="243.55" width="20.03" height="18.41" style="fill:none"></rect><path d="M237.09,257.09a1.91,1.91,0,0,0-3.63-.83,1.91,1.91,0,0,0-3.63.83c0,1.21,1.35,2.35,2.28,3a8.12,8.12,0,0,1,1.43,1.13,5.23,5.23,0,0,1,1.51-1.28A3.77,3.77,0,0,0,237.09,257.09Z" style="fill:#C53F3F"></path><path d="M247.16,247a1.91,1.91,0,0,0-3.63-.83,1.91,1.91,0,0,0-3.63.83c0,1.21,1.35,2.35,2.28,3a8.12,8.12,0,0,1,1.43,1.13,5.23,5.23,0,0,1,1.51-1.28A3.77,3.77,0,0,0,247.16,247Z" style="fill:#C53F3F"></path><rect x="228.65" y="243.55" width="20.03" height="18.41" style="fill:none"></rect><rect x="228.65" y="261.97" width="20.03" height="18.42" style="fill:none"></rect><path d="M237.09,275.51a1.91,1.91,0,0,0-3.63-.83,1.91,1.91,0,0,0-3.63.83c0,1.2,1.35,2.34,2.28,2.95a8.12,8.12,0,0,1,1.43,1.13,5.23,5.23,0,0,1,1.51-1.28A3.75,3.75,0,0,0,237.09,275.51Z" style="fill:#C53F3F"></path><path d="M247.16,265.44a1.91,1.91,0,0,0-3.63-.83,1.91,1.91,0,0,0-3.63.83c0,1.2,1.35,2.34,2.28,2.95a8.12,8.12,0,0,1,1.43,1.13,5.23,5.23,0,0,1,1.51-1.28A3.75,3.75,0,0,0,247.16,265.44Z" style="fill:#C53F3F"></path><rect x="228.65" y="261.97" width="20.03" height="18.42" style="fill:none"></rect><rect x="208.62" y="133.06" width="20.03" height="18.41" style="fill:none"></rect><path d="M217.06,146.6a1.91,1.91,0,0,0-3.63-.83,1.91,1.91,0,0,0-3.63.83c0,1.21,1.35,2.35,2.28,3a8.12,8.12,0,0,1,1.43,1.13,5.23,5.23,0,0,1,1.51-1.28A3.77,3.77,0,0,0,217.06,146.6Z" style="fill:#C53F3F"></path><path d="M227.13,136.53a1.91,1.91,0,0,0-3.63-.83,1.91,1.91,0,0,0-3.63.83c0,1.21,1.35,2.35,2.28,3a8.12,8.12,0,0,1,1.43,1.13,5.23,5.23,0,0,1,1.51-1.28A3.77,3.77,0,0,0,227.13,136.53Z" style="fill:#C53F3F"></path><rect x="208.62" y="133.06" width="20.03" height="18.41" style="fill:none"></rect><rect x="208.62" y="151.48" width="20.03" height="18.41" style="fill:none"></rect><path d="M217.06,165a1.91,1.91,0,0,0-3.63-.83,1.91,1.91,0,0,0-3.63.83c0,1.2,1.35,2.34,2.28,2.95a8.12,8.12,0,0,1,1.43,1.13,5.23,5.23,0,0,1,1.51-1.28A3.75,3.75,0,0,0,217.06,165Z" style="fill:#C53F3F"></path><path d="M227.13,155a1.91,1.91,0,0,0-3.63-.83,1.91,1.91,0,0,0-3.63.83c0,1.2,1.35,2.34,2.28,3a8.12,8.12,0,0,1,1.43,1.13,5.23,5.23,0,0,1,1.51-1.28A3.75,3.75,0,0,0,227.13,155Z" style="fill:#C53F3F"></path><rect x="208.62" y="151.48" width="20.03" height="18.41" style="fill:none"></rect><rect x="208.62" y="169.89" width="20.03" height="18.41" style="fill:none"></rect><path d="M217.06,183.43a1.91,1.91,0,0,0-3.63-.83,1.91,1.91,0,0,0-3.63.83c0,1.21,1.35,2.35,2.28,3a8.12,8.12,0,0,1,1.43,1.13,5.23,5.23,0,0,1,1.51-1.28A3.77,3.77,0,0,0,217.06,183.43Z" style="fill:#C53F3F"></path><path d="M227.13,173.36a1.91,1.91,0,0,0-3.63-.83,1.91,1.91,0,0,0-3.63.83c0,1.21,1.35,2.35,2.28,3a8.12,8.12,0,0,1,1.43,1.13,5.23,5.23,0,0,1,1.51-1.28A3.77,3.77,0,0,0,227.13,173.36Z" style="fill:#C53F3F"></path><rect x="208.62" y="169.89" width="20.03" height="18.41" style="fill:none"></rect><rect x="208.62" y="188.31" width="20.03" height="18.41" style="fill:none"></rect><path d="M217.06,201.85a1.91,1.91,0,0,0-3.63-.83,1.91,1.91,0,0,0-3.63.83c0,1.2,1.35,2.34,2.28,3a8.12,8.12,0,0,1,1.43,1.13,5.23,5.23,0,0,1,1.51-1.28A3.75,3.75,0,0,0,217.06,201.85Z" style="fill:#C53F3F"></path><path d="M227.13,191.78a1.91,1.91,0,0,0-3.63-.83,1.91,1.91,0,0,0-3.63.83c0,1.2,1.35,2.34,2.28,2.95a8.12,8.12,0,0,1,1.43,1.13,5.23,5.23,0,0,1,1.51-1.28A3.75,3.75,0,0,0,227.13,191.78Z" style="fill:#C53F3F"></path><rect x="208.62" y="188.31" width="20.03" height="18.41" style="fill:none"></rect><rect x="208.62" y="206.72" width="20.03" height="18.42" style="fill:none"></rect><path d="M217.06,220.26a1.91,1.91,0,0,0-3.63-.83,1.91,1.91,0,0,0-3.63.83c0,1.21,1.35,2.35,2.28,3a8.12,8.12,0,0,1,1.43,1.13,5.23,5.23,0,0,1,1.51-1.28A3.77,3.77,0,0,0,217.06,220.26Z" style="fill:#C53F3F"></path><path d="M227.13,210.19a1.91,1.91,0,0,0-3.63-.83,1.91,1.91,0,0,0-3.63.83c0,1.21,1.35,2.35,2.28,3a8.12,8.12,0,0,1,1.43,1.13,5.23,5.23,0,0,1,1.51-1.28A3.77,3.77,0,0,0,227.13,210.19Z" style="fill:#C53F3F"></path><rect x="208.62" y="206.72" width="20.03" height="18.42" style="fill:none"></rect><rect x="208.62" y="225.14" width="20.03" height="18.41" style="fill:none"></rect><path d="M217.06,238.68a1.91,1.91,0,0,0-3.63-.83,1.91,1.91,0,0,0-3.63.83c0,1.2,1.35,2.34,2.28,2.95a8.12,8.12,0,0,1,1.43,1.13,5.23,5.23,0,0,1,1.51-1.28A3.75,3.75,0,0,0,217.06,238.68Z" style="fill:#C53F3F"></path><path d="M227.13,228.61a1.91,1.91,0,0,0-3.63-.83,1.91,1.91,0,0,0-3.63.83c0,1.2,1.35,2.34,2.28,2.95a8.12,8.12,0,0,1,1.43,1.13,5.23,5.23,0,0,1,1.51-1.28A3.75,3.75,0,0,0,227.13,228.61Z" style="fill:#C53F3F"></path><rect x="208.62" y="225.14" width="20.03" height="18.41" style="fill:none"></rect><rect x="208.62" y="243.55" width="20.03" height="18.41" style="fill:none"></rect><path d="M217.06,257.09a1.91,1.91,0,0,0-3.63-.83,1.91,1.91,0,0,0-3.63.83c0,1.21,1.35,2.35,2.28,3a8.12,8.12,0,0,1,1.43,1.13A5.23,5.23,0,0,1,215,259.9,3.77,3.77,0,0,0,217.06,257.09Z" style="fill:#C53F3F"></path><path d="M227.13,247a1.91,1.91,0,0,0-3.63-.83,1.91,1.91,0,0,0-3.63.83c0,1.21,1.35,2.35,2.28,3a8.12,8.12,0,0,1,1.43,1.13,5.23,5.23,0,0,1,1.51-1.28A3.77,3.77,0,0,0,227.13,247Z" style="fill:#C53F3F"></path><rect x="208.62" y="243.55" width="20.03" height="18.41" style="fill:none"></rect><rect x="208.62" y="261.97" width="20.03" height="18.42" style="fill:none"></rect><path d="M217.06,275.51a1.91,1.91,0,0,0-3.63-.83,1.91,1.91,0,0,0-3.63.83c0,1.2,1.35,2.34,2.28,2.95a8.12,8.12,0,0,1,1.43,1.13,5.23,5.23,0,0,1,1.51-1.28A3.75,3.75,0,0,0,217.06,275.51Z" style="fill:#C53F3F"></path><path d="M227.13,265.44a1.91,1.91,0,0,0-3.63-.83,1.91,1.91,0,0,0-3.63.83c0,1.2,1.35,2.34,2.28,2.95a8.12,8.12,0,0,1,1.43,1.13,5.23,5.23,0,0,1,1.51-1.28A3.75,3.75,0,0,0,227.13,265.44Z" style="fill:#C53F3F"></path><rect x="208.62" y="261.97" width="20.03" height="18.42" style="fill:none"></rect><rect x="188.59" y="133.06" width="20.03" height="18.41" style="fill:none"></rect><path d="M197,146.6a1.91,1.91,0,0,0-3.63-.83,1.91,1.91,0,0,0-3.63.83c0,1.21,1.35,2.35,2.28,3a8.12,8.12,0,0,1,1.43,1.13,5.23,5.23,0,0,1,1.51-1.28A3.77,3.77,0,0,0,197,146.6Z" style="fill:#C53F3F"></path><path d="M207.1,136.53a1.91,1.91,0,0,0-3.63-.83,1.91,1.91,0,0,0-3.63.83c0,1.21,1.35,2.35,2.28,3a8.12,8.12,0,0,1,1.43,1.13,5.23,5.23,0,0,1,1.51-1.28A3.79,3.79,0,0,0,207.1,136.53Z" style="fill:#C53F3F"></path><rect x="188.59" y="133.06" width="20.03" height="18.41" style="fill:none"></rect><rect x="188.59" y="151.48" width="20.03" height="18.41" style="fill:none"></rect><path d="M197,165a1.91,1.91,0,0,0-3.63-.83,1.91,1.91,0,0,0-3.63.83c0,1.2,1.35,2.34,2.28,2.95a8.12,8.12,0,0,1,1.43,1.13,5.23,5.23,0,0,1,1.51-1.28A3.75,3.75,0,0,0,197,165Z" style="fill:#C53F3F"></path><path d="M207.1,155a1.91,1.91,0,0,0-3.63-.83,1.91,1.91,0,0,0-3.63.83c0,1.2,1.35,2.34,2.28,3a8.12,8.12,0,0,1,1.43,1.13,5.23,5.23,0,0,1,1.51-1.28A3.77,3.77,0,0,0,207.1,155Z" style="fill:#C53F3F"></path><rect x="188.59" y="151.48" width="20.03" height="18.41" style="fill:none"></rect><rect x="188.59" y="169.89" width="20.03" height="18.41" style="fill:none"></rect><path d="M197,183.43a1.91,1.91,0,0,0-3.63-.83,1.91,1.91,0,0,0-3.63.83c0,1.21,1.35,2.35,2.28,3a8.12,8.12,0,0,1,1.43,1.13,5.23,5.23,0,0,1,1.51-1.28A3.77,3.77,0,0,0,197,183.43Z" style="fill:#C53F3F"></path><path d="M207.1,173.36a1.91,1.91,0,0,0-3.63-.83,1.91,1.91,0,0,0-3.63.83c0,1.21,1.35,2.35,2.28,3a8.12,8.12,0,0,1,1.43,1.13,5.23,5.23,0,0,1,1.51-1.28A3.79,3.79,0,0,0,207.1,173.36Z" style="fill:#C53F3F"></path><rect x="188.59" y="169.89" width="20.03" height="18.41" style="fill:none"></rect><rect x="188.59" y="188.31" width="20.03" height="18.41" style="fill:none"></rect><path d="M197,201.85a1.91,1.91,0,0,0-3.63-.83,1.91,1.91,0,0,0-3.63.83c0,1.2,1.35,2.34,2.28,3a8.12,8.12,0,0,1,1.43,1.13,5.23,5.23,0,0,1,1.51-1.28A3.75,3.75,0,0,0,197,201.85Z" style="fill:#C53F3F"></path><path d="M207.1,191.78a1.91,1.91,0,0,0-3.63-.83,1.91,1.91,0,0,0-3.63.83c0,1.2,1.35,2.34,2.28,2.95a8.12,8.12,0,0,1,1.43,1.13,5.23,5.23,0,0,1,1.51-1.28A3.77,3.77,0,0,0,207.1,191.78Z" style="fill:#C53F3F"></path><rect x="188.59" y="188.31" width="20.03" height="18.41" style="fill:none"></rect><rect x="188.59" y="206.72" width="20.03" height="18.42" style="fill:none"></rect><path d="M197,220.26a1.91,1.91,0,0,0-3.63-.83,1.91,1.91,0,0,0-3.63.83c0,1.21,1.35,2.35,2.28,3a8.12,8.12,0,0,1,1.43,1.13,5.23,5.23,0,0,1,1.51-1.28A3.77,3.77,0,0,0,197,220.26Z" style="fill:#C53F3F"></path><path d="M207.1,210.19a1.91,1.91,0,0,0-3.63-.83,1.91,1.91,0,0,0-3.63.83c0,1.21,1.35,2.35,2.28,3a8.12,8.12,0,0,1,1.43,1.13,5.23,5.23,0,0,1,1.51-1.28A3.79,3.79,0,0,0,207.1,210.19Z" style="fill:#C53F3F"></path><rect x="188.59" y="206.72" width="20.03" height="18.42" style="fill:none"></rect><rect x="188.59" y="225.14" width="20.03" height="18.41" style="fill:none"></rect><path d="M197,238.68a1.91,1.91,0,0,0-3.63-.83,1.91,1.91,0,0,0-3.63.83c0,1.2,1.35,2.34,2.28,2.95a8.12,8.12,0,0,1,1.43,1.13,5.23,5.23,0,0,1,1.51-1.28A3.75,3.75,0,0,0,197,238.68Z" style="fill:#C53F3F"></path><path d="M207.1,228.61a1.91,1.91,0,0,0-3.63-.83,1.91,1.91,0,0,0-3.63.83c0,1.2,1.35,2.34,2.28,2.95a8.12,8.12,0,0,1,1.43,1.13,5.23,5.23,0,0,1,1.51-1.28A3.77,3.77,0,0,0,207.1,228.61Z" style="fill:#C53F3F"></path><rect x="188.59" y="225.14" width="20.03" height="18.41" style="fill:none"></rect><rect x="188.59" y="243.55" width="20.03" height="18.41" style="fill:none"></rect><path d="M197,257.09a1.91,1.91,0,0,0-3.63-.83,1.91,1.91,0,0,0-3.63.83c0,1.21,1.35,2.35,2.28,3a8.12,8.12,0,0,1,1.43,1.13A5.23,5.23,0,0,1,195,259.9,3.77,3.77,0,0,0,197,257.09Z" style="fill:#C53F3F"></path><path d="M207.1,247a1.91,1.91,0,0,0-3.63-.83,1.91,1.91,0,0,0-3.63.83c0,1.21,1.35,2.35,2.28,3a8.12,8.12,0,0,1,1.43,1.13,5.23,5.23,0,0,1,1.51-1.28A3.79,3.79,0,0,0,207.1,247Z" style="fill:#C53F3F"></path><rect x="188.59" y="243.55" width="20.03" height="18.41" style="fill:none"></rect><rect x="188.59" y="261.97" width="20.03" height="18.42" style="fill:none"></rect><path d="M197,275.51a1.91,1.91,0,0,0-3.63-.83,1.91,1.91,0,0,0-3.63.83c0,1.2,1.35,2.34,2.28,2.95a8.12,8.12,0,0,1,1.43,1.13,5.23,5.23,0,0,1,1.51-1.28A3.75,3.75,0,0,0,197,275.51Z" style="fill:#C53F3F"></path><path d="M207.1,265.44a1.91,1.91,0,0,0-3.63-.83,1.91,1.91,0,0,0-3.63.83c0,1.2,1.35,2.34,2.28,2.95a8.12,8.12,0,0,1,1.43,1.13,5.23,5.23,0,0,1,1.51-1.28A3.77,3.77,0,0,0,207.1,265.44Z" style="fill:#C53F3F"></path><rect x="188.59" y="261.97" width="20.03" height="18.42" style="fill:none"></rect><rect x="168.56" y="133.06" width="20.03" height="18.41" style="fill:none"></rect><path d="M177,146.6a1.91,1.91,0,0,0-3.63-.83,1.91,1.91,0,0,0-3.63.83c0,1.21,1.35,2.35,2.28,3a8.12,8.12,0,0,1,1.43,1.13,5.23,5.23,0,0,1,1.51-1.28A3.79,3.79,0,0,0,177,146.6Z" style="fill:#C53F3F"></path><path d="M187.07,136.53a1.91,1.91,0,0,0-3.63-.83,1.91,1.91,0,0,0-3.63.83c0,1.21,1.35,2.35,2.28,3a8.12,8.12,0,0,1,1.43,1.13,5.23,5.23,0,0,1,1.51-1.28A3.79,3.79,0,0,0,187.07,136.53Z" style="fill:#C53F3F"></path><rect x="168.56" y="133.06" width="20.03" height="18.41" style="fill:none"></rect><rect x="168.56" y="151.48" width="20.03" height="18.41" style="fill:none"></rect><path d="M177,165a1.91,1.91,0,0,0-3.63-.83,1.91,1.91,0,0,0-3.63.83c0,1.2,1.35,2.34,2.28,2.95a8.12,8.12,0,0,1,1.43,1.13,5.23,5.23,0,0,1,1.51-1.28A3.77,3.77,0,0,0,177,165Z" style="fill:#C53F3F"></path><path d="M187.07,155a1.91,1.91,0,0,0-3.63-.83,1.91,1.91,0,0,0-3.63.83c0,1.2,1.35,2.34,2.28,3a8.12,8.12,0,0,1,1.43,1.13,5.23,5.23,0,0,1,1.51-1.28A3.77,3.77,0,0,0,187.07,155Z" style="fill:#C53F3F"></path><rect x="168.56" y="151.48" width="20.03" height="18.41" style="fill:none"></rect><rect x="168.56" y="169.89" width="20.03" height="18.41" style="fill:none"></rect><path d="M177,183.43a1.91,1.91,0,0,0-3.63-.83,1.91,1.91,0,0,0-3.63.83c0,1.21,1.35,2.35,2.28,3a8.12,8.12,0,0,1,1.43,1.13,5.23,5.23,0,0,1,1.51-1.28A3.79,3.79,0,0,0,177,183.43Z" style="fill:#C53F3F"></path><path d="M187.07,173.36a1.91,1.91,0,0,0-3.63-.83,1.91,1.91,0,0,0-3.63.83c0,1.21,1.35,2.35,2.28,3a8.12,8.12,0,0,1,1.43,1.13,5.23,5.23,0,0,1,1.51-1.28A3.79,3.79,0,0,0,187.07,173.36Z" style="fill:#C53F3F"></path><rect x="168.56" y="169.89" width="20.03" height="18.41" style="fill:none"></rect><rect x="168.56" y="188.31" width="20.03" height="18.41" style="fill:none"></rect><path d="M177,201.85a1.91,1.91,0,0,0-3.63-.83,1.91,1.91,0,0,0-3.63.83c0,1.2,1.35,2.34,2.28,3a8.12,8.12,0,0,1,1.43,1.13,5.23,5.23,0,0,1,1.51-1.28A3.77,3.77,0,0,0,177,201.85Z" style="fill:#C53F3F"></path><path d="M187.07,191.78a1.91,1.91,0,0,0-3.63-.83,1.91,1.91,0,0,0-3.63.83c0,1.2,1.35,2.34,2.28,2.95a8.12,8.12,0,0,1,1.43,1.13,5.23,5.23,0,0,1,1.51-1.28A3.77,3.77,0,0,0,187.07,191.78Z" style="fill:#C53F3F"></path><rect x="168.56" y="188.31" width="20.03" height="18.41" style="fill:none"></rect><rect x="168.56" y="206.72" width="20.03" height="18.42" style="fill:none"></rect><path d="M177,220.26a1.91,1.91,0,0,0-3.63-.83,1.91,1.91,0,0,0-3.63.83c0,1.21,1.35,2.35,2.28,3a8.12,8.12,0,0,1,1.43,1.13,5.23,5.23,0,0,1,1.51-1.28A3.79,3.79,0,0,0,177,220.26Z" style="fill:#C53F3F"></path><path d="M187.07,210.19a1.91,1.91,0,0,0-3.63-.83,1.91,1.91,0,0,0-3.63.83c0,1.21,1.35,2.35,2.28,3a8.12,8.12,0,0,1,1.43,1.13A5.23,5.23,0,0,1,185,213,3.79,3.79,0,0,0,187.07,210.19Z" style="fill:#C53F3F"></path><rect x="168.56" y="206.72" width="20.03" height="18.42" style="fill:none"></rect><rect x="168.56" y="225.14" width="20.03" height="18.41" style="fill:none"></rect><path d="M177,238.68a1.91,1.91,0,0,0-3.63-.83,1.91,1.91,0,0,0-3.63.83c0,1.2,1.35,2.34,2.28,2.95a8.12,8.12,0,0,1,1.43,1.13,5.23,5.23,0,0,1,1.51-1.28A3.77,3.77,0,0,0,177,238.68Z" style="fill:#C53F3F"></path><path d="M187.07,228.61a1.91,1.91,0,0,0-3.63-.83,1.91,1.91,0,0,0-3.63.83c0,1.2,1.35,2.34,2.28,2.95a8.12,8.12,0,0,1,1.43,1.13,5.23,5.23,0,0,1,1.51-1.28A3.77,3.77,0,0,0,187.07,228.61Z" style="fill:#C53F3F"></path><rect x="168.56" y="225.14" width="20.03" height="18.41" style="fill:none"></rect><rect x="168.56" y="243.55" width="20.03" height="18.41" style="fill:none"></rect><path d="M177,257.09a1.91,1.91,0,0,0-3.63-.83,1.91,1.91,0,0,0-3.63.83c0,1.21,1.35,2.35,2.28,3a8.12,8.12,0,0,1,1.43,1.13A5.23,5.23,0,0,1,175,259.9,3.79,3.79,0,0,0,177,257.09Z" style="fill:#C53F3F"></path><path d="M187.07,247a1.91,1.91,0,0,0-3.63-.83,1.91,1.91,0,0,0-3.63.83c0,1.21,1.35,2.35,2.28,3a8.12,8.12,0,0,1,1.43,1.13,5.23,5.23,0,0,1,1.51-1.28A3.79,3.79,0,0,0,187.07,247Z" style="fill:#C53F3F"></path><rect x="168.56" y="243.55" width="20.03" height="18.41" style="fill:none"></rect><rect x="168.56" y="261.97" width="20.03" height="18.42" style="fill:none"></rect><path d="M177,275.51a1.91,1.91,0,0,0-3.63-.83,1.91,1.91,0,0,0-3.63.83c0,1.2,1.35,2.34,2.28,2.95a8.12,8.12,0,0,1,1.43,1.13,5.23,5.23,0,0,1,1.51-1.28A3.77,3.77,0,0,0,177,275.51Z" style="fill:#C53F3F"></path><path d="M187.07,265.44a1.91,1.91,0,0,0-3.63-.83,1.91,1.91,0,0,0-3.63.83c0,1.2,1.35,2.34,2.28,2.95a8.12,8.12,0,0,1,1.43,1.13,5.23,5.23,0,0,1,1.51-1.28A3.77,3.77,0,0,0,187.07,265.44Z" style="fill:#C53F3F"></path><rect x="168.56" y="261.97" width="20.03" height="18.42" style="fill:none"></rect></g></g><rect x="180.58" y="143.57" width="96" height="118" transform="translate(-13.33 16.12) rotate(-3.92)" style="fill:none;stroke:#263238;stroke-linecap:round;stroke-linejoin:round;stroke-width:0.8269559999999999px"></rect><rect x="177.14" y="143.68" width="96" height="17.22" transform="translate(-9.89 15.76) rotate(-3.92)" style="fill:#263238;stroke:#263238;stroke-linecap:round;stroke-linejoin:round;stroke-width:0.8269559999999999px"></rect><rect x="172.04" y="135.03" width="105.33" height="22" transform="translate(-9.47 15.72) rotate(-3.92)" style="fill:#fff"></rect><g style="clip-path:url(#freepik--clip-path-3--inject-4)"><g style="clip-path:url(#freepik--clip-path-4--inject-4)"><rect x="268.71" y="114.65" width="20.03" height="18.41" style="fill:none"></rect><path d="M277.15,128.19a1.91,1.91,0,0,0-3.63-.83,1.91,1.91,0,0,0-3.63.83c0,1.2,1.35,2.34,2.28,2.95a8.12,8.12,0,0,1,1.43,1.13,5.23,5.23,0,0,1,1.51-1.28A3.77,3.77,0,0,0,277.15,128.19Z" style="fill:#C53F3F"></path><path d="M287.22,118.12a1.91,1.91,0,0,0-3.63-.83,1.91,1.91,0,0,0-3.63.83c0,1.2,1.35,2.34,2.28,2.95a8.12,8.12,0,0,1,1.43,1.13,5.23,5.23,0,0,1,1.51-1.28A3.75,3.75,0,0,0,287.22,118.12Z" style="fill:#C53F3F"></path><rect x="268.71" y="114.65" width="20.03" height="18.41" style="fill:none"></rect><rect x="268.71" y="133.06" width="20.03" height="18.41" style="fill:none"></rect><path d="M277.15,146.6a1.91,1.91,0,0,0-3.63-.83,1.91,1.91,0,0,0-3.63.83c0,1.21,1.35,2.35,2.28,3a8.12,8.12,0,0,1,1.43,1.13,5.23,5.23,0,0,1,1.51-1.28A3.77,3.77,0,0,0,277.15,146.6Z" style="fill:#C53F3F"></path><path d="M287.22,136.53a1.91,1.91,0,0,0-3.63-.83,1.91,1.91,0,0,0-3.63.83c0,1.21,1.35,2.35,2.28,3a8.12,8.12,0,0,1,1.43,1.13,5.23,5.23,0,0,1,1.51-1.28A3.77,3.77,0,0,0,287.22,136.53Z" style="fill:#C53F3F"></path><rect x="268.71" y="133.06" width="20.03" height="18.41" style="fill:none"></rect><rect x="268.71" y="151.48" width="20.03" height="18.41" style="fill:none"></rect><path d="M277.15,165a1.91,1.91,0,0,0-3.63-.83,1.91,1.91,0,0,0-3.63.83c0,1.2,1.35,2.34,2.28,2.95a8.12,8.12,0,0,1,1.43,1.13,5.23,5.23,0,0,1,1.51-1.28A3.75,3.75,0,0,0,277.15,165Z" style="fill:#C53F3F"></path><path d="M287.22,155a1.91,1.91,0,0,0-3.63-.83A1.91,1.91,0,0,0,280,155c0,1.2,1.35,2.34,2.28,3a8.12,8.12,0,0,1,1.43,1.13,5.23,5.23,0,0,1,1.51-1.28A3.75,3.75,0,0,0,287.22,155Z" style="fill:#C53F3F"></path><rect x="268.71" y="151.48" width="20.03" height="18.41" style="fill:none"></rect><rect x="248.68" y="114.65" width="20.03" height="18.41" style="fill:none"></rect><path d="M257.12,128.19a1.91,1.91,0,0,0-3.63-.83,1.91,1.91,0,0,0-3.63.83c0,1.2,1.35,2.34,2.28,2.95a8.12,8.12,0,0,1,1.43,1.13,5.23,5.23,0,0,1,1.51-1.28A3.77,3.77,0,0,0,257.12,128.19Z" style="fill:#C53F3F"></path><path d="M267.19,118.12a1.91,1.91,0,0,0-3.63-.83,1.91,1.91,0,0,0-3.63.83c0,1.2,1.35,2.34,2.28,2.95a8.12,8.12,0,0,1,1.43,1.13,5.23,5.23,0,0,1,1.51-1.28A3.75,3.75,0,0,0,267.19,118.12Z" style="fill:#C53F3F"></path><rect x="248.68" y="114.65" width="20.03" height="18.41" style="fill:none"></rect><rect x="248.68" y="133.06" width="20.03" height="18.41" style="fill:none"></rect><path d="M257.12,146.6a1.91,1.91,0,0,0-3.63-.83,1.91,1.91,0,0,0-3.63.83c0,1.21,1.35,2.35,2.28,3a8.12,8.12,0,0,1,1.43,1.13,5.23,5.23,0,0,1,1.51-1.28A3.77,3.77,0,0,0,257.12,146.6Z" style="fill:#C53F3F"></path><path d="M267.19,136.53a1.91,1.91,0,0,0-3.63-.83,1.91,1.91,0,0,0-3.63.83c0,1.21,1.35,2.35,2.28,3a8.12,8.12,0,0,1,1.43,1.13,5.23,5.23,0,0,1,1.51-1.28A3.77,3.77,0,0,0,267.19,136.53Z" style="fill:#C53F3F"></path><rect x="248.68" y="133.06" width="20.03" height="18.41" style="fill:none"></rect><rect x="248.68" y="151.48" width="20.03" height="18.41" style="fill:none"></rect><path d="M257.12,165a1.91,1.91,0,0,0-3.63-.83,1.91,1.91,0,0,0-3.63.83c0,1.2,1.35,2.34,2.28,2.95a8.12,8.12,0,0,1,1.43,1.13,5.23,5.23,0,0,1,1.51-1.28A3.75,3.75,0,0,0,257.12,165Z" style="fill:#C53F3F"></path><path d="M267.19,155a1.91,1.91,0,0,0-3.63-.83,1.91,1.91,0,0,0-3.63.83c0,1.2,1.35,2.34,2.28,3a8.12,8.12,0,0,1,1.43,1.13,5.23,5.23,0,0,1,1.51-1.28A3.75,3.75,0,0,0,267.19,155Z" style="fill:#C53F3F"></path><rect x="248.68" y="151.48" width="20.03" height="18.41" style="fill:none"></rect><rect x="228.65" y="114.65" width="20.03" height="18.41" style="fill:none"></rect><path d="M237.09,128.19a1.91,1.91,0,0,0-3.63-.83,1.91,1.91,0,0,0-3.63.83c0,1.2,1.35,2.34,2.28,2.95a8.12,8.12,0,0,1,1.43,1.13,5.23,5.23,0,0,1,1.51-1.28A3.77,3.77,0,0,0,237.09,128.19Z" style="fill:#C53F3F"></path><path d="M247.16,118.12a1.91,1.91,0,0,0-3.63-.83,1.91,1.91,0,0,0-3.63.83c0,1.2,1.35,2.34,2.28,2.95a8.12,8.12,0,0,1,1.43,1.13,5.23,5.23,0,0,1,1.51-1.28A3.75,3.75,0,0,0,247.16,118.12Z" style="fill:#C53F3F"></path><rect x="228.65" y="114.65" width="20.03" height="18.41" style="fill:none"></rect><rect x="228.65" y="133.06" width="20.03" height="18.41" style="fill:none"></rect><path d="M237.09,146.6a1.91,1.91,0,0,0-3.63-.83,1.91,1.91,0,0,0-3.63.83c0,1.21,1.35,2.35,2.28,3a8.12,8.12,0,0,1,1.43,1.13,5.23,5.23,0,0,1,1.51-1.28A3.77,3.77,0,0,0,237.09,146.6Z" style="fill:#C53F3F"></path><path d="M247.16,136.53a1.91,1.91,0,0,0-3.63-.83,1.91,1.91,0,0,0-3.63.83c0,1.21,1.35,2.35,2.28,3a8.12,8.12,0,0,1,1.43,1.13,5.23,5.23,0,0,1,1.51-1.28A3.77,3.77,0,0,0,247.16,136.53Z" style="fill:#C53F3F"></path><rect x="228.65" y="133.06" width="20.03" height="18.41" style="fill:none"></rect><rect x="228.65" y="151.48" width="20.03" height="18.41" style="fill:none"></rect><path d="M237.09,165a1.91,1.91,0,0,0-3.63-.83,1.91,1.91,0,0,0-3.63.83c0,1.2,1.35,2.34,2.28,2.95a8.12,8.12,0,0,1,1.43,1.13,5.23,5.23,0,0,1,1.51-1.28A3.75,3.75,0,0,0,237.09,165Z" style="fill:#C53F3F"></path><path d="M247.16,155a1.91,1.91,0,0,0-3.63-.83,1.91,1.91,0,0,0-3.63.83c0,1.2,1.35,2.34,2.28,3a8.12,8.12,0,0,1,1.43,1.13,5.23,5.23,0,0,1,1.51-1.28A3.75,3.75,0,0,0,247.16,155Z" style="fill:#C53F3F"></path><rect x="228.65" y="151.48" width="20.03" height="18.41" style="fill:none"></rect><rect x="208.62" y="114.65" width="20.03" height="18.41" style="fill:none"></rect><path d="M217.06,128.19a1.91,1.91,0,0,0-3.63-.83,1.91,1.91,0,0,0-3.63.83c0,1.2,1.35,2.34,2.28,2.95a8.12,8.12,0,0,1,1.43,1.13A5.23,5.23,0,0,1,215,131,3.77,3.77,0,0,0,217.06,128.19Z" style="fill:#C53F3F"></path><path d="M227.13,118.12a1.91,1.91,0,0,0-3.63-.83,1.91,1.91,0,0,0-3.63.83c0,1.2,1.35,2.34,2.28,2.95a8.12,8.12,0,0,1,1.43,1.13,5.23,5.23,0,0,1,1.51-1.28A3.75,3.75,0,0,0,227.13,118.12Z" style="fill:#C53F3F"></path><rect x="208.62" y="114.65" width="20.03" height="18.41" style="fill:none"></rect><rect x="208.62" y="133.06" width="20.03" height="18.41" style="fill:none"></rect><path d="M217.06,146.6a1.91,1.91,0,0,0-3.63-.83,1.91,1.91,0,0,0-3.63.83c0,1.21,1.35,2.35,2.28,3a8.12,8.12,0,0,1,1.43,1.13,5.23,5.23,0,0,1,1.51-1.28A3.77,3.77,0,0,0,217.06,146.6Z" style="fill:#C53F3F"></path><path d="M227.13,136.53a1.91,1.91,0,0,0-3.63-.83,1.91,1.91,0,0,0-3.63.83c0,1.21,1.35,2.35,2.28,3a8.12,8.12,0,0,1,1.43,1.13,5.23,5.23,0,0,1,1.51-1.28A3.77,3.77,0,0,0,227.13,136.53Z" style="fill:#C53F3F"></path><rect x="208.62" y="133.06" width="20.03" height="18.41" style="fill:none"></rect><rect x="208.62" y="151.48" width="20.03" height="18.41" style="fill:none"></rect><path d="M217.06,165a1.91,1.91,0,0,0-3.63-.83,1.91,1.91,0,0,0-3.63.83c0,1.2,1.35,2.34,2.28,2.95a8.12,8.12,0,0,1,1.43,1.13,5.23,5.23,0,0,1,1.51-1.28A3.75,3.75,0,0,0,217.06,165Z" style="fill:#C53F3F"></path><path d="M227.13,155a1.91,1.91,0,0,0-3.63-.83,1.91,1.91,0,0,0-3.63.83c0,1.2,1.35,2.34,2.28,3a8.12,8.12,0,0,1,1.43,1.13,5.23,5.23,0,0,1,1.51-1.28A3.75,3.75,0,0,0,227.13,155Z" style="fill:#C53F3F"></path><rect x="208.62" y="151.48" width="20.03" height="18.41" style="fill:none"></rect><rect x="188.59" y="114.65" width="20.03" height="18.41" style="fill:none"></rect><path d="M197,128.19a1.91,1.91,0,0,0-3.63-.83,1.91,1.91,0,0,0-3.63.83c0,1.2,1.35,2.34,2.28,2.95a8.12,8.12,0,0,1,1.43,1.13A5.23,5.23,0,0,1,195,131,3.77,3.77,0,0,0,197,128.19Z" style="fill:#C53F3F"></path><path d="M207.1,118.12a1.91,1.91,0,0,0-3.63-.83,1.91,1.91,0,0,0-3.63.83c0,1.2,1.35,2.34,2.28,2.95a8.12,8.12,0,0,1,1.43,1.13,5.23,5.23,0,0,1,1.51-1.28A3.77,3.77,0,0,0,207.1,118.12Z" style="fill:#C53F3F"></path><rect x="188.59" y="114.65" width="20.03" height="18.41" style="fill:none"></rect><rect x="188.59" y="133.06" width="20.03" height="18.41" style="fill:none"></rect><path d="M197,146.6a1.91,1.91,0,0,0-3.63-.83,1.91,1.91,0,0,0-3.63.83c0,1.21,1.35,2.35,2.28,3a8.12,8.12,0,0,1,1.43,1.13,5.23,5.23,0,0,1,1.51-1.28A3.77,3.77,0,0,0,197,146.6Z" style="fill:#C53F3F"></path><path d="M207.1,136.53a1.91,1.91,0,0,0-3.63-.83,1.91,1.91,0,0,0-3.63.83c0,1.21,1.35,2.35,2.28,3a8.12,8.12,0,0,1,1.43,1.13,5.23,5.23,0,0,1,1.51-1.28A3.79,3.79,0,0,0,207.1,136.53Z" style="fill:#C53F3F"></path><rect x="188.59" y="133.06" width="20.03" height="18.41" style="fill:none"></rect><rect x="188.59" y="151.48" width="20.03" height="18.41" style="fill:none"></rect><path d="M197,165a1.91,1.91,0,0,0-3.63-.83,1.91,1.91,0,0,0-3.63.83c0,1.2,1.35,2.34,2.28,2.95a8.12,8.12,0,0,1,1.43,1.13,5.23,5.23,0,0,1,1.51-1.28A3.75,3.75,0,0,0,197,165Z" style="fill:#C53F3F"></path><path d="M207.1,155a1.91,1.91,0,0,0-3.63-.83,1.91,1.91,0,0,0-3.63.83c0,1.2,1.35,2.34,2.28,3a8.12,8.12,0,0,1,1.43,1.13,5.23,5.23,0,0,1,1.51-1.28A3.77,3.77,0,0,0,207.1,155Z" style="fill:#C53F3F"></path><rect x="188.59" y="151.48" width="20.03" height="18.41" style="fill:none"></rect><rect x="168.56" y="114.65" width="20.03" height="18.41" style="fill:none"></rect><path d="M177,128.19a1.91,1.91,0,0,0-3.63-.83,1.91,1.91,0,0,0-3.63.83c0,1.2,1.35,2.34,2.28,2.95a8.12,8.12,0,0,1,1.43,1.13A5.23,5.23,0,0,1,175,131,3.79,3.79,0,0,0,177,128.19Z" style="fill:#C53F3F"></path><path d="M187.07,118.12a1.91,1.91,0,0,0-3.63-.83,1.91,1.91,0,0,0-3.63.83c0,1.2,1.35,2.34,2.28,2.95a8.12,8.12,0,0,1,1.43,1.13,5.23,5.23,0,0,1,1.51-1.28A3.77,3.77,0,0,0,187.07,118.12Z" style="fill:#C53F3F"></path><rect x="168.56" y="114.65" width="20.03" height="18.41" style="fill:none"></rect><rect x="168.56" y="133.06" width="20.03" height="18.41" style="fill:none"></rect><path d="M177,146.6a1.91,1.91,0,0,0-3.63-.83,1.91,1.91,0,0,0-3.63.83c0,1.21,1.35,2.35,2.28,3a8.12,8.12,0,0,1,1.43,1.13,5.23,5.23,0,0,1,1.51-1.28A3.79,3.79,0,0,0,177,146.6Z" style="fill:#C53F3F"></path><path d="M187.07,136.53a1.91,1.91,0,0,0-3.63-.83,1.91,1.91,0,0,0-3.63.83c0,1.21,1.35,2.35,2.28,3a8.12,8.12,0,0,1,1.43,1.13,5.23,5.23,0,0,1,1.51-1.28A3.79,3.79,0,0,0,187.07,136.53Z" style="fill:#C53F3F"></path><rect x="168.56" y="133.06" width="20.03" height="18.41" style="fill:none"></rect><rect x="168.56" y="151.48" width="20.03" height="18.41" style="fill:none"></rect><path d="M177,165a1.91,1.91,0,0,0-3.63-.83,1.91,1.91,0,0,0-3.63.83c0,1.2,1.35,2.34,2.28,2.95a8.12,8.12,0,0,1,1.43,1.13,5.23,5.23,0,0,1,1.51-1.28A3.77,3.77,0,0,0,177,165Z" style="fill:#C53F3F"></path><path d="M187.07,155a1.91,1.91,0,0,0-3.63-.83,1.91,1.91,0,0,0-3.63.83c0,1.2,1.35,2.34,2.28,3a8.12,8.12,0,0,1,1.43,1.13,5.23,5.23,0,0,1,1.51-1.28A3.77,3.77,0,0,0,187.07,155Z" style="fill:#C53F3F"></path><rect x="168.56" y="151.48" width="20.03" height="18.41" style="fill:none"></rect></g></g><rect x="172.04" y="135.03" width="105.33" height="22" transform="translate(-9.47 15.72) rotate(-3.92)" style="fill:none;stroke:#263238;stroke-linecap:round;stroke-linejoin:round;stroke-width:0.8269559999999999px"></rect><rect x="217.62" y="134.91" width="21.33" height="126.67" transform="matrix(1, -0.07, 0.07, 1, -13.03, 16.09)" style="fill:#C53F3F;stroke:#263238;stroke-linecap:round;stroke-linejoin:round;stroke-width:0.8269559999999999px"></rect><polygon points="220.89 181.17 209.42 171.45 199.6 182.63 196.47 136.94 217.75 135.48 220.89 181.17" style="fill:#C53F3F;stroke:#263238;stroke-linecap:round;stroke-linejoin:round;stroke-width:0.8269559999999999px"></polygon><path d="M189.72,114.65C183,120.49,185.81,136,191.25,137s32.61-1.79,32.61-1.79S196.49,108.8,189.72,114.65Zm4.83,18.95c-4.05-.53-6-9.84-.92-13.43s25.23,12,25.23,12S198.6,134.13,194.55,133.6Z" style="fill:#C53F3F;stroke:#263238;stroke-linecap:round;stroke-linejoin:round;stroke-width:0.8269559999999999px"></path><path d="M255.08,110.16c7.51,4.87,6.79,20.61,1.53,22.32s-32.55,2.68-32.55,2.68S247.57,105.3,255.08,110.16Zm-2.2,19.44c3.94-1.08,4.63-10.57-.92-13.43s-23.35,15.36-23.35,15.36S248.94,130.68,252.88,129.6Z" style="fill:#C53F3F;stroke:#263238;stroke-linecap:round;stroke-linejoin:round;stroke-width:0.8269559999999999px"></path><rect x="217.06" y="128.4" width="12.88" height="7.08" rx="2.9" transform="matrix(1, -0.07, 0.07, 1, -8.51, 15.61)" style="fill:#C53F3F;stroke:#263238;stroke-linecap:round;stroke-linejoin:round;stroke-width:0.8269559999999999px"></rect><path d="M210.05,252.3s5.07.85,7,.57,5.36-2,6.77,0a23.25,23.25,0,0,0,4.79,4.23s.56,1.41-2,1.41a8.44,8.44,0,0,1-4.8-2l7.05,5.64s-1.13,1.7-2,2-3.95-.57-3.95-.57a7.65,7.65,0,0,1-3.1,1.41c-1.7.29-3.11,1.13-4.23.57s-7.9-6.77-7.9-6.77Z" style="fill:#fff;stroke:#263238;stroke-linecap:round;stroke-linejoin:round;stroke-width:0.8269559999999999px"></path><path d="M152,198.1s-8.23,4-8.56,13.16,14.81,33.56,18.43,36.19,46.39,18.43,46.39,18.43l3.95-15.46L172.38,228l-11.52-26.32" style="fill:#C53F3F;stroke:#263238;stroke-linecap:round;stroke-linejoin:round;stroke-width:0.8269559999999999px"></path><line x1="203.72" y1="246.97" x2="198.86" y2="261.23" style="fill:none;stroke:#263238;stroke-linecap:round;stroke-linejoin:round;stroke-width:0.620217px"></line><line x1="200.69" y1="250" x2="197.35" y2="260.62" style="fill:none;stroke:#263238;stroke-linecap:round;stroke-linejoin:round;stroke-width:0.620217px"></line><circle cx="205.09" cy="262.6" r="1.37" style="fill:none;stroke:#263238;stroke-linecap:round;stroke-linejoin:round;stroke-width:0.620217px"></circle></g></svg>