<svg xmlns="http://www.w3.org/2000/svg" viewBox="0 0 500 500"><g id="freepik--background-complete--inject-239"><path d="M407.81,366.31a2.17,2.17,0,0,1,0-.24l0-.67c0-.62,0-1.48,0-2.59,0-2.27-.05-5.53-.08-9.64l.15.15-49.67.1.25-.25h0v6.66c0,2.19,0,4.35,0,6.46l-.25-.25,35.41.12,10.44.07,2.83,0,.74,0h.26s-.07,0-.23,0h-.71l-2.77,0-10.39.07-35.58.11h-.24v-.25c0-2.11,0-4.27,0-6.46v-6.66h0c.51-.51.14-.14.26-.25l49.67.1H408v.15c0,4.15-.07,7.44-.09,9.73,0,1.09,0,2,0,2.56,0,.26,0,.47,0,.64S407.82,366.32,407.81,366.31Z" style="fill:#e0e0e0"></path><path d="M86.17,453.44a1.35,1.35,0,0,1,0-.24c0-.18,0-.4,0-.67,0-.62,0-1.49,0-2.59,0-2.27,0-5.53-.08-9.64l.15.15-49.67.1.25-.25h0v3.34c0,1.11,0,2.22,0,3.31v6.47l-.25-.25,35.4.11,10.45.07,2.83,0h.74l.26,0h-.23l-.71,0-2.77,0-10.39.07-35.58.12h-.24v-.25q0-3.17,0-6.47v-6.65h0l.26-.26,49.67.1h.15v.16c0,4.15-.06,7.44-.08,9.73,0,1.09,0,1.94,0,2.55v.65C86.18,453.37,86.17,453.44,86.17,453.44Z" style="fill:#e0e0e0"></path><path d="M258.84,139.35s0-.09,0-.24l0-.67c0-.62,0-1.48,0-2.59,0-2.27,0-5.53-.09-9.64l.15.15-49.67.1.25-.25h0v13.12l-.25-.25,35.4.11,10.45.08,2.82,0h.74l.26,0s-.07,0-.23,0h-.7l-2.78,0-10.39.07-35.57.12h-.25v-6.71c0-1.1,0-2.21,0-3.32v-3.34h0c.51-.51.15-.14.26-.26l49.67.1H259v.16c0,4.15-.07,7.44-.09,9.73,0,1.09,0,1.94,0,2.55,0,.27,0,.48,0,.65S258.85,139.36,258.84,139.35Z" style="fill:#e0e0e0"></path><path d="M265.58,126.21a1.41,1.41,0,0,1,0-.25c0-.19,0-.42,0-.7,0-.65,0-1.52,0-2.63,0-2.31-.06-5.56-.1-9.56l.18.18-29.85.07c-.22.23.31-.31.26-.25h0v6.75c0,2.19,0,4.33,0,6.37l-.24-.24,21.35.11,6.22.07,1.68,0,.6,0a3.51,3.51,0,0,1-.54,0l-1.63,0-6.16.06-21.52.12h-.24v-.24c0-2,0-4.18,0-6.37v-6.75h0c-.06.05.48-.48.25-.26l29.85.07h.18v.19c0,4-.07,7.34-.1,9.67,0,1.09,0,2,0,2.59S265.59,126.22,265.58,126.21Z" style="fill:#e0e0e0"></path><rect x="36.24" y="322.24" width="45.25" height="11.97" style="fill:#ebebeb"></rect><rect x="318.49" y="275.9" width="45.25" height="11.97" style="fill:#ebebeb"></rect><rect x="42.62" y="32.2" width="113.88" height="188.5" style="fill:#e0e0e0"></rect><rect x="38.83" y="32.2" width="113.88" height="188.5" style="fill:#ebebeb"></rect><rect x="43.68" y="36.02" width="104.18" height="180.86" style="fill:#fafafa"></rect><rect x="63.51" y="59.52" width="64.06" height="133.86" style="fill:#ebebeb"></rect><path d="M63.51,146c-.14-12.5,11.1-24.71,23.48-26.46,5.91-.83,12.18.34,17.7-1.92,9.84-4,13-17.12,22.89-21l.45,96.75H63.51Z" style="fill:#e0e0e0"></path><rect x="370.97" y="37.23" width="89.25" height="129.36" style="fill:#e0e0e0"></rect><rect x="366.5" y="37.23" width="89.25" height="129.36" style="fill:#f5f5f5"></rect><rect x="377.59" y="51.24" width="67.07" height="101.34" style="fill:#fff"></rect><path d="M444.66,152.58s0-.17,0-.49,0-.82,0-1.44c0-1.28,0-3.14,0-5.56,0-4.86,0-11.93-.06-20.88,0-17.87-.07-43.17-.11-73l.22.22-67.06,0h0l.24-.24c0,38.23,0,73.48-.05,101.34l-.19-.19,48.82.1,13.49,0,3.54,0,1.22,0-1.18,0-3.51,0-13.44,0-48.94.1h-.19v-.19c0-27.86,0-63.11,0-101.34V51h.25l67.06,0h.23v.22c0,29.86-.08,55.21-.1,73.12,0,8.92,0,16-.06,20.83,0,2.4,0,4.25,0,5.51,0,.61,0,1.08,0,1.41S444.66,152.58,444.66,152.58Z" style="fill:#e0e0e0"></path><path d="M456,37.23a15.59,15.59,0,0,1-1.59,2.31c-1,1.39-2.51,3.27-4.19,5.31S447,48.7,445.81,50a14.92,14.92,0,0,1-2,2,17.88,17.88,0,0,1,1.7-2.22l4.3-5.22,4.29-5.21A18,18,0,0,1,456,37.23Z" style="fill:#e0e0e0"></path><path d="M445,152.25a83.39,83.39,0,0,0,11.7,14.63" style="fill:#fff"></path><path d="M456.7,166.88a12.91,12.91,0,0,1-2-1.85,63.75,63.75,0,0,1-4.41-5,62.84,62.84,0,0,1-3.88-5.4,13.16,13.16,0,0,1-1.37-2.4,18.9,18.9,0,0,1,1.65,2.21c1,1.38,2.37,3.27,4,5.29s3.15,3.78,4.28,5A19.38,19.38,0,0,1,456.7,166.88Z" style="fill:#e0e0e0"></path><path d="M366.49,166.49q5.85-7.22,11.69-14.42" style="fill:#fff"></path><path d="M378.18,152.07a90.89,90.89,0,0,1-5.66,7.36,92.83,92.83,0,0,1-6,7.06,89.93,89.93,0,0,1,5.66-7.37A86.68,86.68,0,0,1,378.18,152.07Z" style="fill:#e0e0e0"></path><path d="M366.5,37.23A79.4,79.4,0,0,1,372.18,44a77.28,77.28,0,0,1,5.29,7.09,79.49,79.49,0,0,1-5.67-6.79A83.7,83.7,0,0,1,366.5,37.23Z" style="fill:#e0e0e0"></path><rect x="401.31" y="71.82" width="22.46" height="63.77" style="fill:#e0e0e0"></rect><rect x="414.57" y="213.35" width="45.25" height="11.97" style="fill:#ebebeb"></rect><path d="M440.68,237.93a2,2,0,0,1,0-.22l0-.61c0-.56,0-1.35,0-2.36,0-2.06,0-5-.08-8.78l.14.14-45.25.09c.11-.1-.23.23.23-.23h0v12l-.23-.22,32.25.1,9.52.06,2.57,0,.67,0h.24s-.06,0-.21,0h-.64l-2.53,0-9.46.06-32.41.11h-.22v-.23c0-1.92,0-3.89,0-5.89V226h0l.23-.23,45.25.09h.14V226c0,3.78-.06,6.78-.07,8.87,0,1,0,1.77,0,2.32,0,.24,0,.44,0,.59S440.69,237.94,440.68,237.93Z" style="fill:#e0e0e0"></path></g><g id="freepik--Floor--inject-239"><path d="M477.88,476.28c0,.14-102,.26-227.87.26s-227.89-.12-227.89-.26S124.13,476,250,476,477.88,476.13,477.88,476.28Z" style="fill:#263238"></path></g><g id="freepik--Plant--inject-239"><path d="M406.94,438.43s-5.44-37.42-5-59.19,0-46.26,0-46.26h2.51s-1.7,43.21.15,69.27,6.71,36.18,6.71,36.18h-4.35" style="fill:#263238"></path><path d="M423.15,290.88a6.57,6.57,0,0,0-2.28-3.34c-1.6-1-3.68-.59-5.46,0-7.57,2.68-14.29,16.81-17.35,24.24l10.06,33.89C426.27,328.87,429.42,306.77,423.15,290.88Z" style="fill:#455a64"></path><path d="M420.28,288.91a2.12,2.12,0,0,1-.15.44l-.49,1.24c-.44,1.06-1.06,2.62-1.8,4.54-1.48,3.85-3.37,9.23-5.06,15.29s-2.83,11.65-3.55,15.72c-.36,2-.63,3.68-.8,4.82-.08.53-.16,1-.21,1.31a2.85,2.85,0,0,1-.1.45,1.46,1.46,0,0,1,0-.46c0-.35.08-.79.13-1.32.13-1.15.35-2.81.67-4.85A143.5,143.5,0,0,1,417.57,295c.77-1.91,1.43-3.45,1.92-4.5l.57-1.2A2.07,2.07,0,0,1,420.28,288.91Z" style="fill:#263238"></path><path d="M403.64,353.84c-9.42-5.21-15-15-15.5-25.77-.36-7.52,1.95-14.91,4.57-22a2.78,2.78,0,0,1,1.06-1.59,2.7,2.7,0,0,1,2.57.4c6.85,3.9,11,11.34,13.21,18.91a38.18,38.18,0,0,1,1.56,15.55,25.84,25.84,0,0,1-7.47,14.47" style="fill:#455a64"></path><path d="M403.64,353.84a2.71,2.71,0,0,1,0-.45c0-.35,0-.78,0-1.31,0-1.12-.05-2.76-.14-4.77a130.33,130.33,0,0,0-1.75-15.66c-1.05-6.07-2.31-11.51-3.25-15.44-.46-1.92-.84-3.5-1.12-4.65-.11-.52-.21-.94-.29-1.27a2.14,2.14,0,0,1-.07-.45,1.59,1.59,0,0,1,.15.43l.37,1.25c.31,1.08.74,2.66,1.24,4.62,1,3.91,2.33,9.35,3.38,15.44a113.9,113.9,0,0,1,1.63,15.71c.06,2,.06,3.67,0,4.8,0,.52,0,1-.05,1.3A1.66,1.66,0,0,1,403.64,353.84Z" style="fill:#263238"></path><g style="opacity:0.30000000000000004"><path d="M403.64,353.84c-9.42-5.21-15-15-15.5-25.77-.36-7.52,1.95-14.91,4.57-22a2.78,2.78,0,0,1,1.06-1.59,2.7,2.7,0,0,1,2.57.4c6.85,3.9,11,11.34,13.21,18.91a38.18,38.18,0,0,1,1.56,15.55,25.84,25.84,0,0,1-7.47,14.47"></path></g><path d="M414.28,411.09c9.28,2,16.92,8.58,25.88,11.77,5.92,2.1,12.62,2.85,17.35,7-1.14-2.87-3.83-4.77-6.44-6.41a115.23,115.23,0,0,0-23.45-11.19c-4.21-1.46-8.78-2.67-13.08-1.48" style="fill:#455a64"></path><path d="M400.87,419.36c-11.63-.19-23.86-10.09-35.43-10.68,12.1-3.91,29.44-.71,35.43,10.68" style="fill:#455a64"></path><path d="M405.41,391.48c5.9-2.13,12.38-2.23,18.58-1.27a113.72,113.72,0,0,1,18.14,4.93c-.6-4-3.87-7.06-6.93-9.75a48,48,0,0,0-7.29-5.59,16.2,16.2,0,0,0-8.73-2.47,13.79,13.79,0,0,0-9.64,4.86,16,16,0,0,0-4.13,9.29" style="fill:#455a64"></path><path d="M381.55,378.64c-7.31-6.24-18.39-5.63-28-5.41A227.88,227.88,0,0,1,397,400.3C397.38,393.5,390.79,386.53,381.55,378.64Z" style="fill:#455a64"></path><g style="opacity:0.30000000000000004"><path d="M381.55,378.64c-7.31-6.24-18.39-5.63-28-5.41A227.88,227.88,0,0,1,397,400.3C397.38,393.5,390.79,386.53,381.55,378.64Z"></path></g><path d="M408.7,370A81.85,81.85,0,0,1,420,363.48c3.85-1.75,7.44-4.53,11.16-6.55,4.82-2.61,9-6.24,13.43-9.48s9.29-6.16,14.7-7a28.77,28.77,0,0,0-13.38.77,87.35,87.35,0,0,0-12.6,4.9c-5.7,2.57-11.51,5.21-16.17,9.38s-8.89,8.29-8.39,14.53" style="fill:#455a64"></path><path d="M439.94,419.36l-.36-.16-1-.53c-.87-.46-2.13-1.15-3.71-1.95-.78-.41-1.65-.84-2.59-1.29s-1.95-.92-3-1.38a43.79,43.79,0,0,0-7.16-2.49,15.37,15.37,0,0,0-7.45-.19,20.28,20.28,0,0,0-3.16.94,16,16,0,0,0-2.55,1.31,16.44,16.44,0,0,0-3.21,2.65c-.67.72-1,1.16-1,1.14a1.33,1.33,0,0,1,.21-.34c.15-.22.38-.53.7-.91a15.06,15.06,0,0,1,3.17-2.79,16,16,0,0,1,2.58-1.38,20.35,20.35,0,0,1,3.2-1,15.51,15.51,0,0,1,7.64.15,42.51,42.51,0,0,1,7.21,2.55c1.08.48,2.09.95,3,1.42s1.8.91,2.57,1.34c1.57.83,2.81,1.56,3.66,2.07l1,.59C439.84,419.26,440,419.34,439.94,419.36Z" style="fill:#263238"></path><path d="M392.2,413.6a2.56,2.56,0,0,1,.72.21,15.88,15.88,0,0,1,1.9.82,23.07,23.07,0,0,1,9.71,9.33,18.2,18.2,0,0,1,.9,1.86,3,3,0,0,1,.24.72c-.07,0-.5-1-1.4-2.43a25.53,25.53,0,0,0-4.19-5.24,26.36,26.36,0,0,0-5.4-4C393.17,414.06,392.17,413.67,392.2,413.6Z" style="fill:#263238"></path><path d="M366.48,378.06a2.72,2.72,0,0,1,.5.15l1.39.49,2.2.81c.86.32,1.79.79,2.84,1.26a66.64,66.64,0,0,1,15.13,9.64,72.88,72.88,0,0,1,7.06,6.95,75.93,75.93,0,0,1,5,6.34c1.32,1.88,2.33,3.45,3,4.53.33.51.59.92.79,1.25a3.11,3.11,0,0,1,.26.44,2.5,2.5,0,0,1-.32-.4c-.21-.27-.5-.67-.86-1.2-.74-1.06-1.78-2.6-3.13-4.45s-3.05-4-5.06-6.26a77.13,77.13,0,0,0-7-6.89,71.06,71.06,0,0,0-15-9.69c-1-.48-2-1-2.81-1.3l-2.17-.88-1.36-.56A3.6,3.6,0,0,1,366.48,378.06Z" style="fill:#263238"></path><path d="M422.85,384.94a3.53,3.53,0,0,1-.93-.12l-1.07-.19c-.41-.08-.9-.09-1.43-.14a14.57,14.57,0,0,0-8,1.58,14.4,14.4,0,0,0-3.64,2.69,17.06,17.06,0,0,0-2.34,2.89,24.81,24.81,0,0,0-1.59,3.05,3.06,3.06,0,0,1,.23-.9,13.29,13.29,0,0,1,1.12-2.3,15.46,15.46,0,0,1,2.31-3,14.15,14.15,0,0,1,11.92-4.29c.53.07,1,.1,1.44.2l1.06.27A5,5,0,0,1,422.85,384.94Z" style="fill:#263238"></path><path d="M434.53,348.71a4.47,4.47,0,0,1-.44.27l-1.3.7c-1.13.61-2.75,1.51-4.72,2.67s-4.28,2.62-6.74,4.38a56,56,0,0,0-7.51,6.3,19.09,19.09,0,0,0-3.08,4c-.76,1.46-1.49,2.87-2.15,4.23a74.46,74.46,0,0,0-3.23,7.35,43.52,43.52,0,0,0-1.57,5.18c-.3,1.24-.41,1.94-.45,1.93a2.47,2.47,0,0,1,.05-.51c0-.34.11-.83.24-1.46a37.42,37.42,0,0,1,1.45-5.24,70.81,70.81,0,0,1,3.16-7.42c.66-1.37,1.39-2.78,2.14-4.25a19,19,0,0,1,3.14-4.08,54.4,54.4,0,0,1,7.59-6.32c2.49-1.75,4.82-3.18,6.81-4.33s3.64-2,4.79-2.55l1.34-.64A1.77,1.77,0,0,1,434.53,348.71Z" style="fill:#263238"></path><path d="M401.94,383.9a4.68,4.68,0,0,1-.23-1c-.14-.72-.31-1.62-.51-2.69a68.76,68.76,0,0,0-5.52-17.08l-1.13-2.49a5.27,5.27,0,0,1-.38-.93,3.94,3.94,0,0,1,.52.86c.31.57.74,1.4,1.26,2.43a58,58,0,0,1,5.54,17.16c.18,1.14.31,2.07.38,2.71A5.81,5.81,0,0,1,401.94,383.9Z" style="fill:#263238"></path><path d="M401.1,357.46a31.76,31.76,0,0,0-3.78-12.55A41.44,41.44,0,0,0,369.24,324l26,38.74,3.36,6.92C400.88,365.87,401.39,361.85,401.1,357.46Z" style="fill:#455a64"></path><rect x="377.94" y="433.8" width="60.44" height="10.71" style="fill:#FF725E"></rect><polygon points="382.45 442.39 387.6 475.62 427.72 475.62 433.87 442.39 382.45 442.39" style="fill:#FF725E"></polygon><path d="M438.34,444.52c0,.12-13.63.22-30.44.22s-30.45-.1-30.45-.22,13.63-.21,30.45-.21S438.34,444.41,438.34,444.52Z" style="fill:#263238"></path></g><g id="freepik--Character--inject-239"><path d="M336.92,51.45l-.48,0A10.33,10.33,0,0,1,330,47.69a4.65,4.65,0,0,0-3.5-1.58H260.26a5.83,5.83,0,0,0-4,1.59c-1.77,1.66-4.5,3.64-7.43,3.64-3.73,0-6.41-3.32-7.41-6.62l3.16-.95c.52,1.71,2.08,4.27,4.25,4.27,1.45,0,3.29-1,5.18-2.74a9.1,9.1,0,0,1,6.24-2.49h66.26a8,8,0,0,1,6,2.69,7.37,7.37,0,0,0,4.29,2.65c1.76.18,3.89-4,4.74-7l3.18.88C344.43,43,342,51.45,336.92,51.45Z" style="fill:#e0e0e0"></path><rect x="287.57" y="24.06" width="8.61" height="434.86" transform="translate(583.75 482.99) rotate(180)" style="fill:#e0e0e0"></rect><path d="M257.25,464.17h66.68a5.25,5.25,0,0,0-5.25-5.25H262.49a5.25,5.25,0,0,0-5.24,5.25Z" style="fill:#e0e0e0"></path><path d="M312.41,469a7.46,7.46,0,1,0,7.45-7.45A7.46,7.46,0,0,0,312.41,469Z" style="fill:#263238"></path><circle cx="257.83" cy="469" r="7.45" transform="translate(-71.64 47.23) rotate(-9.2)" style="fill:#263238"></circle><circle cx="290.59" cy="469.05" r="7.45" transform="translate(-75.12 55.88) rotate(-9.73)" style="fill:#263238"></circle><path d="M293.39,45.27c0-.16,7.6-.29,17-.29s17,.13,17,.29-7.61.29-17,.29S293.39,45.43,293.39,45.27Z" style="fill:#263238"></path><path d="M293.54,45.19c-.09.14-.63-.2-.54-.9s.74-.86.78-.7-.17.42-.21.79S293.65,45.08,293.54,45.19Z" style="fill:#263238"></path><path d="M287.5,67.72c-.16,0-.29-7.53-.29-16.8s.13-16.8.29-16.8.28,7.52.28,16.8S287.65,67.72,287.5,67.72Z" style="fill:#263238"></path><path d="M336,151.05H302.23V133a11.25,11.25,0,0,1,11.23-11.23h11.27A11.25,11.25,0,0,1,336,133Zm-29.33-4.4h24.93V133a6.83,6.83,0,0,0-6.83-6.83H313.46a6.83,6.83,0,0,0-6.83,6.83Z" style="fill:#e0e0e0"></path><rect x="291.91" y="144.85" width="55.16" height="68.31" transform="translate(638.97 358.02) rotate(180)" style="fill:#e0e0e0"></rect><rect x="308.09" y="144.85" width="38.97" height="67.7" transform="translate(655.16 357.4) rotate(180)" style="fill:#f5f5f5"></rect><rect x="313.04" y="151.46" width="29.11" height="29.11" style="fill:#fff"></rect><path d="M313,180.56s0-.16,0-.51,0-.89,0-1.53c0-1.4,0-3.38-.07-5.89,0-5.15-.07-12.44-.12-21.17v-.25H313l29.11,0,.29.29h0v7.83q0,3.85,0,7.52c0,4.89,0,9.5,0,13.73v.25h-.25L321,180.68l-5.88-.06-1.54,0a3.28,3.28,0,0,1-.51,0l.57,0,1.58,0,5.94-.07,21-.13-.25.25c0-4.23,0-8.84,0-13.73q0-3.66,0-7.52v-7.83h0l.28.28-29.11,0,.25-.24c-.05,8.66-.09,15.9-.12,21,0,2.52-.05,4.52-.07,5.94,0,.66,0,1.18,0,1.58A4.38,4.38,0,0,1,313,180.56Z" style="fill:#263238"></path><path d="M292.85,144.85c0-.16,12.11-.28,27-.28s27,.12,27,.28-12.1.29-27,.29S292.85,145,292.85,144.85Z" style="fill:#263238"></path><path d="M291.9,213.16c-.16,0-.29-15.18-.29-33.89s.13-33.9.29-33.9.29,15.17.29,33.9S292.06,213.16,291.9,213.16Z" style="fill:#263238"></path><path d="M308.09,213.16c-.15,0-.28-15.18-.28-33.89s.13-33.9.28-33.9.29,15.17.29,33.9S308.25,213.16,308.09,213.16Z" style="fill:#263238"></path><rect x="337.69" y="186.22" width="4.46" height="4.46" transform="translate(679.84 376.91) rotate(180)" style="fill:#455a64"></rect><rect x="331.53" y="186.22" width="4.47" height="4.46" transform="translate(667.52 376.91) rotate(180)" style="fill:#455a64"></rect><rect x="325.37" y="186.22" width="4.46" height="4.46" transform="translate(655.2 376.91) rotate(180)" style="fill:#455a64"></rect><rect x="319.21" y="186.22" width="4.46" height="4.46" transform="translate(642.88 376.91) rotate(180)" style="fill:#455a64"></rect><rect x="313.04" y="186.22" width="4.46" height="4.46" transform="translate(630.55 376.91) rotate(180)" style="fill:#455a64"></rect><rect x="337.69" y="192.14" width="4.46" height="4.46" transform="translate(679.84 388.75) rotate(180)" style="fill:#455a64"></rect><rect x="331.53" y="192.14" width="4.47" height="4.46" transform="translate(667.52 388.75) rotate(180)" style="fill:#455a64"></rect><rect x="325.37" y="192.14" width="4.46" height="4.46" transform="translate(655.2 388.75) rotate(180)" style="fill:#455a64"></rect><rect x="319.21" y="192.14" width="4.46" height="4.46" transform="translate(642.88 388.75) rotate(180)" style="fill:#455a64"></rect><rect x="313.04" y="192.14" width="4.46" height="4.46" transform="translate(630.55 388.75) rotate(180)" style="fill:#455a64"></rect><rect x="337.69" y="198.06" width="4.46" height="4.46" transform="translate(679.84 400.58) rotate(180)" style="fill:#455a64"></rect><rect x="331.53" y="198.06" width="4.47" height="4.46" transform="translate(667.52 400.58) rotate(180)" style="fill:#455a64"></rect><rect x="325.37" y="198.06" width="4.46" height="4.46" transform="translate(655.2 400.58) rotate(180)" style="fill:#455a64"></rect><rect x="313.04" y="198.06" width="10.63" height="4.46" transform="translate(636.72 400.58) rotate(180)" style="fill:#FF725E"></rect><path d="M314.5,166.49a1.55,1.55,0,0,1,.48-.14c.32-.07.78-.17,1.4-.25a7.76,7.76,0,0,1,2.26,0,4.66,4.66,0,0,1,2.69,1.36,3.5,3.5,0,0,1,.83,1.61,7.59,7.59,0,0,1,.13,1.91,11.39,11.39,0,0,0,0,1.94,3.52,3.52,0,0,0,.81,1.76,1.47,1.47,0,0,0,1.72.42,3,3,0,0,0,1.31-1.59,19.28,19.28,0,0,0,1.11-4.65c.22-1.64,0-3.24.19-4.88a4,4,0,0,1,2.73-3.67,2.54,2.54,0,0,1,2.19.55,4.65,4.65,0,0,1,1.24,1.69c.53,1.23.71,2.42,1.21,3.35a4.32,4.32,0,0,0,2,1.92,5,5,0,0,0,2.1.47,6.9,6.9,0,0,0,1.84-.33,1.5,1.5,0,0,1-.43.24,4,4,0,0,1-1.4.31,4.86,4.86,0,0,1-2.24-.4,4.61,4.61,0,0,1-2.24-2c-.56-1-.78-2.22-1.29-3.35a4.35,4.35,0,0,0-1.12-1.5,2,2,0,0,0-1.76-.43,2.86,2.86,0,0,0-1.6,1.18,4.51,4.51,0,0,0-.7,2.05c-.15,1.5.06,3.18-.17,4.87a19,19,0,0,1-1.17,4.81,3.45,3.45,0,0,1-1.6,1.87,2,2,0,0,1-2.32-.56,3.86,3.86,0,0,1-.92-2,10.75,10.75,0,0,1,0-2,4.25,4.25,0,0,0-.79-3.23,4.42,4.42,0,0,0-2.45-1.32,8.83,8.83,0,0,0-2.18-.1C315.19,166.42,314.51,166.53,314.5,166.49Z" style="fill:#FF725E"></path><path d="M226.71,95.5a6.42,6.42,0,0,0,1.2,3.93c1.34,1.53,3.77,1.73,5.92,1.81l21.31.79c2.11.08,4.52,0,5.91-1.4,1-1,2.62-3.73,2.74-5.11A179,179,0,0,0,263,57.78c-.44-3.74-1.15-7.56-3.33-10.74s-4.94-5.53-10.29-6.6c-10-1.49-18.37,1.25-20.56,6.63-1.95,4.76-1.64,9.22-1.91,14.3A283.71,283.71,0,0,0,226.71,95.5Zm14.78-51.9a2.45,2.45,0,0,1,2.26-.94h0a2.76,2.76,0,0,1,2.67,2,2.53,2.53,0,0,1-1.51,2.81,3,3,0,0,1-3.34-.69A2.67,2.67,0,0,1,241.49,43.6Z" style="fill:#f5f5f5"></path><path d="M226.71,95.5a6.42,6.42,0,0,0,1.2,3.93c1.34,1.53,3.77,1.73,5.92,1.81l21.31.79c2.11.08,4.52,0,5.91-1.4,1-1,2.62-3.73,2.74-5.11A179,179,0,0,0,263,57.78c-.44-3.74-1.15-7.56-3.33-10.74s-4.94-5.53-10.29-6.6c-10-1.49-18.37,1.25-20.56,6.63-1.95,4.76-1.64,9.22-1.91,14.3A283.71,283.71,0,0,0,226.71,95.5Zm14.78-51.9a2.45,2.45,0,0,1,2.26-.94h0a2.76,2.76,0,0,1,2.67,2,2.53,2.53,0,0,1-1.51,2.81,3,3,0,0,1-3.34-.69A2.67,2.67,0,0,1,241.49,43.6Z" style="fill:none"></path><path d="M241.49,43.6s-.06.23-.17.63a2.81,2.81,0,0,0,0,1.64,2.33,2.33,0,0,0,1.78,1.44,2.55,2.55,0,0,0,2.61-.85,2,2,0,0,0,.08-2.55,2.72,2.72,0,0,0-2-1h-.05a2.67,2.67,0,0,0-1.67.35c-.37.21-.5.42-.54.4s0-.29.41-.59a2.6,2.6,0,0,1,1.9-.55h-.05a3.07,3.07,0,0,1,2.44,1.13,2.43,2.43,0,0,1,.56,1.57,2.7,2.7,0,0,1-.6,1.66,3.05,3.05,0,0,1-3.18,1,2.7,2.7,0,0,1-2-1.83,2.8,2.8,0,0,1,.18-1.84C241.29,43.76,241.46,43.58,241.49,43.6Z" style="fill:#263238"></path><path d="M226.71,95.5a2.9,2.9,0,0,1-.06-.46c0-.33-.06-.77-.11-1.34-.09-1.18-.19-2.92-.28-5.17-.18-4.49-.2-11,.1-19,.13-4,.42-8.4.53-13.12a31.1,31.1,0,0,1,1-7.29,12.57,12.57,0,0,1,1.52-3.58,10,10,0,0,1,2.88-2.78A18.82,18.82,0,0,1,240,40.05a32.2,32.2,0,0,1,8.55,0,16.43,16.43,0,0,1,8.2,3.33,16.78,16.78,0,0,1,5.12,7.53,41.47,41.47,0,0,1,1.65,9q.48,4.46.77,8.79c.38,5.78.48,11.36.31,16.68q-.13,4-.41,7.76c-.05.62-.1,1.25-.15,1.86a5.5,5.5,0,0,1-.4,1.87,15.42,15.42,0,0,1-1.81,3.17,5.44,5.44,0,0,1-1.28,1.3,5.2,5.2,0,0,1-1.65.7,13.18,13.18,0,0,1-3.4.26l-6.29-.25-10.83-.45-4.44-.19a15.64,15.64,0,0,1-3.73-.47,4.77,4.77,0,0,1-2.54-1.58,4.7,4.7,0,0,1-.84-2,8.7,8.7,0,0,1-.16-1.8,2.62,2.62,0,0,1,.06.45c0,.3.09.75.21,1.32a4.65,4.65,0,0,0,.87,2,4.54,4.54,0,0,0,2.46,1.48,15.74,15.74,0,0,0,3.68.41l4.44.15,10.83.36,6.3.21a12.43,12.43,0,0,0,3.27-.26,4.16,4.16,0,0,0,2.66-1.84,14.93,14.93,0,0,0,1.74-3.07,4.77,4.77,0,0,0,.36-1.73c.05-.61.09-1.24.14-1.86q.27-3.76.38-7.74c.16-5.3.05-10.87-.33-16.62q-.3-4.32-.78-8.77a41.81,41.81,0,0,0-1.62-8.84,16.22,16.22,0,0,0-4.95-7.28,15.86,15.86,0,0,0-7.92-3.22,31.5,31.5,0,0,0-8.4,0,18.53,18.53,0,0,0-7.54,2.58,9.72,9.72,0,0,0-2.74,2.64,12.11,12.11,0,0,0-1.46,3.43,30.83,30.83,0,0,0-1,7.17c-.13,4.71-.45,9.11-.6,13.12-.35,8-.39,14.51-.28,19,.05,2.24.13,4,.18,5.16,0,.57,0,1,.05,1.35A2.69,2.69,0,0,1,226.71,95.5Z" style="fill:#263238"></path><path d="M232.82,96.68l22.39.89a3.61,3.61,0,0,0,3.87-3.18L259.76,66H229.27V93.29A3.54,3.54,0,0,0,232.82,96.68Z" style="fill:#FF725E"></path><path d="M254.77,46.5s.12.1.31.32a10.73,10.73,0,0,1,.76,1,18.49,18.49,0,0,1,2,4.19,31.66,31.66,0,0,1,1.44,6.76c.3,2.59.43,5.44.55,8.43.23,6,.16,11.4,0,15.32-.08,2-.18,3.54-.27,4.63a12.27,12.27,0,0,1-.19,1.7,9.54,9.54,0,0,1,0-1.71c0-1.19.06-2.75.09-4.63.06-3.92.07-9.33-.16-15.29-.12-3-.23-5.83-.5-8.39a33.63,33.63,0,0,0-1.3-6.69A24.86,24.86,0,0,0,254.77,46.5Z" style="fill:#263238"></path><path d="M230,75a15.74,15.74,0,0,1-.44-3.18c-.17-2-.31-4.72-.3-7.74s.18-5.77.37-7.75a14.88,14.88,0,0,1,.47-3.17,21.2,21.2,0,0,1-.07,3.2c-.08,2-.18,4.7-.2,7.72s.06,5.74.13,7.71A21.61,21.61,0,0,1,230,75Z" style="fill:#263238"></path><path d="M233.56,97.07a25.56,25.56,0,0,1,3.83,0c2.36,0,5.62.14,9.23.28l5.07.22a15.52,15.52,0,0,0,4.08-.17,5.72,5.72,0,0,0,2.44-1.13c.5-.41.69-.73.73-.7s-.1.37-.58.86a5.42,5.42,0,0,1-2.5,1.36,14.47,14.47,0,0,1-4.19.3l-5.08-.18c-3.6-.14-6.86-.3-9.22-.44A24.63,24.63,0,0,1,233.56,97.07Z" style="fill:#263238"></path><rect x="234.18" y="80.65" width="19.08" height="6.37" transform="translate(487.44 167.67) rotate(180)" style="fill:#fff"></rect><path d="M237.34,83.77a33.93,33.93,0,0,1,6.2-.28,34,34,0,0,1,6.2.28,34,34,0,0,1-6.2.28A33.93,33.93,0,0,1,237.34,83.77Z" style="fill:#263238"></path><path d="M233.12,72.56a4.33,4.33,0,0,1,1,.47c.6.33,1.45.84,2.5,1.48,2.08,1.29,4.9,3.16,7.91,5.37s5.64,4.36,7.49,6c.93.8,1.66,1.47,2.16,1.94a4.15,4.15,0,0,1,.73.78,33.17,33.17,0,0,1-3.15-2.41c-1.91-1.52-4.56-3.6-7.56-5.81s-5.78-4.12-7.8-5.49A32.52,32.52,0,0,1,233.12,72.56Z" style="fill:#fff"></path><path d="M241.43,73.72a29.72,29.72,0,0,1,4.93,3A29.52,29.52,0,0,1,251,80.19a29.72,29.72,0,0,1-4.93-3A29.52,29.52,0,0,1,241.43,73.72Z" style="fill:#fff"></path><path d="M242.46,47.1A38.36,38.36,0,0,1,239,36.53l3.26-.38s2.05,7.73,3.63,9.89Z" style="fill:#e0e0e0"></path><path d="M237.16,434.1l5,41.84-11.31.11-16.07-41.91Z" style="fill:#263238"></path><path d="M70.29,230.66A26.77,26.77,0,0,1,95,203.82c29.28-2.31,76.88-5.22,100.56-2.06a21.21,21.21,0,0,1,17.94,16.49L228.25,286l62.31.82s19.39-.44,24.83,9.89c5.58,10.6,4.73,28.8,3.57,39-.77,6.78-10.46,99-10.46,99L71.9,434.3Z" style="fill:#455a64"></path><path d="M186.51,434.46l-15.85,42-11.31-.11,5-42Z" style="fill:#263238"></path><polygon points="306.17 434.26 309.85 474.81 298.54 474.7 284.38 434.21 306.17 434.26" style="fill:#263238"></polygon><path d="M97.66,434.14,81.6,476.28l-11.31-.11,5-42.07Z" style="fill:#263238"></path><path d="M235.6,277.9a51.91,51.91,0,0,1-10.44-1.07l.86-3.9c.16,0,15.83,3.4,22.74-2.59,2.42-2.1,3.45-5.12,3.14-9.23-.76-10.05-5.49-16.62-10.06-23s-8.75-12.16-8.75-20.57c0-17.14,7.63-21.53,20.17-26.71a7.91,7.91,0,0,0,4.65-6.62c.25-3.63-2.16-7.12-6.8-9.83-1.7-1-3.27-1.83-4.66-2.56-10-5.29-12.83-7.84-11.44-30.69.82-13.56,3.05-20.06,4.84-25.29,1.67-4.84,2.87-8.34,2.16-15.74l4-.38c.79,8.26-.6,12.3-2.35,17.42s-3.85,11.21-4.64,24.23c-1.29,21.3,1,22.49,9.32,26.92,1.43.75,3,1.6,4.81,2.63,8.12,4.75,9,10.54,8.77,13.57a11.88,11.88,0,0,1-7.11,10c-11.62,4.8-17.69,8-17.7,23,0,7.12,3.71,12.27,8,18.23,4.67,6.49,10,13.84,10.81,25,.4,5.38-1.11,9.61-4.52,12.55C247.22,277,241,277.9,235.6,277.9Z" style="fill:#e0e0e0"></path><path d="M236,276.53a49.21,49.21,0,0,1-9.61-1l.22-1c.16,0,15.77,3.42,23.07-2.91,2.8-2.42,4.05-6,3.69-10.66-.79-10.47-5.64-17.22-10.34-23.74-4.35-6-8.46-11.76-8.46-19.69,0-16.54,7.32-20.39,19.24-25.32a9.38,9.38,0,0,0,5.58-7.91c.29-4.23-2.39-8.22-7.55-11.23-1.72-1-3.31-1.84-4.7-2.58-9-4.77-12-6.37-10.66-29.28.81-13.36,3-19.75,4.77-24.89s3-8.65,2.23-16.37l1-.1c.77,7.94-.57,11.85-2.27,16.79s-3.92,11.41-4.72,24.63c-1.35,22.26,1.31,23.67,10.12,28.33,1.41.75,3,1.59,4.75,2.61,7.42,4.33,8.22,9.48,8,12.16a10.38,10.38,0,0,1-6.19,8.76c-11.89,4.91-18.62,8.47-18.63,24.4,0,7.61,4,13.19,8.28,19.11,4.55,6.32,9.71,13.49,10.52,24.24.38,5-1,8.86-4,11.5C246.58,275.69,240.9,276.53,236,276.53Z" style="fill:#FF725E"></path><path d="M192.72,368.77c0,.12,6.65-2,14.75-4.69s14.65-5,14.61-5.12-6.64,2-14.75,4.68S192.68,368.65,192.72,368.77Z" style="fill:#455a64"></path><path d="M164.34,328.43l24.88-3.38s47.73-7.32,74-10.57a64.62,64.62,0,0,1,16.12,0c9.64,1.93,15.77,18.31,17.05,32.93C297,354.75,298,448,298,448l-21-.06L266.66,392l-3.46-35.89L223,366.35l-52.61-.18C163.91,361.08,164.34,328.43,164.34,328.43Z" style="fill:#ffbf9d"></path><path d="M263.22,341.79a6.35,6.35,0,0,0,0,1.35c0,.86.16,2.11.33,3.65.33,3.07.89,7.31,1.56,12s1.34,8.9,1.85,11.94c.26,1.53.48,2.76.65,3.61a7.5,7.5,0,0,0,.31,1.31,8.15,8.15,0,0,0-.13-1.34c-.13-.94-.3-2.16-.5-3.63-.45-3.14-1.05-7.33-1.71-12s-1.25-8.81-1.7-11.95c-.19-1.47-.35-2.69-.48-3.63A7.46,7.46,0,0,0,263.22,341.79Z" style="fill:#455a64"></path><path d="M257,345.71a4.62,4.62,0,0,0,.48,1.75,14.12,14.12,0,0,0,2.27,3.77,13.74,13.74,0,0,0,3.31,2.89,5,5,0,0,0,1.65.78,19,19,0,0,1-7.71-9.19Z" style="fill:#455a64"></path><path d="M274.25,431.92l3.22,18.82-1.38,8.38-.43,9.53a5.3,5.3,0,0,0,4.92,5.63l50.24,1.43a1.81,1.81,0,0,0,1.69-1c.73-1.53,1.51-4.37-1.45-6.18C327.56,466.35,298,448,298,448l-.42-17.24Z" style="fill:#ffbf9d"></path><path d="M299.13,476.28s-.88-14.66,9.1-21.23l.83-.33s22.38,13,24,15c2.82,3.45.73,6.29.73,6.29Z" style="fill:#FF725E"></path><rect x="272.24" y="473.18" width="28.21" height="1.97" style="fill:#FF725E"></rect><path d="M204.51,282.58S208.11,301,215.58,304s51.78,2.37,51.78,2.37l1.92-13.08-40.88-9.76-4.21-18.87-21.54,1.49Z" style="fill:#ffbf9d"></path><path d="M260.39,292.89a46.07,46.07,0,0,1,9.08-2.2c4.7-.58,14.07.35,14.73.5s9.39,5.34,9.39,5.34l5.68,7.28s-1,2.69-3.38,0a45.45,45.45,0,0,0-4.31-4.34l-6.3-2.46,5.41,4.33,4.83,10.39s-1.89,2.09-3.69,0-5-5.9-5-5.9l2.73,7.28s-1.2,1.9-2.73.47a28.83,28.83,0,0,1-2.45-2.58s-.82,2.33-2.28.45a20.55,20.55,0,0,0-3.18-3.22l-6-2.17s-6.43.81-9.33-.22S260.39,292.89,260.39,292.89Z" style="fill:#ffbf9d"></path><path d="M222.3,290.28a9,9,0,0,1,6.59-6.69,14.08,14.08,0,0,0-6.59,6.69Z" style="fill:#ff9a6c"></path><path d="M264.67,296.82a8.19,8.19,0,0,0,7.38,4.28c1.66-.06,3.32-.63,4.95-.29,2.26.47,3.79,2.55,5.82,3.65.93.5,2.3.68,2.87-.22a2.3,2.3,0,0,0-.08-2,14.52,14.52,0,0,0-9-8.46" style="fill:#ffbf9d"></path><path d="M276.64,293.74s.14,0,.39.08a9.31,9.31,0,0,1,1.07.37,13.72,13.72,0,0,1,3.58,2.19,14.49,14.49,0,0,1,3.81,4.92,7.44,7.44,0,0,1,.62,1.74,2.18,2.18,0,0,1-.06,1,1.55,1.55,0,0,1-.72.83,2.66,2.66,0,0,1-2.09,0,7.32,7.32,0,0,1-1.78-1,28,28,0,0,0-3.12-2.3A5.33,5.33,0,0,0,275,301a25.7,25.7,0,0,1-3.31.32,8.18,8.18,0,0,1-2.87-.63,8,8,0,0,1-3.33-2.54,5.85,5.85,0,0,1-.62-1c-.12-.24-.17-.36-.15-.37s.29.46.92,1.2a8.37,8.37,0,0,0,3.32,2.33,7.81,7.81,0,0,0,2.74.53,23.7,23.7,0,0,0,3.25-.36,7.54,7.54,0,0,1,1.84,0,5.74,5.74,0,0,1,1.84.63,26.54,26.54,0,0,1,3.19,2.33,7.09,7.09,0,0,0,1.64,1,2.18,2.18,0,0,0,1.68,0,1.19,1.19,0,0,0,.53-1.34,7.08,7.08,0,0,0-.56-1.62,14.67,14.67,0,0,0-3.62-4.84A18,18,0,0,0,276.64,293.74Z" style="fill:#ff9a6c"></path><polygon points="217.37 276.21 225.88 272.2 227.06 277.5 218.76 281.53 217.37 276.21" style="fill:#e0e0e0"></polygon><path d="M137.5,328.22,157.06,322s50.18-5.07,76.43-8.32a44.75,44.75,0,0,1,14.27.35c9.64,1.93,12.88,13.51,14.54,20.7s4.41,115.05,4.41,115.05l-22.49,1.5-11.43-43.33a145.65,145.65,0,0,1-5.51-30.43l-1.23-17.08-33.58,6.52-47.53-.36C138.44,361.48,137.5,328.22,137.5,328.22Z" style="fill:#ffbf9d"></path><path d="M223.68,343.49a8.6,8.6,0,0,0,0,1.34c.06.87.17,2.12.33,3.66.34,3.07.89,7.31,1.56,12s1.34,8.89,1.86,11.94c.25,1.53.48,2.76.64,3.61a7.84,7.84,0,0,0,.31,1.31,6,6,0,0,0-.13-1.34c-.13-.94-.29-2.16-.49-3.63-.45-3.14-1.05-7.33-1.72-12s-1.25-8.81-1.69-11.95c-.2-1.47-.36-2.69-.48-3.63A7.93,7.93,0,0,0,223.68,343.49Z" style="fill:#455a64"></path><path d="M217.44,347.41a5.16,5.16,0,0,0,.48,1.75,14.14,14.14,0,0,0,5.59,6.66,5,5,0,0,0,1.64.78,19.13,19.13,0,0,1-7.71-9.19Z" style="fill:#455a64"></path><path d="M240.08,431.44l4.37,20.88-.67,10.32-.44,6a5.3,5.3,0,0,0,4.92,5.63l50.12,1.07a3.09,3.09,0,0,0,2.16-1.48c.73-1.54,1.15-3.56-1.8-5.37-3.5-2.15-32-18.76-32-18.76l-.94-19.13Z" style="fill:#ffbf9d"></path><path d="M266.71,476.05s-1.39-14.73,8.59-21.3l.83-.34s22.39,13,24,15a6.3,6.3,0,0,1,.95,6.85Z" style="fill:#FF725E"></path><rect x="239.31" y="472.88" width="28.21" height="3.4" style="fill:#FF725E"></rect><path d="M300.85,475.72s.09-.49.19-1.35a6.58,6.58,0,0,0-.55-3.54,5.33,5.33,0,0,0-1.55-1.91c-.71-.54-1.57-1.05-2.44-1.61l-5.73-3.57-10.4-6.51-3.13-2a6.06,6.06,0,0,1-1.11-.8,7.25,7.25,0,0,1,1.21.63l3.22,1.87c2.7,1.61,6.41,3.86,10.48,6.39,2,1.26,4,2.48,5.72,3.61.87.57,1.7,1.09,2.45,1.68a5.84,5.84,0,0,1,1.62,2.08,6.48,6.48,0,0,1,.41,3.73,6.62,6.62,0,0,1-.25,1C300.92,475.61,300.87,475.72,300.85,475.72Z" style="fill:#263238"></path><path d="M219.21,314.08l-12.84-18.6c2.59-14,5.3-19.66,6.72-26.61,3.83-19.42-4-40.91-4-40.91l-3.86-18.19-16.25-5-22.39-.52-21.48,3.84-6.53,77.39c-4.23,24.39-.92,39-1.09,42.69Z" style="fill:#FF725E"></path><path d="M142.93,366.83l79.12.06-.48,9.86s10.88,7,28.34,4.75c12.87-1.63,29.85-6.84,37.9-9.48a14,14,0,0,1,9.29.22l4.73,1.79-5.69-38.35s-4.37-24.52-25-23.71S250,314.54,250,314.54a24.54,24.54,0,0,0-12.82-3.22c-7.49.2-99.88,6.52-99.88,6.52C136.88,337.52,136.77,354.77,142.93,366.83Z" style="fill:#FF725E"></path><path d="M221.08,313.72c0,.14-9.54,2.1-21.36,4.37s-21.42,4-21.45,3.87,9.53-2.1,21.36-4.38S221.05,313.58,221.08,313.72Z" style="fill:#263238"></path><path d="M269.15,368.83a2.32,2.32,0,0,1-.15-.59c-.08-.45-.19-1-.33-1.73-.27-1.56-.65-3.72-1.11-6.35-.91-5.43-2.14-12.82-3.49-21a65.67,65.67,0,0,0-2.62-11.36,25.38,25.38,0,0,0-4.61-8.23,17.93,17.93,0,0,0-4.89-4.06c-1.33-.73-2.14-1-2.12-1a2.32,2.32,0,0,1,.59.17,10.33,10.33,0,0,1,1.62.69,17.24,17.24,0,0,1,5.08,4,25.21,25.21,0,0,1,4.78,8.31,62.83,62.83,0,0,1,2.68,11.43c1.3,8.18,2.47,15.58,3.34,21,.39,2.65.72,4.81.95,6.38.1.71.17,1.29.24,1.74A2.8,2.8,0,0,1,269.15,368.83Z" style="fill:#263238"></path><path d="M205.24,209.77s7.91.91,13.52,11.93S232.08,264,232.08,264l-28.39,2.28Z" style="fill:#FF725E"></path><path d="M211.11,273.53a50.52,50.52,0,0,0,1.41-6.21,45.73,45.73,0,0,0,.38-6.89,79.9,79.9,0,0,0-.67-8.44c-.81-6-2-11.3-2.85-15.16-.41-1.87-.75-3.41-1-4.58a9.6,9.6,0,0,1-.3-1.69,11.27,11.27,0,0,1,.49,1.64c.29,1.07.69,2.62,1.16,4.54a144.07,144.07,0,0,1,3,15.18,73.14,73.14,0,0,1,.63,8.5,40.75,40.75,0,0,1-.5,7c-.08.48-.16.95-.23,1.39s-.22.84-.31,1.23a15,15,0,0,1-.58,1.94A11.06,11.06,0,0,1,211.11,273.53Z" style="fill:#263238"></path><path d="M217.33,357.31a72.74,72.74,0,0,1,5.5,11.15,38.91,38.91,0,0,1-3-5.46A37.05,37.05,0,0,1,217.33,357.31Z" style="fill:#263238"></path><path d="M203.69,366.83s-1.25-36.16-5.11-47.68-23.35-18.37-23.35-18.37l-8.18,4.09,21.06,61.88Z" style="opacity:0.30000000000000004"></path><path d="M252.72,315.83a13.05,13.05,0,0,1,12,7.89c3.67,8.24,12.72,51.53,12.72,51.53l-8.11,2.25-5.82-41.95A26.75,26.75,0,0,0,252.72,315.83Z" style="opacity:0.30000000000000004"></path><polygon points="143.34 281.53 146.47 269.05 150.72 269.05 155.25 239.82 144.8 260.68 140.2 281.53 143.34 281.53" style="opacity:0.30000000000000004"></polygon><path d="M146.11,208s-14,1.09-19.92,16.44c-5,13.06-13.84,32.61-13.84,32.61l35.24,9.34s7.35-23.66,10-37.71C160,216.44,147.43,209.29,146.11,208Z" style="fill:#FF725E"></path><path d="M118.6,258.67s-6.44,19.86-6,30.93c0,.11,0,.22,0,.33a15.22,15.22,0,0,0,15.26,14.47h61.08l-2.7-14.74-45.38-9.13,3.22-15.12Z" style="fill:#ffbf9d"></path><path d="M133.34,285.8a9.44,9.44,0,0,1,8-5.34,22.14,22.14,0,0,0-4.43,2A21.93,21.93,0,0,0,133.34,285.8Z" style="fill:#ff9a6c"></path><path d="M186.21,289.66A55.5,55.5,0,0,1,197,293c5.25,2.32,14.42,9.14,15,9.7s6.44,11.42,6.44,11.42l1.37,11.11s-4.18,1.68-5-2.64-1.49-6.94-1.49-6.94l-3.84-6.25,2,6.78L211.05,329s-3.27,1-3.85-2.3-1.53-7.11-1.53-7.11l-1.7,9.27s-2.43,1.23-3.13-1.21a36.72,36.72,0,0,1-1-4.22s-2.3,1.92-2.65-.95a25.25,25.25,0,0,0-1.3-5.33l-4.93-6s-7.2-3.16-9.58-6S186.21,289.66,186.21,289.66Z" style="fill:#ffbf9d"></path><path d="M194.73,307.64a11,11,0,0,1,2.14,1.66,22,22,0,0,1,2.07,2.11,9.26,9.26,0,0,1,1.84,3.17,16.73,16.73,0,0,1,.2,6.58,9,9,0,0,1-.58,1.92c-.19.43-.34.65-.37.64s.37-1,.58-2.61a18.91,18.91,0,0,0-.33-6.38,9.47,9.47,0,0,0-1.71-3c-.68-.84-1.37-1.55-1.95-2.14A20.15,20.15,0,0,1,194.73,307.64Z" style="fill:#ff9a6c"></path><path d="M201.16,306.13a7.86,7.86,0,0,1,1.47,1.66,20.38,20.38,0,0,1,2.65,4.65,13.38,13.38,0,0,1,.79,2.86,10.27,10.27,0,0,1,.09,2.43,5.32,5.32,0,0,1-.54,2.15c-.1,0,.13-.84.17-2.17a11.87,11.87,0,0,0-.19-2.33,16.12,16.12,0,0,0-.8-2.75,27.12,27.12,0,0,0-2.47-4.63A12.23,12.23,0,0,1,201.16,306.13Z" style="fill:#ff9a6c"></path><path d="M112.35,257a6.45,6.45,0,0,1,.71.14l2,.48,7.55,1.85L148.52,266l-.31.19c.81-4,1.9-8.12,3-12.43,1.68-6.7,3.37-13.07,4.71-18.9a37.22,37.22,0,0,0,.94-8.37,21.46,21.46,0,0,0-1.28-7.19,14.7,14.7,0,0,0-6.81-7.84,13.35,13.35,0,0,0-3.71-1.19h.26c.17,0,.43,0,.76.09a11,11,0,0,1,2.78.91,14.69,14.69,0,0,1,7.06,7.89,21.14,21.14,0,0,1,1.37,7.31,37.6,37.6,0,0,1-.9,8.49c-1.32,5.85-3,12.21-4.68,18.92-1.07,4.3-2.17,8.48-3,12.4l0,.26-.26-.07-25.83-6.71-7.51-2-2-.56A4.24,4.24,0,0,1,112.35,257Z" style="fill:#263238"></path><path d="M159.11,178.55c-9.05-3.74-16.68,1.22-22.68,8.46,8.5,3.43,19.34,2.3,22.68-8.46Z" style="fill:#FF725E"></path><path d="M160.22,179c-9.25,3.21-11.66,12-11.36,21.38,8.64-3.07,16-11.11,11.36-21.38Z" style="fill:#FF725E"></path><path d="M207.64,161.47s4.15-25.42-19.81-31.18c-12.47-3-21.71,1.27-27.27,7.42-6,6.61-8.33,14.41-8.33,23.45A36,36,0,0,0,163,186.57Z" style="fill:#FF725E"></path><path d="M191.6,209.34c.32-5.18.43-7.3.43-7.25s11.9-2.3,14.88-16.45c1.48-7,.83-17.65.7-27.19-.11-8.58-7.47-20.23-18.07-20.22l-4.71-.52-18,7.25a5,5,0,0,0-4.74,4.86l.15,56.57,5.68,3.87c7.64,6.42,20.91,5.44,23.68-.92Z" style="fill:#ffbf9d"></path><path d="M201.57,168.77a1.84,1.84,0,0,1-1.86,1.76,1.75,1.75,0,0,1-1.8-1.74,1.83,1.83,0,0,1,1.85-1.76A1.76,1.76,0,0,1,201.57,168.77Z" style="fill:#263238"></path><path d="M183,168.4a1.83,1.83,0,0,1-1.85,1.76,1.77,1.77,0,0,1-1.81-1.75,1.84,1.84,0,0,1,1.86-1.75A1.74,1.74,0,0,1,183,168.4Z" style="fill:#263238"></path><path d="M204.73,163.27c-.24.23-1.57-.87-3.54-1s-3.46.82-3.66.56.15-.53.8-1a5,5,0,0,1,2.95-.75,4.8,4.8,0,0,1,2.8,1.06C204.67,162.73,204.85,163.17,204.73,163.27Z" style="fill:#263238"></path><path d="M184.79,163c-.23.25-1.63-.76-3.6-.72s-3.4,1-3.62.82.12-.54.74-1a5.05,5.05,0,0,1,2.89-1,4.87,4.87,0,0,1,2.87.87C184.68,162.49,184.9,162.91,184.79,163Z" style="fill:#263238"></path><path d="M191.78,178.67a13.22,13.22,0,0,1,3.23-.41c.5,0,1-.11,1.08-.44a2.5,2.5,0,0,0-.26-1.51l-1.29-3.9c-1.79-5.55-3.06-10.11-2.84-10.18s1.86,4.37,3.65,9.93c.43,1.36.84,2.67,1.23,3.92a2.87,2.87,0,0,1,.16,2,1.25,1.25,0,0,1-.86.7,3.38,3.38,0,0,1-.86.07A12.16,12.16,0,0,1,191.78,178.67Z" style="fill:#263238"></path><path d="M192,202A36.3,36.3,0,0,1,173.13,196s4.3,10.11,18.65,9.49Z" style="fill:#ff9a6c"></path><path d="M190.71,183.38a3.54,3.54,0,0,0-3.11-1.48,3.25,3.25,0,0,0-2.3,1.09,2,2,0,0,0-.27,2.33,2.36,2.36,0,0,0,2.54.79,7.42,7.42,0,0,0,2.6-1.38,2.38,2.38,0,0,0,.59-.55.69.69,0,0,0,0-.74" style="fill:#ff9a6c"></path><path d="M185.92,179.74c.32,0,.22,2.14,2,3.75s4,1.48,4,1.78c0,.14-.53.39-1.49.37a5.33,5.33,0,0,1-3.38-1.37,4.59,4.59,0,0,1-1.51-3.13C185.51,180.24,185.77,179.73,185.92,179.74Z" style="fill:#263238"></path><path d="M185.51,157.77c-.29.48-1.86-.17-3.85-.37s-3.69,0-3.83-.49c-.06-.25.33-.68,1.08-1a5.77,5.77,0,0,1,3-.45,5.46,5.46,0,0,1,2.81,1.11C185.38,157,185.64,157.54,185.51,157.77Z" style="fill:#263238"></path><path d="M204.45,158.07c-.37.43-1.7-.1-3.33-.21s-3,.15-3.32-.33c-.13-.23.11-.67.74-1.06a4.81,4.81,0,0,1,5.35.43C204.45,157.39,204.61,157.86,204.45,158.07Z" style="fill:#263238"></path><path d="M163.56,171.48s2.18-15,11.55-24.62c7.26-7.49,19.1-8.93,27.26-.22,1.37,1.46,3.27,2.68,5.27,9.21,0,0-1.36-20.26-19.41-22.49-17-2.1-25.75,9.21-28.53,17.42-2.7,8-2,20.7-2,20.7Z" style="fill:#FF725E"></path><path d="M165.12,170.16c0-1.06-1.88-1.3-2.92-1.52-2.78-.58-7.84-.61-8.24,6.5-.55,9.72,9.32,8.27,9.35,8S165,173.83,165.12,170.16Z" style="fill:#ffbf9d"></path><path d="M160.55,179.28s-.17.11-.47.23a1.71,1.71,0,0,1-1.27,0c-1-.43-1.77-2.11-1.72-3.87a5.56,5.56,0,0,1,.61-2.39,2,2,0,0,1,1.35-1.23.86.86,0,0,1,1,.52c.12.28,0,.47.09.49s.22-.15.17-.56a1.09,1.09,0,0,0-.35-.63,1.28,1.28,0,0,0-.92-.3,2.38,2.38,0,0,0-1.86,1.41,5.74,5.74,0,0,0-.74,2.67c0,2,.85,3.85,2.23,4.34a1.83,1.83,0,0,0,1.57-.17C160.52,179.52,160.58,179.3,160.55,179.28Z" style="fill:#ff9a6c"></path><path d="M176.53,139.26c.06.09-1.59,1.16-3.91,3.3a38.39,38.39,0,0,0-3.78,4.05,42.36,42.36,0,0,0-3.76,5.63,41.78,41.78,0,0,0-2.71,6.2A37.29,37.29,0,0,0,161,163.8c-.56,3.11-.57,5.08-.68,5.07a7,7,0,0,1,0-1.38,14.68,14.68,0,0,1,.09-1.62,21.27,21.27,0,0,1,.25-2.13,35.92,35.92,0,0,1,1.29-5.45,36.26,36.26,0,0,1,6.56-12,35.19,35.19,0,0,1,3.9-4c.58-.55,1.17-1,1.66-1.36a13.35,13.35,0,0,1,1.32-1A7.13,7.13,0,0,1,176.53,139.26Z" style="fill:#263238"></path><path d="M200.58,139.12a41,41,0,0,0-4.49-2.72A23.88,23.88,0,0,0,172,138a43,43,0,0,0-4.1,3.28,6.33,6.33,0,0,1,.93-1.08,21.4,21.4,0,0,1,3-2.51,23.34,23.34,0,0,1,24.43-1.6,20.86,20.86,0,0,1,3.27,2.1A6.16,6.16,0,0,1,200.58,139.12Z" style="fill:#263238"></path><path d="M78.81,226.28s6.19-3,7.66,5.39,11.64,70,11.64,70l63.19-.5s22.09-2.34,31.15,20.47c6.34,15.95,4.07,72.16,4.07,72.16l-1.2,39.29H81.06s-3.53-82.36-4.11-119S75.1,237.54,78.81,226.28Z" style="fill:#455a64"></path><path d="M197.15,434.41c-.15,0-.26-18.22-.26-40.68S197,353,197.15,353s.26,18.21.26,40.69S197.29,434.41,197.15,434.41Z" style="fill:#263238"></path><path d="M158,434.41c-.15,0-.26-27.25-.26-60.85s.11-60.86.26-60.86.26,27.24.26,60.86S158.14,434.41,158,434.41Z" style="fill:#263238"></path></g></svg>
