<svg xmlns="http://www.w3.org/2000/svg" viewBox="0 0 500 500"><g id="freepik--background-simple--inject-151"><path d="M352.61,56.58c-24.29,1-48.11,4.44-65.95,6.12-42.15,4-84.25,8.5-126.06,14.58C133.46,81.23,106,84.51,79.74,92c-15.41,4.41-34.47,11.17-39.92,27-6.29,18.23,3.71,41.81,8.59,59.64,9.43,34.53,22,68.41,35.68,101.71,18.52,45,38,96.42,70.46,134.81,43.4,51.35,163.14,60.24,211.76-9.64s103.75-252,92.48-298.33C447.71,61.65,399.29,54.64,352.61,56.58Z" style="fill:#D05542"></path><path d="M352.61,56.58c-24.29,1-48.11,4.44-65.95,6.12-42.15,4-84.25,8.5-126.06,14.58C133.46,81.23,106,84.51,79.74,92c-15.41,4.41-34.47,11.17-39.92,27-6.29,18.23,3.71,41.81,8.59,59.64,9.43,34.53,22,68.41,35.68,101.71,18.52,45,38,96.42,70.46,134.81,43.4,51.35,163.14,60.24,211.76-9.64s103.75-252,92.48-298.33C447.71,61.65,399.29,54.64,352.61,56.58Z" style="fill:#fff;opacity:0.7000000000000001"></path></g><g id="freepik--Line--inject-151"><line x1="253.99" y1="36.31" x2="253.99" y2="452.34" style="fill:none;stroke:#263238;stroke-linecap:round;stroke-linejoin:round"></line></g><g id="freepik--Plants--inject-151"><path d="M150.36,393.58c-2,.83-6.8.65-6.81.65s1.09-3.14,1.18-3.33c1.09-2.19,4.5-5.8,7.21-5.39a3.26,3.26,0,0,1,2.55,4.12C154,391.51,152.05,392.88,150.36,393.58Z" style="fill:#263238"></path><path d="M95.16,396.51c1.91-.05,5.52-1.73,6.31-2.11.65,1.1,1.3,2.24,1.9,3.48a40.71,40.71,0,0,1,2.77,6.9c0,.14.07.29.1.43-.27-.42-1.95-2.59-2.08-2.72-1.72-1.76-6-4.15-8.52-2.93a3.26,3.26,0,0,0-1.16,4.7c1,1.64,3.31,2.34,5.14,2.5,2.1.18,6.48-1.4,6.65-1.45a57.73,57.73,0,0,1,1.47,7.27c.25,1.82.44,3.67.61,5.53-.38-.53-1.94-2.55-2.06-2.68-1.72-1.76-6.06-4.15-8.52-2.92a3.24,3.24,0,0,0-1.16,4.69c1,1.64,3.31,2.35,5.14,2.5,2,.18,6.26-1.31,6.61-1.44.08.85.15,1.69.22,2.53.23,2.77.44,5.54.74,8.27.1.94.24,1.87.37,2.8-.58-.78-1.67-2.18-1.78-2.29-1.71-1.75-6-4.14-8.51-2.92a3.25,3.25,0,0,0-1.16,4.69c1,1.64,3.31,2.35,5.14,2.51s5.39-1,6.39-1.37c.23,1.55.5,3.07.83,4.57.15.64.27,1.3.46,1.91l.51,1.82c.4,1.24.76,2.39,1.16,3.52.2.58.4,1.12.59,1.68-.47-.88-1.24-2.26-1.32-2.38-1.43-2-5.35-5-8-4.18a3.26,3.26,0,0,0-1.87,4.47c.78,1.78,2.93,2.82,4.71,3.25,2,.48,6.2-.31,6.72-.42.49,1.37,1,2.69,1.47,3.92l.61,1.55,1.83,0q-.47-1.05-.93-2.19c-.46-1.1-.93-2.27-1.41-3.49.47-.22,4.1-1.94,5.53-3.44a35.82,35.82,0,0,0,3.73,1.82c-.34,1.41-.66,2.79-.93,4.08s-.47,2.26-.68,3.3h1.73c.16-.95.34-1.94.54-3s.48-2.41.75-3.68c.54.08,4.8.68,6.74.12,1.76-.51,3.86-1.65,4.55-3.46a3.24,3.24,0,0,0-2.06-4.37c-2.65-.72-6.44,2.46-7.78,4.52-.08.13-.92,1.8-1.33,2.66.17-.77.34-1.53.53-2.33.26-1.14.58-2.35.88-3.52.17-.6.35-1.2.53-1.82s.41-1.19.62-1.8c.31-.88.68-1.78,1.05-2.67,1.16.34,4.56,1.27,6.31,1s4.07-1,5-2.72a3.25,3.25,0,0,0-1.37-4.64c-2.51-1.12-6.74,1.46-8.37,3.29-.06.06-.36.48-.72,1,.39-.86.77-1.73,1.19-2.59,1.19-2.44,2.49-4.89,3.77-7.35l.79-1.55c1,.29,4.65,1.34,6.49,1.1s4.07-1,5-2.73a3.23,3.23,0,0,0-1.36-4.63c-2.51-1.12-6.75,1.46-8.38,3.29-.06.06-.42.57-.82,1.14.68-1.35,1.34-2.7,2-4.06a58.82,58.82,0,0,0,2.72-7.18c.34.1,4.62,1.42,6.67,1.15,1.82-.23,4.07-1,5-2.72a3.25,3.25,0,0,0-1.37-4.64c-2.51-1.12-6.74,1.46-8.38,3.29-.11.13-1.41,2-1.86,2.64l0-.09a42.23,42.23,0,0,0,1.36-7.41,56.46,56.46,0,0,0,.27-6.73c0-2.09-.16-4-.3-5.68q-.13-1.37-.27-2.52l0,0s1-3.16,1.05-3.37c.44-2.41-.12-7.34-2.54-8.63a3.24,3.24,0,0,0-4.5,1.77c-.74,1.79,0,4.06.93,5.64s4.09,3.9,4.88,4.46c.08.81.16,1.68.23,2.63.1,1.69.21,3.59.18,5.67,0,.55,0,1.15-.06,1.73-.17-1-.42-2.32-.46-2.45-.72-2.35-3.49-6.45-6.24-6.49a3.25,3.25,0,0,0-3.18,3.65c.17,1.93,1.88,3.6,3.43,4.57s5.56,1.6,6.42,1.72c-.06,1.28-.15,2.59-.32,4a42.2,42.2,0,0,1-1.5,7.29c0,.14-.11.27-.15.41,0-.5-.21-3.23-.24-3.42-.46-2.41-2.76-6.8-5.49-7.14a3.26,3.26,0,0,0-3.56,3.28c0,1.94,1.47,3.78,2.91,4.92,1.65,1.31,6.17,2.41,6.34,2.46a58.27,58.27,0,0,1-2.78,6.88c-.79,1.65-1.66,3.3-2.54,4.94,0-.65-.21-3.19-.25-3.37-.45-2.41-2.76-6.8-5.48-7.14a3.25,3.25,0,0,0-3.56,3.28c0,1.94,1.47,3.78,2.9,4.92,1.62,1.28,6,2.36,6.31,2.45-.4.74-.8,1.49-1.21,2.23-1.34,2.43-2.68,4.86-3.94,7.3-.44.84-.84,1.69-1.24,2.54-.06-1-.19-2.74-.22-2.89-.46-2.41-2.76-6.79-5.49-7.13a3.25,3.25,0,0,0-3.56,3.27c0,1.94,1.47,3.79,2.91,4.93s5.06,2.12,6.09,2.38c-.67,1.42-1.29,2.84-1.84,4.27-.22.62-.49,1.24-.67,1.84l-.57,1.81c-.35,1.25-.68,2.41-1,3.58-.15.59-.29,1.15-.43,1.72.09-1,.21-2.57.21-2.71-.09-2.45-1.7-7.14-4.35-7.88a3.24,3.24,0,0,0-4,2.69,3.5,3.5,0,0,0-.06.72,12.66,12.66,0,0,0-1.79,6.11c0,.16.23,2,.36,3-.28-.73-.56-1.46-.84-2.23-.42-1.1-.82-2.28-1.21-3.42-.19-.6-.37-1.21-.56-1.82s-.32-1.22-.48-1.84c-.23-.91-.41-1.86-.6-2.81,1.15-.35,4.5-1.45,5.85-2.61s2.81-3.11,2.68-5.05a3.25,3.25,0,0,0-3.7-3.11c-2.71.46-4.81,4.94-5.17,7.37,0,.07,0,.59,0,1.21-.15-.93-.31-1.86-.43-2.81-.36-2.7-.63-5.45-.92-8.21-.06-.58-.12-1.15-.19-1.73,1-.29,4.61-1.45,6-2.66s2.81-3.11,2.69-5.05a3.25,3.25,0,0,0-3.7-3.11c-2.71.45-4.82,4.94-5.17,7.36,0,.09,0,.71-.06,1.41-.18-1.5-.37-3-.61-4.46a57.16,57.16,0,0,0-1.7-7.49c.35-.1,4.64-1.37,6.21-2.72,1.38-1.2,2.81-3.11,2.68-5.05a3.25,3.25,0,0,0-3.7-3.11c-2.71.46-4.81,4.94-5.17,7.37,0,.17-.09,2.42-.09,3.22a.29.29,0,0,1,0-.09,43.12,43.12,0,0,0-3-6.93,56.58,56.58,0,0,0-3.49-5.76c-1.17-1.73-2.34-3.24-3.39-4.57-.57-.71-1.11-1.36-1.61-1.95h0c.06,0-.9-3.2-1-3.39-1-2.26-4.15-6.05-6.89-5.8a3.24,3.24,0,0,0-2.77,4c.37,1.9,2.24,3.38,3.89,4.19s5.57,1,6.53,1c.52.63,1.06,1.31,1.64,2.07,1,1.35,2.16,2.88,3.28,4.63.3.46.6,1,.91,1.47-.69-.73-1.64-1.7-1.74-1.79-1.9-1.56-6.47-3.45-8.78-2a3.26,3.26,0,0,0-.65,4.8C91,396.1,93.33,396.56,95.16,396.51Z" style="fill:#263238"></path><path d="M101.58,393.89s-.82-3.22-.85-3.43c-.3-2.43.55-7.31,3-8.47a3.25,3.25,0,0,1,4.39,2c.64,1.83-.24,4.05-1.26,5.58C105.71,391.38,101.59,393.89,101.58,393.89Z" style="fill:#263238"></path><path d="M400.31,393.58c-2,.83-6.81.65-6.81.65s1.08-3.14,1.18-3.33c1.09-2.19,4.49-5.8,7.21-5.39a3.26,3.26,0,0,1,2.54,4.12C404,391.51,402,392.88,400.31,393.58Z" style="fill:#263238"></path><path d="M345.1,396.51c1.91-.05,5.52-1.73,6.31-2.11.66,1.1,1.3,2.24,1.91,3.48a41.56,41.56,0,0,1,2.77,6.9c0,.14.06.29.1.43-.28-.42-1.95-2.59-2.09-2.72-1.71-1.76-6.05-4.15-8.51-2.93a3.26,3.26,0,0,0-1.17,4.7c1,1.64,3.32,2.34,5.14,2.5,2.11.18,6.49-1.4,6.65-1.45a56,56,0,0,1,1.47,7.27c.26,1.82.44,3.67.61,5.53-.37-.53-1.93-2.55-2.06-2.68-1.71-1.76-6.05-4.15-8.51-2.92a3.25,3.25,0,0,0-1.17,4.69c1,1.64,3.32,2.35,5.14,2.5,2.06.18,6.26-1.31,6.61-1.44.08.85.16,1.69.23,2.53.22,2.77.44,5.54.74,8.27.1.94.23,1.87.36,2.8-.58-.78-1.66-2.18-1.77-2.29-1.71-1.75-6.05-4.14-8.51-2.92a3.24,3.24,0,0,0-1.17,4.69c1,1.64,3.32,2.35,5.14,2.51s5.4-1,6.4-1.37c.23,1.55.49,3.07.82,4.57.16.64.28,1.3.46,1.91s.35,1.22.52,1.82c.39,1.24.76,2.39,1.15,3.52.2.58.4,1.12.6,1.68-.47-.88-1.24-2.26-1.33-2.38-1.42-2-5.35-5-8-4.18a3.26,3.26,0,0,0-1.86,4.47c.77,1.78,2.92,2.82,4.7,3.25,2,.48,6.2-.31,6.72-.42.5,1.37,1,2.69,1.47,3.92l.62,1.55,1.82,0-.93-2.19c-.46-1.1-.93-2.27-1.4-3.49.47-.22,4.1-1.94,5.53-3.44a35.82,35.82,0,0,0,3.73,1.82c-.35,1.41-.67,2.79-.94,4.08s-.47,2.26-.67,3.3h1.72c.17-.95.34-1.94.55-3s.47-2.41.75-3.68c.53.08,4.79.68,6.73.12,1.76-.51,3.86-1.65,4.56-3.46a3.25,3.25,0,0,0-2.06-4.37c-2.65-.72-6.44,2.46-7.78,4.52-.09.13-.92,1.8-1.33,2.66.17-.77.33-1.53.52-2.33.27-1.14.58-2.35.88-3.52.18-.6.36-1.2.54-1.82s.41-1.19.61-1.8c.32-.88.69-1.78,1.06-2.67,1.15.34,4.55,1.27,6.31,1s4.06-1,5-2.72a3.25,3.25,0,0,0-1.37-4.64c-2.52-1.12-6.75,1.46-8.38,3.29-.05.06-.36.48-.72,1,.39-.86.77-1.73,1.2-2.59,1.19-2.44,2.48-4.89,3.77-7.35l.79-1.55c1,.29,4.64,1.34,6.48,1.1s4.07-1,5-2.73a3.24,3.24,0,0,0-1.37-4.63c-2.51-1.12-6.74,1.46-8.38,3.29,0,.06-.42.57-.82,1.14.68-1.35,1.34-2.7,1.95-4.06a55.71,55.71,0,0,0,2.72-7.18c.34.1,4.63,1.42,6.68,1.15,1.81-.23,4.06-1,5-2.72a3.25,3.25,0,0,0-1.37-4.64c-2.51-1.12-6.74,1.46-8.37,3.29-.12.13-1.42,2-1.86,2.64l0-.09a42.23,42.23,0,0,0,1.36-7.41,56.36,56.36,0,0,0,.26-6.73c0-2.09-.16-4-.3-5.68q-.12-1.37-.27-2.52l.05,0s1-3.16,1-3.37c.44-2.41-.13-7.34-2.55-8.63a3.24,3.24,0,0,0-4.5,1.77c-.74,1.79,0,4.06.93,5.64s4.1,3.9,4.89,4.46c.08.81.16,1.68.22,2.63.11,1.69.21,3.59.18,5.67,0,.55,0,1.15-.05,1.73-.17-1-.43-2.32-.47-2.45-.72-2.35-3.49-6.45-6.23-6.49a3.25,3.25,0,0,0-3.18,3.65c.17,1.93,1.87,3.6,3.42,4.57s5.56,1.6,6.43,1.72c-.06,1.28-.15,2.59-.33,4a41.28,41.28,0,0,1-1.5,7.29c0,.14-.1.27-.15.41,0-.5-.2-3.23-.24-3.42-.45-2.41-2.76-6.8-5.48-7.14a3.25,3.25,0,0,0-3.56,3.28c-.05,1.94,1.46,3.78,2.9,4.92,1.66,1.31,6.18,2.41,6.35,2.46a58.36,58.36,0,0,1-2.79,6.88c-.79,1.65-1.65,3.3-2.54,4.94,0-.65-.21-3.19-.24-3.37-.46-2.41-2.76-6.8-5.49-7.14a3.26,3.26,0,0,0-3.56,3.28c0,1.94,1.47,3.78,2.91,4.92,1.61,1.28,5.94,2.36,6.31,2.45-.41.74-.81,1.49-1.21,2.23-1.34,2.43-2.69,4.86-3.95,7.3-.43.84-.83,1.69-1.24,2.54-.05-1-.19-2.74-.21-2.89-.46-2.41-2.77-6.79-5.49-7.13a3.24,3.24,0,0,0-3.56,3.27c-.05,1.94,1.47,3.79,2.9,4.93s5.07,2.12,6.09,2.38c-.66,1.42-1.28,2.84-1.83,4.27-.22.62-.49,1.24-.67,1.84s-.39,1.21-.58,1.81c-.35,1.25-.68,2.41-1,3.58-.15.59-.28,1.15-.42,1.72.09-1,.21-2.57.2-2.71-.09-2.45-1.7-7.14-4.34-7.88a3.25,3.25,0,0,0-4,2.69,3.49,3.49,0,0,0,0,.72,12.66,12.66,0,0,0-1.79,6.11c0,.16.22,2,.36,3-.29-.73-.57-1.46-.85-2.23-.41-1.1-.81-2.28-1.21-3.42-.18-.6-.37-1.21-.55-1.82s-.32-1.22-.49-1.84c-.22-.91-.41-1.86-.59-2.81,1.15-.35,4.5-1.45,5.84-2.61s2.82-3.11,2.69-5.05a3.25,3.25,0,0,0-3.7-3.11c-2.71.46-4.82,4.94-5.17,7.37,0,.07,0,.59-.06,1.21-.15-.93-.31-1.86-.43-2.81-.35-2.7-.62-5.45-.91-8.21-.06-.58-.13-1.15-.19-1.73,1-.29,4.61-1.45,6-2.66s2.82-3.11,2.69-5.05a3.25,3.25,0,0,0-3.7-3.11c-2.71.45-4.82,4.94-5.17,7.36,0,.09,0,.71-.06,1.41-.17-1.5-.37-3-.61-4.46a58.81,58.81,0,0,0-1.69-7.49c.34-.1,4.64-1.37,6.2-2.72,1.39-1.2,2.82-3.11,2.69-5.05a3.25,3.25,0,0,0-3.7-3.11c-2.71.46-4.82,4.94-5.17,7.37,0,.17-.1,2.42-.1,3.22,0,0,0-.06,0-.09a42.22,42.22,0,0,0-2.95-6.93,58.45,58.45,0,0,0-3.5-5.76c-1.16-1.73-2.33-3.24-3.38-4.57q-.85-1.06-1.62-1.95h.06c.05,0-.9-3.2-1-3.39-1-2.26-4.16-6.05-6.89-5.8a3.26,3.26,0,0,0-2.78,4c.37,1.9,2.25,3.38,3.89,4.19s5.57,1,6.54,1c.51.63,1.06,1.31,1.64,2.07,1,1.35,2.15,2.88,3.27,4.63.3.46.61,1,.91,1.47-.68-.73-1.63-1.7-1.74-1.79-1.89-1.56-6.47-3.45-8.78-2a3.26,3.26,0,0,0-.64,4.8C340.93,396.1,343.27,396.56,345.1,396.51Z" style="fill:#263238"></path><path d="M351.53,393.89s-.83-3.22-.85-3.43c-.31-2.43.54-7.31,3-8.47a3.26,3.26,0,0,1,4.39,2c.63,1.83-.24,4.05-1.26,5.58C355.65,391.38,351.53,393.89,351.53,393.89Z" style="fill:#263238"></path></g><g id="freepik--Symbols--inject-151"><g style="opacity:0.30000000000000004"><path d="M393.39,312.23V301.29a108,108,0,0,0,8-7.77,34.52,34.52,0,0,0,5.69-8.21,21.19,21.19,0,0,0,2.12-9.44A10.79,10.79,0,0,0,407,269a8.71,8.71,0,0,0-11.92-.7,7,7,0,0,0-2.07,5.2,12.48,12.48,0,0,0,.17,2.17c.12.67.27,1.42.44,2.25l-8.82,1.67a19.48,19.48,0,0,1-.71-2.78,15.15,15.15,0,0,1-.26-2.78,15.71,15.71,0,0,1,4.41-11.52q4.41-4.46,12.44-4.45,8.39,0,13.07,4.72t4.68,13.37a25.13,25.13,0,0,1-2.21,10.68,33.5,33.5,0,0,1-6,8.83,101.22,101.22,0,0,1-8.48,8v8.56ZM393,330.15v-9.71h9.44v9.71Z" style="fill:none;stroke:#000;stroke-miterlimit:10"></path></g><g style="opacity:0.30000000000000004"><path d="M199.15,107.47v-8A78.84,78.84,0,0,0,205,93.81a24.94,24.94,0,0,0,4.16-6,15.44,15.44,0,0,0,1.54-6.89,7.86,7.86,0,0,0-1.57-5,6.33,6.33,0,0,0-8.7-.51,5.06,5.06,0,0,0-1.51,3.8,8.75,8.75,0,0,0,.13,1.57c.08.5.19,1,.32,1.65l-6.44,1.22a14.36,14.36,0,0,1-.52-2,11.2,11.2,0,0,1-.19-2,11.42,11.42,0,0,1,3.22-8.4q3.22-3.25,9.08-3.25,6.12,0,9.53,3.44t3.42,9.76a18.25,18.25,0,0,1-1.62,7.79,24.37,24.37,0,0,1-4.37,6.44,74.61,74.61,0,0,1-6.19,5.86v6.25Zm-.33,13.07v-7.08h6.89v7.08Z" style="fill:none;stroke:#000;stroke-miterlimit:10"></path></g><g style="opacity:0.30000000000000004"><path d="M73.4,338.2v-8a78.84,78.84,0,0,0,5.82-5.67,24.94,24.94,0,0,0,4.16-6,15.44,15.44,0,0,0,1.54-6.89,7.86,7.86,0,0,0-1.57-5,6.33,6.33,0,0,0-8.7-.51,5.05,5.05,0,0,0-1.51,3.79,8.79,8.79,0,0,0,.13,1.58c.08.5.19,1,.32,1.65l-6.44,1.22a14.36,14.36,0,0,1-.52-2,11.2,11.2,0,0,1-.19-2,11.42,11.42,0,0,1,3.22-8.4q3.23-3.26,9.08-3.25,6.12,0,9.53,3.44t3.42,9.76a18.25,18.25,0,0,1-1.62,7.79,24.53,24.53,0,0,1-4.37,6.44A74.61,74.61,0,0,1,79.51,332v6.25Zm-.33,13.07v-7.09H80v7.09Z" style="fill:none;stroke:#000;stroke-miterlimit:10"></path></g><g style="opacity:0.30000000000000004"><path d="M314.47,128.68v-5.23a52.23,52.23,0,0,0,3.82-3.71,16.41,16.41,0,0,0,2.72-3.93,10.06,10.06,0,0,0,1-4.52,5.14,5.14,0,0,0-1-3.29,3.62,3.62,0,0,0-3-1.31,3.7,3.7,0,0,0-2.68,1,3.35,3.35,0,0,0-1,2.49,5.75,5.75,0,0,0,.09,1c.05.32.12.68.21,1.07l-4.22.81a8.36,8.36,0,0,1-.34-1.33,7,7,0,0,1-.13-1.33A7.49,7.49,0,0,1,312,104.9a8,8,0,0,1,6-2.13,8.38,8.38,0,0,1,6.25,2.26,8.68,8.68,0,0,1,2.24,6.39,11.92,11.92,0,0,1-1.06,5.11,16,16,0,0,1-2.87,4.22,50.12,50.12,0,0,1-4,3.84v4.09Zm-.21,8.57v-4.64h4.52v4.64Z" style="fill:none;stroke:#000;stroke-miterlimit:10"></path></g><g style="opacity:0.30000000000000004"><path d="M314.28,392v-5.24A50.25,50.25,0,0,0,318.1,383a16.41,16.41,0,0,0,2.72-3.93,10.05,10.05,0,0,0,1-4.51,5.17,5.17,0,0,0-1-3.3,3.62,3.62,0,0,0-3-1.31,3.7,3.7,0,0,0-2.68,1,3.35,3.35,0,0,0-1,2.49,5.67,5.67,0,0,0,.09,1q.07.48.21,1.08l-4.22.8a8.1,8.1,0,0,1-.34-1.33,7,7,0,0,1-.13-1.33,7.49,7.49,0,0,1,2.11-5.51,8,8,0,0,1,5.95-2.13A8.38,8.38,0,0,1,324,368.3a8.68,8.68,0,0,1,2.24,6.39,11.92,11.92,0,0,1-1.06,5.11,15.85,15.85,0,0,1-2.87,4.22,50.12,50.12,0,0,1-4,3.84V392Zm-.21,8.56v-4.64h4.52v4.64Z" style="fill:none;stroke:#000;stroke-miterlimit:10"></path></g><g style="opacity:0.30000000000000004"><path d="M58.12,146.35v-5.23a50.31,50.31,0,0,0,3.82-3.72,16.56,16.56,0,0,0,2.72-3.92,10.09,10.09,0,0,0,1-4.52,5.13,5.13,0,0,0-1-3.29,4.16,4.16,0,0,0-5.7-.34,3.35,3.35,0,0,0-1,2.49,6.63,6.63,0,0,0,.08,1q.09.5.21,1.08l-4.22.8a8.92,8.92,0,0,1-.33-1.33,7,7,0,0,1-.13-1.33,7.5,7.5,0,0,1,2.11-5.51,8,8,0,0,1,5.95-2.13,8.43,8.43,0,0,1,6.25,2.26,8.72,8.72,0,0,1,2.24,6.4,12.05,12.05,0,0,1-1.06,5.1,15.85,15.85,0,0,1-2.87,4.22,48.5,48.5,0,0,1-4.05,3.85v4.09Zm-.21,8.57v-4.65h4.51v4.65Z" style="fill:none;stroke:#000;stroke-miterlimit:10"></path></g><g style="opacity:0.30000000000000004"><path d="M138.51,255.75v-5.23a50.31,50.31,0,0,0,3.82-3.72,16.5,16.5,0,0,0,2.73-3.92,10.22,10.22,0,0,0,1-4.52,5.13,5.13,0,0,0-1-3.29,4.16,4.16,0,0,0-5.7-.34,3.35,3.35,0,0,0-1,2.49,5.77,5.77,0,0,0,.08,1c.06.32.13.68.21,1.07l-4.22.8a10.33,10.33,0,0,1-.34-1.33,7.71,7.71,0,0,1-.12-1.32,7.47,7.47,0,0,1,2.11-5.51,8,8,0,0,1,6-2.14,8.45,8.45,0,0,1,6.25,2.26,8.72,8.72,0,0,1,2.23,6.4,12.1,12.1,0,0,1-1.05,5.11,16.26,16.26,0,0,1-2.87,4.22,48.69,48.69,0,0,1-4.06,3.84v4.09Zm-.21,8.57v-4.64h4.52v4.64Z" style="fill:none;stroke:#000;stroke-miterlimit:10"></path></g><g style="opacity:0.30000000000000004"><path d="M444.64,191v-5.24a48.41,48.41,0,0,0,3.82-3.71,16.41,16.41,0,0,0,2.72-3.93,10,10,0,0,0,1-4.51,5.17,5.17,0,0,0-1-3.3,3.61,3.61,0,0,0-3-1.3,3.69,3.69,0,0,0-2.69,1,3.31,3.31,0,0,0-1,2.49,5.64,5.64,0,0,0,.09,1c.05.33.12.68.21,1.08l-4.22.8a9.24,9.24,0,0,1-.34-1.33,7.87,7.87,0,0,1-.13-1.33,7.53,7.53,0,0,1,2.11-5.51,8,8,0,0,1,6-2.13,8.37,8.37,0,0,1,6.24,2.26,8.7,8.7,0,0,1,2.24,6.39,11.92,11.92,0,0,1-1.06,5.11,15.85,15.85,0,0,1-2.87,4.22,46.85,46.85,0,0,1-4.05,3.84V191Zm-.21,8.57v-4.65H449v4.65Z" style="fill:none;stroke:#000;stroke-miterlimit:10"></path></g></g><g id="freepik--No--inject-151"><circle cx="375.45" cy="109.5" r="25.86" transform="translate(-15.06 88.18) rotate(-13.13)" style="fill:#fff;stroke:#263238;stroke-linecap:round;stroke-linejoin:round"></circle><circle cx="375.45" cy="109.5" r="20.1" transform="translate(109.99 396.71) rotate(-63.51)" style="fill:#D05542;stroke:#263238;stroke-linecap:round;stroke-linejoin:round;stroke-width:2px"></circle><line x1="366.69" y1="100.74" x2="384.21" y2="118.26" style="fill:none;stroke:#263238;stroke-linecap:round;stroke-linejoin:round;stroke-width:5px"></line><line x1="384.21" y1="100.74" x2="366.69" y2="118.26" style="fill:none;stroke:#263238;stroke-linecap:round;stroke-linejoin:round;stroke-width:5px"></line><path d="M344.85,195.79V143.93h4.93l14.73,34.45V143.93h6v51.86h-4.61L351,160.39v35.4Z" style="fill:#263238"></path><path d="M391.91,196.37a15.12,15.12,0,0,1-8.39-2.05,11.26,11.26,0,0,1-4.48-5.86,26.72,26.72,0,0,1-1.34-8.93V159.87a25.14,25.14,0,0,1,1.37-8.8,11,11,0,0,1,4.48-5.63,15.51,15.51,0,0,1,8.36-2,15.22,15.22,0,0,1,8.32,2,11.19,11.19,0,0,1,4.45,5.63,24.88,24.88,0,0,1,1.38,8.77v19.72a25.72,25.72,0,0,1-1.38,8.84,11.69,11.69,0,0,1-4.45,5.86Q397.16,196.38,391.91,196.37Zm0-5.7a6.82,6.82,0,0,0,4.35-1.18,5.87,5.87,0,0,0,2-3.33,22,22,0,0,0,.51-5V158.4a21.08,21.08,0,0,0-.51-5,5.53,5.53,0,0,0-2-3.2,7.08,7.08,0,0,0-4.35-1.12,7.28,7.28,0,0,0-4.39,1.12,5.45,5.45,0,0,0-2,3.2,20.52,20.52,0,0,0-.52,5v22.73a21.37,21.37,0,0,0,.52,5,5.79,5.79,0,0,0,2,3.33A7,7,0,0,0,391.91,190.67Z" style="fill:#263238"></path></g><g id="freepik--Yes--inject-151"><circle cx="119.28" cy="109.46" r="25.86" transform="translate(-42.47 116.4) rotate(-45)" style="fill:#fff;stroke:#263238;stroke-linecap:round;stroke-linejoin:round"></circle><circle cx="119.28" cy="109.46" r="20.1" style="fill:#D05542;stroke:#263238;stroke-linecap:round;stroke-linejoin:round;stroke-width:2px"></circle><polyline points="105.59 107.94 112.54 118.22 129.18 101.54" style="fill:none;stroke:#263238;stroke-linecap:round;stroke-linejoin:round;stroke-width:5px"></polyline><path d="M88.09,195.79V177.48l-11.2-33.55h6.72l7.94,25,7.81-25h6.79L95,177.48v18.31Z" style="fill:#263238"></path><path d="M111,195.79V143.93h20.11v5.38H118.19v17.16h10.43v5.12H118.19v19h13v5.18Z" style="fill:#263238"></path><path d="M149.24,196.37a13.51,13.51,0,0,1-7.46-1.92,12.07,12.07,0,0,1-4.51-5.32,21.84,21.84,0,0,1-1.8-7.87l6.41-1.73a27.77,27.77,0,0,0,.86,5.31A9.6,9.6,0,0,0,145,189a5.59,5.59,0,0,0,4.29,1.63,5.48,5.48,0,0,0,4.26-1.57,6.43,6.43,0,0,0,1.44-4.51,9.3,9.3,0,0,0-1.6-5.67,29.5,29.5,0,0,0-4-4.32l-8.7-7.68a14.69,14.69,0,0,1-3.78-4.9,15.74,15.74,0,0,1-1.22-6.56q0-5.7,3.27-8.84t8.9-3.14a16.79,16.79,0,0,1,5.41.8,9.55,9.55,0,0,1,3.9,2.47,12.1,12.1,0,0,1,2.5,4.19,24,24,0,0,1,1.25,5.92l-6.15,1.67a25.18,25.18,0,0,0-.77-4.71,6.92,6.92,0,0,0-2-3.45,5.91,5.91,0,0,0-4.13-1.32,5.83,5.83,0,0,0-4.2,1.44,5.64,5.64,0,0,0-1.5,4.26,8.37,8.37,0,0,0,.8,3.91,11.4,11.4,0,0,0,2.59,3.13l8.77,7.69a27.41,27.41,0,0,1,5.19,6.11,15.5,15.5,0,0,1,2.24,8.42,13.07,13.07,0,0,1-1.6,6.63,10.84,10.84,0,0,1-4.39,4.26A13.55,13.55,0,0,1,149.24,196.37Z" style="fill:#263238"></path></g><g id="freepik--Table--inject-151"><line x1="436.05" y1="452.31" x2="451.07" y2="452.31" style="fill:none;stroke:#263238;stroke-linecap:round;stroke-linejoin:round"></line><line x1="52.28" y1="452.31" x2="426.37" y2="452.31" style="fill:none;stroke:#263238;stroke-linecap:round;stroke-linejoin:round"></line></g><g id="freepik--Character--inject-151"><path d="M350.76,285.38a18.28,18.28,0,0,0-2.55-2.62c-.3-.26-.56-.5-.77-.7s-23.64-28.64-25.56-31.9c-.57-1-1.27-2.45-2-4-2.1-4.38-3.69-7.53-5.1-8.17-.1-.05-7.32-3.25-12.83-5.35,3.46-1.38,7.13-3.47,6.41-8.2-.52-3.42-2.37-6-4-8.35-2-2.83-3.72-5.27-2.44-8.35a21.33,21.33,0,0,1,3.44-5.3c2.25-2.78,4.57-5.67,4.22-11.07-.48-7.29-4.85-25.37-14.72-31.62-9.18-5.81-31.75-6.25-33-6.27s-10.46-1-12.62,2.14l-.29.42a19.76,19.76,0,0,0-1.28,2c-2.74-.47-6.33-.44-8.24,2.17-2.35,3.2,1.21,8.64,3.64,11.7-.65,1.07-1.29,2.15-1.89,3.19-3.47,6-3.53,6.14-2.82,7.35l.1.17a12.71,12.71,0,0,1,1,3.22c-2.11,2.49-5.57,6.42-6.35,6.86a1.17,1.17,0,0,0-.61.87c-.14,1,1,2.29,2.47,3.73l1.27,1.29c.18,1,1.1,6.59,1.82,10.71a.58.58,0,0,0-.14-.13c-.77-.47-1.7.39-2,.66-2,1.82-6.41,9-6.77,11a77.53,77.53,0,0,0-.33,8.12c-.5.64-.95,1.25-1.34,1.8-10.95,2.71-21.28,5.66-21.5,7.2-.36,2.54-.92,32.71,0,46.64a99.55,99.55,0,0,1-.24,15.51c-.31,3.83-.51,6.36.48,8.14a23.2,23.2,0,0,0,4.17,4.71c1.95,3.46,6,9.63,9.54,12.3-.07.17-.13.34-.2.52a.06.06,0,0,0,0,0c-3.85,9.89-11.36,31.12-12.55,49.31-1.6,24.52,13.73,76.8,13.88,77.32a.48.48,0,0,0,.46.35h33.73a.48.48,0,0,0,.48-.48V387.76a1,1,0,0,1,2,0v64.57a.49.49,0,0,0,.48.48h33.73a.47.47,0,0,0,.44-.29c.21-.48,20.57-47.84,16.44-78.57-1.14-8.49-2.63-16.18-4.19-22.88a8.09,8.09,0,0,0,2.17.21,11.13,11.13,0,0,0,5.78-3.35,34,34,0,0,0,2.3-4.59l20.54-24.78a8.37,8.37,0,0,0,3,1.15.46.46,0,0,0,.46-.22c.12-.19.44-.63.86-1.21,5.67-7.92,5.84-8.82,5.44-9.35a14.11,14.11,0,0,0-2.51-1.37c1.86-2.76,7.24-10.85,8.16-13.94C352,289.82,352,287,350.76,285.38Zm-29,13.27-.7,1.41a.36.36,0,0,0,0,.11l-1.76,8.07a.48.48,0,0,0,.21.5l.71.47-13.56,27.37c-1.09-1.19-2.65-2.9-3.38-3.77l-.17-.2c-.47-.55-1.44-1.7-3.14-4a12.47,12.47,0,0,1-1.32-3.15c-.59-1.8-1.05-3.22-1.95-3.52a1,1,0,0,0-.7,0,42.06,42.06,0,0,0-.91-4.79,34.88,34.88,0,0,1-.71-3.58c-.17-1.92,1.26-12,1.25-12l9.92-29.57,18.57,21.3c-1,.05-2.31.23-2.83.87a1.12,1.12,0,0,0-.22,1c.19.74.6,2.06,1,3.2A.43.43,0,0,0,321.73,298.65Zm-82.92-85a4.73,4.73,0,0,0,3.73,3.58c1,.06,4.54-.19,5.79-.28.13.62.39,1.92.77,3.67a6.75,6.75,0,0,0-3.3,3.45c-1-.91-2.28-2-3.47-2.86-.21-2.49-.67-3.95-1.44-4.56a1.47,1.47,0,0,0-1.31-.28c-1,.23-1.55,1.18-1.86,2.39a1.21,1.21,0,0,0-1,.27.62.62,0,0,0-.19.4c-.46.53-1.26,1.48-2.21,2.62l-.14-2.65c.66-1,3.8-6,4.12-7.29,0-.07.06-.28.11-.55C238.58,212.55,238.73,213.31,238.81,213.66Z" style="opacity:0.2"></path><path d="M295.59,370.72c-4.33-32.26-13.38-53.22-13.38-53.22l-76.15-2.62s-13.72,31.29-15.41,57,14.45,80.39,14.45,80.39h35.14V385a1.56,1.56,0,1,1,3.12,0v67.27h35.15S299.93,403,295.59,370.72Z" style="fill:#263238;stroke:#263238;stroke-linecap:round;stroke-linejoin:round"></path><path d="M282.21,317.5l-76.15-2.62s-.94,2.15-2.36,5.77c4.36,1.71,15.53,5.26,36.78,7.22s36.15-4.76,42.53-8.4C282.51,318.18,282.21,317.5,282.21,317.5Z" style="fill:#999;stroke:#263238;stroke-linecap:round;stroke-linejoin:round"></path><path d="M242.38,329.86s15.21,4.69,17.5,3.93,2.16-4.57,0-6.1-16.9-5.28-16.9-5.28-3.56-.69-4.95,1a4.5,4.5,0,0,0,.38,5.59C239.55,329.85,242.38,329.86,242.38,329.86Z" style="fill:#999;stroke:#263238;stroke-linecap:round;stroke-linejoin:round"></path><path d="M242.38,329.86a3.75,3.75,0,1,1,0-7.5,3.94,3.94,0,0,1,.6.05,4.72,4.72,0,0,0-2.22-.56,4.45,4.45,0,1,0,0,8.89c1.2,0,.88.26,1.7-.45C242,330.47,242.91,329.86,242.38,329.86Z" style="fill:#fff;stroke:#263238;stroke-linecap:round;stroke-linejoin:round"></path><path d="M232.51,217.09s-42.72,9.3-43.1,12-.95,34.09,0,48.48-1.71,21,.19,24.44,10.23,9.84,11.36,10.79,6.25,5.49,6.25,5.49,8.9,3.22,32.58,5.5,42.23-4.36,42.42-6.25-1.51-7.58-1.7-9.66,1.33-12.69,1.33-12.69l10.6-31.63,20.65,23.67s-4.17-.19-3.79,1.33S311,294,311,294l19.32,8.14s8-11.55,9.09-15.34,1.14-6.63,0-8.14a27.73,27.73,0,0,0-3.41-3.41c-.75-.76-24.81-30.11-26.7-33.33s-5.12-11.56-7.2-12.5S285.62,222.23,283,222,262.92,213.85,232.51,217.09Z" style="fill:#D05542;stroke:#263238;stroke-linecap:round;stroke-linejoin:round"></path><line x1="209.4" y1="249.92" x2="208.92" y2="246.66" style="fill:none;stroke:#263238;stroke-linecap:round;stroke-linejoin:round"></line><line x1="212.33" y1="269.77" x2="209.8" y2="252.67" style="fill:none;stroke:#263238;stroke-linecap:round;stroke-linejoin:round"></line><line x1="292.44" y1="263.52" x2="297.56" y2="248.18" style="fill:none;stroke:#263238;stroke-linecap:round;stroke-linejoin:round"></line><line x1="299.39" y1="250.72" x2="300.78" y2="247.61" style="fill:none;stroke:#263238;stroke-linecap:round;stroke-linejoin:round"></line><line x1="294.71" y1="261.24" x2="298.36" y2="253.04" style="fill:none;stroke:#263238;stroke-linecap:round;stroke-linejoin:round"></line><path d="M241.35,307.31c-1,6-2.75,10.52-2.32,10.94a25.53,25.53,0,0,1,1.89,2.66" style="fill:none;stroke:#263238;stroke-linecap:round;stroke-linejoin:round"></path><path d="M242.06,260.3s.38,31.44,0,40.53c-.05,1.3-.16,2.57-.32,3.79" style="fill:none;stroke:#263238;stroke-linecap:round;stroke-linejoin:round"></path><path d="M262.72,275.77a18.27,18.27,0,0,1-4.56-.51" style="fill:none;stroke:#263238;stroke-linecap:round;stroke-linejoin:round"></path><path d="M257.21,267.87S268.77,269,272,269s15-.95,15-.95l-.76,6.63s-13.64,1.14-20.07,1.14" style="fill:none;stroke:#263238;stroke-linecap:round;stroke-linejoin:round"></path><path d="M279.37,291.17c3.79-1.33,5.12-12.31,5.12-12.31" style="fill:none;stroke:#263238;stroke-linecap:round;stroke-linejoin:round"></path><path d="M257.4,278.1s-1.51,12.12-.75,13.07c.56.71,10.93,1.1,17.68.69" style="fill:none;stroke:#263238;stroke-linecap:round;stroke-linejoin:round"></path><polyline points="227.86 264.46 235.24 264.46 235.43 271.66 226.15 271.66" style="fill:none;stroke:#263238;stroke-linecap:round;stroke-linejoin:round"></polyline><path d="M234.66,277.34c.35,4.82.65,12.12-.74,12.5-2.09.57-9.09.38-9.09.38" style="fill:none;stroke:#263238;stroke-linecap:round;stroke-linejoin:round"></path><path d="M234.3,273.18s.13,1.24.27,3.05" style="fill:none;stroke:#263238;stroke-linecap:round;stroke-linejoin:round"></path><path d="M332.23,287.2a20.66,20.66,0,0,1,2.83.37" style="fill:none;stroke:#263238;stroke-linecap:round;stroke-linejoin:round"></path><path d="M316.12,287.57s7.46-.61,13.45-.49" style="fill:none;stroke:#263238;stroke-linecap:round;stroke-linejoin:round"></path><path d="M327.48,280.94s-8.14.95-13.26,4.93" style="fill:none;stroke:#263238;stroke-linecap:round;stroke-linejoin:round"></path><path d="M236.05,147.17s-8.59-3.37-11.84,1.07S230,162.13,230,162.13l12.3-15Z" style="fill:#263238;stroke:#263238;stroke-linecap:round;stroke-linejoin:round"></path><path d="M234.8,211.05a6.67,6.67,0,0,0-4.1,4.36c-.76,3.22.94,24.62.38,29.17s3.78,0,3.78,0l3.79-6.25s6.7,8.28,7.9,7.83,5.36-5.94,6.12-5.18,5.68,9.28,6.25,4.17,5.49-16.86,3.41-26.9-4.31-8-4.31-8Z" style="fill:#D05542;stroke:#263238;stroke-linecap:round;stroke-linejoin:round"></path><path d="M235,149.27s-5.2,7.94-8.94,14.44-3.52,6.13-2.83,7.34a14.66,14.66,0,0,1,1.09,3.75s-5.69,6.75-6.9,7.43.59,2.56,2,4l1.44,1.46s2.31,13.88,2.75,15.84a4.43,4.43,0,0,0,3.44,3.33c1.15.08,6.4-.32,6.4-.32s3.41,17.26,7.26,28.24,4.63,12.34,5.79,11.37,7.13-11.37,11.95-30.45,6.1-20.12,6.1-20.12,3.59-20.81-2.48-30.7S242.43,145.35,235,149.27Z" style="fill:#fff;stroke:#263238;stroke-linecap:round;stroke-linejoin:round"></path><path d="M235.82,173.93c0,1.42-.76,2.58-1.7,2.58s-1.7-1.16-1.7-2.58.76-2.58,1.7-2.58S235.82,172.5,235.82,173.93Z" style="fill:#263238"></path><path d="M241.27,167.54c-5.35-7.67-10.14-1-10.14-1" style="fill:none;stroke:#263238;stroke-linecap:round;stroke-linejoin:round"></path><path d="M224.33,174.8a3.21,3.21,0,0,0,1.34-2.61l.14-1.93" style="fill:none;stroke:#263238;stroke-linecap:round;stroke-linejoin:round"></path><polygon points="233.5 206.55 243.47 205.79 236.72 219.9 233.5 206.55" style="fill:#263238;stroke:#263238;stroke-linecap:round;stroke-linejoin:round"></polygon><line x1="226.39" y1="190.57" x2="229.59" y2="189.68" style="fill:none;stroke:#263238;stroke-linecap:round;stroke-linejoin:round"></line><path d="M247.15,141.43s-10.55-1.13-12.7,2-4,5.32.7,9.33,10.64,8.09,10.4,11.55,3.14,7.56,5.77,8.52,6.19-2.85,4.65,2.64-11.05,6-9.28,13.84,8.39,9.87,5.73,12-11.27,8.23-9.73,17.29,12.14,15.42,10.79,19.47-12.91,5-13.1,11,7.13,12.72,11.56,13.68,10-.39,10-.39-5.2-6.93-3.27-7.9,11.18-1,19.66-4.24,9.83-15,8.09-18.5-5-3.86-3.27-6.17,13.15-2.79,12-10.61-9.25-11.47-6.69-17.66,8.51-8.29,7.95-16.83S290.9,154,281.28,147.88,247.15,141.43,247.15,141.43Z" style="fill:#263238;stroke:#263238;stroke-linecap:round;stroke-linejoin:round"></path><path d="M198.69,288.9s-6.63,13.44-5.87,15.72,9.85,17.23,14.2,16.1,10.23-8,11.56-11.37,2.84-13.45,2.84-13.45-10.23,2.35-12.88,1.56S198.69,288.9,198.69,288.9Z" style="fill:#D05542;stroke:#263238;stroke-linecap:round;stroke-linejoin:round"></path><path d="M229.38,234.78s-.88-2-2.14-5.29-.75-10.57-.75-14.22-.25-8.81-2.39-8.31-2,5.41-1.64,7.81-.77,9.78-1.33,10.43a7.56,7.56,0,0,0-.94,1.4s4.91,9.06,6.8,10.82S229.38,234.78,229.38,234.78Z" style="fill:#fff;stroke:#263238;stroke-linecap:round;stroke-linejoin:round"></path><path d="M213.2,221.23s0-8.11.34-10,4.83-9.32,6.9-11.21,2.07.51,1.72,1.89-4.31,7.59-4.31,7.59l.35,6.73Z" style="fill:#fff;stroke:#263238;stroke-linecap:round;stroke-linejoin:round"></path><path d="M221.3,209.85s-10.86,12.76-11,14.31,10,17.94,10.18,18.46-12.76,30-12.76,30l-6.21,14.32s4.83,7.76,7.07,10.52,4.14,3.1,5.86,2.24,7.07-5.35,7.07-5.35l7.42-51.22s1.72-3.62,1.72-5.69-9.48-12.24-9.48-12.24l1.55-2.25s10.35,3.45,11.56,2.59-.21-2.34-.21-2.34L231,221.4s2.76.42,2.76-.69a3.43,3.43,0,0,0-.69-1.38,2.62,2.62,0,0,0-.52-2.24c-.86-1-7.66-6.94-9.55-7.46S221.3,209.85,221.3,209.85Z" style="fill:#fff;stroke:#263238;stroke-linecap:round;stroke-linejoin:round"></path><path d="M233,219.33s-8.46-5.87-9.83-7.14-5.78,4.48-6.66,5.65" style="fill:#fff;stroke:#263238;stroke-linecap:round;stroke-linejoin:round"></path><path d="M231,221.4a53,53,0,0,1-7.22-3.34c-1.86-1.27-3.62-1-4.11-.59s-5.1,5.79-5.1,5.79" style="fill:#fff;stroke:#263238;stroke-linecap:round;stroke-linejoin:round"></path><path d="M202.86,280s7.76,15.16,10,15.16,9.85-6.63,9.85-6.63,3,6.44,2.46,7.76-13.44,9.47-15.9,9.47-14.4-13.82-12.69-16.85S201.72,279.24,202.86,280Z" style="fill:#D05542;stroke:#263238;stroke-linecap:round;stroke-linejoin:round"></path><path d="M294.67,333.39s-3.52-3.79-4.78-5.28c-.42-.51-1.44-1.67-3.46-4.36-1.49-2-2.08-7.83-3.79-6.66s-1.62,4.72-.92,6a11.87,11.87,0,0,1,1.38,2.7c.08.57,2.16,6,2.16,6s7.62,7.28,8.1,5.69S294.67,333.39,294.67,333.39Z" style="fill:#fff;stroke:#263238;stroke-linecap:round;stroke-linejoin:round"></path><path d="M309.47,301.2,293.21,334s-14.46-9.63-15.19-9.63-8.77,4.94-10,5.85-3.11,6.77-3.48,8.41-.18,2.93,1.1,2,4.94-7.13,4.94-7.13l5.85-2.55s-6,6.58-6.22,7.31-4.2,8.77-4.2,9.87,2.37-.37,2.37-.37-.91,3.48,0,3.48,4.76-2.74,6-3.84l4-3.47,4.2-2.38s-4.38,5.85-5.12,6.76-4.93,5.49-3.1,5.85,7.49-5.12,7.49-5.12l5.12-4s5.3,1.65,6.95,1.46a11.16,11.16,0,0,0,5.67-3.29,36.88,36.88,0,0,0,2.37-4.75l23.95-28.88Z" style="fill:#fff;stroke:#263238;stroke-linecap:round;stroke-linejoin:round"></path><path d="M268.33,347.81l8.41-9.32s3.48-3.29,6.4-2.74" style="fill:#fff;stroke:#263238;stroke-linecap:round;stroke-linejoin:round"></path><path d="M276.38,331s2.19-2.2,3.84-2.2" style="fill:#fff;stroke:#263238;stroke-linecap:round;stroke-linejoin:round"></path><path d="M309.29,293.88l-1.83,8.41s18.83,12.43,19.56,11.34,7.13-9.69,6.58-10.42S310,292.42,310,292.42Z" style="fill:#D05542;stroke:#263238;stroke-linecap:round;stroke-linejoin:round"></path></g></svg>
